ThinWideLatin_decomp.ufo
<glyph name="exclam" format="1">
  <advance width="227.0"/>
  <unicode hex="0021"/>
  <outline>
    <contour>
      <point x="125.55" y="229" type="line"/>
      <point x="130.55" y="722" type="line"/>
      <point x="98.55" y="722" type="line"/>
      <point x="102.55" y="229" type="line"/>
    </contour>
    <contour>
      <point x="109.55" y="12"/>
      <point x="119.55" y="12"/>
      <point x="133.55" y="12" type="curve"/>
      <point x="133.55" y="23"/>
      <point x="125.55" y="30"/>
      <point x="113.55" y="30" type="curve"/>
      <point x="102.55" y="30"/>
      <point x="95.55" y="23"/>
      <point x="95.55" y="12" type="curve"/>
      <point x="109.55" y="12"/>
      <point x="119.55" y="12"/>
      <point x="133.55" y="12" type="curve"/>
      <point x="133.55" y="1"/>
      <point x="125.55" y="-6"/>
      <point x="113.55" y="-6" type="curve"/>
      <point x="102.55" y="-6"/>
      <point x="95.55" y="1"/>
      <point x="95.55" y="12" type="curve"/>
    </contour>
  </outline>
</glyph>
<glyph name="quotedbl" format="1">
  <advance width="452.2"/>
  <unicode hex="0022"/>
  <outline>
    <contour>
      <point x="123.6" y="658" type="line"/>
      <point x="126.6" y="846" type="line"/>
      <point x="96.6" y="846" type="line"/>
      <point x="99.6" y="658" type="line"/>
    </contour>
    <contour>
      <point x="352.6" y="658" type="line"/>
      <point x="355.6" y="846" type="line"/>
      <point x="325.6" y="846" type="line"/>
      <point x="328.6" y="658" type="line"/>
    </contour>
  </outline>
</glyph>
<glyph name="numbersign" format="1">
  <advance width="861.85"/>
  <unicode hex="0023"/>
  <outline>
    <contour>
      <point x="50.4" y="247" type="curve"/>
      <point x="704.4" y="247" type="curve"/>
      <point x="711.4" y="269" type="curve"/>
      <point x="58.4" y="269" type="curve"/>
    </contour>
    <contour>
      <point x="148.4" y="492" type="curve"/>
      <point x="803.4" y="492" type="curve"/>
      <point x="810.4" y="513" type="curve"/>
      <point x="156.4" y="513" type="curve"/>
    </contour>
    <contour>
      <point x="503.4" y="39" type="curve"/>
      <point x="795.4" y="722" type="curve"/>
      <point x="771.4" y="722" type="curve"/>
      <point x="478.4" y="39" type="curve"/>
    </contour>
    <contour>
      <point x="125.4" y="46" type="curve"/>
      <point x="412.4" y="722" type="curve"/>
      <point x="388.4" y="722" type="curve"/>
      <point x="102.4" y="46" type="curve"/>
    </contour>
  </outline>
</glyph>
<glyph name="dollar" format="1">
  <advance width="688.53"/>
  <unicode hex="0024"/>
  <outline>
    <contour>
      <point x="85.0" y="99"/>
      <point x="63.0" y="99"/>
      <point x="85.0" y="99" type="curve"/>
      <point x="85.0" y="219"/>
      <point x="85.0" y="99"/>
      <point x="85.0" y="219" type="curve"/>
      <point x="63.0" y="219"/>
      <point x="85.0" y="219"/>
      <point x="63.0" y="219" type="curve"/>
      <point x="63.0" y="99"/>
      <point x="63.0" y="219"/>
      <point x="63.0" y="99" type="curve"/>
    </contour>
    <contour>
      <point x="585.0" y="631"/>
      <point x="607.0" y="631"/>
      <point x="585.0" y="631" type="curve"/>
      <point x="585.0" y="511"/>
      <point x="585.0" y="631"/>
      <point x="585.0" y="511" type="curve"/>
      <point x="607.0" y="511"/>
      <point x="585.0" y="511"/>
      <point x="607.0" y="511" type="curve"/>
      <point x="607.0" y="631"/>
      <point x="607.0" y="511"/>
      <point x="607.0" y="631" type="curve"/>
    </contour>
    <contour>
      <point x="337.0" y="-43"/>
      <point x="312.0" y="-43"/>
      <point x="337.0" y="-43" type="curve"/>
      <point x="337.0" y="-9"/>
      <point x="337.0" y="25"/>
      <point x="337.0" y="59" type="curve"/>
      <point x="312.0" y="59"/>
      <point x="337.0" y="59"/>
      <point x="312.0" y="59" type="curve"/>
      <point x="312.0" y="25"/>
      <point x="312.0" y="-9"/>
      <point x="312.0" y="-43" type="curve"/>
    </contour>
    <contour>
      <point x="353.0" y="671"/>
      <point x="329.0" y="671"/>
      <point x="353.0" y="671" type="curve"/>
      <point x="353.0" y="705"/>
      <point x="353.0" y="739"/>
      <point x="353.0" y="773" type="curve"/>
      <point x="329.0" y="773"/>
      <point x="353.0" y="773"/>
      <point x="329.0" y="773" type="curve"/>
      <point x="329.0" y="739"/>
      <point x="329.0" y="705"/>
      <point x="329.0" y="671" type="curve"/>
    </contour>
    <contour>
      <point x="63.0" y="99"/>
      <point x="76.0" y="118"/>
      <point x="63.0" y="99" type="curve"/>
      <point x="137.0" y="71"/>
      <point x="225.0" y="48"/>
      <point x="323.0" y="48" type="curve"/>
      <point x="484.0" y="48"/>
      <point x="627.0" y="73"/>
      <point x="627.0" y="198" type="curve"/>
      <point x="627.0" y="320"/>
      <point x="486.0" y="342"/>
      <point x="351.0" y="385" type="curve"/>
      <point x="231.0" y="423"/>
      <point x="122.0" y="443"/>
      <point x="122.0" y="543" type="curve"/>
      <point x="122.0" y="635"/>
      <point x="226.0" y="662"/>
      <point x="347.0" y="662" type="curve"/>
      <point x="442.0" y="662"/>
      <point x="509.0" y="647"/>
      <point x="594.0" y="613" type="curve"/>
      <point x="607.0" y="631"/>
      <point x="594.0" y="613"/>
      <point x="607.0" y="631" type="curve"/>
      <point x="518.0" y="666"/>
      <point x="447.0" y="683"/>
      <point x="349.0" y="683" type="curve"/>
      <point x="211.0" y="683"/>
      <point x="98.0" y="651"/>
      <point x="98.0" y="543" type="curve"/>
      <point x="98.0" y="429"/>
      <point x="211.0" y="405"/>
      <point x="337.0" y="365" type="curve"/>
      <point x="465.0" y="326"/>
      <point x="603.0" y="304"/>
      <point x="603.0" y="197" type="curve"/>
      <point x="603.0" y="93"/>
      <point x="473.0" y="69"/>
      <point x="326.0" y="69" type="curve"/>
      <point x="231.0" y="69"/>
      <point x="147.0" y="93"/>
      <point x="76.0" y="118" type="curve"/>
    </contour>
  </outline>
</glyph>
<glyph name="ampersand" format="1">
  <advance width="850.3"/>
  <unicode hex="0026"/>
  <outline>
    <contour>
      <point x="826.15" y="11" type="line"/>
      <point x="672.15" y="126"/>
      <point x="530.15" y="233"/>
      <point x="376.15" y="349" type="curve"/>
      <point x="290.15" y="419"/>
      <point x="182.15" y="464"/>
      <point x="182.15" y="577" type="curve"/>
      <point x="182.15" y="660"/>
      <point x="252.15" y="705"/>
      <point x="343.15" y="705" type="curve"/>
      <point x="441.15" y="705"/>
      <point x="522.15" y="667"/>
      <point x="522.15" y="579" type="curve"/>
      <point x="522.15" y="466"/>
      <point x="415.15" y="432"/>
      <point x="306.15" y="387" type="curve"/>
      <point x="186.15" y="335"/>
      <point x="66.15" y="302"/>
      <point x="66.15" y="177" type="curve"/>
      <point x="66.15" y="47"/>
      <point x="189.15" y="-5"/>
      <point x="336.15" y="-5" type="curve"/>
      <point x="551.15" y="-5"/>
      <point x="696.15" y="117"/>
      <point x="779.15" y="318" type="curve"/>
      <point x="759.15" y="323"/>
      <point x="779.15" y="318"/>
      <point x="759.15" y="323" type="curve"/>
      <point x="679.15" y="132"/>
      <point x="541.15" y="16"/>
      <point x="337.15" y="16" type="curve"/>
      <point x="203.15" y="16"/>
      <point x="89.15" y="59"/>
      <point x="89.15" y="177" type="curve"/>
      <point x="89.15" y="294"/>
      <point x="203.15" y="322"/>
      <point x="315.15" y="370" type="curve"/>
      <point x="431.15" y="420"/>
      <point x="544.15" y="457"/>
      <point x="545.15" y="579" type="curve"/>
      <point x="545.15" y="680"/>
      <point x="455.15" y="726"/>
      <point x="344.15" y="726" type="curve"/>
      <point x="239.15" y="726"/>
      <point x="159.15" y="674"/>
      <point x="159.15" y="577" type="curve"/>
      <point x="159.15" y="459"/>
      <point x="268.15" y="408"/>
      <point x="360.15" y="336" type="curve"/>
      <point x="509.15" y="224"/>
      <point x="665.15" y="107"/>
      <point x="814.15" y="-5" type="curve"/>
    </contour>
  </outline>
</glyph>
<glyph name="quotesingle" format="1">
  <advance width="223.2"/>
  <unicode hex="0027"/>
  <outline>
    <contour>
      <point x="123.6" y="658" type="line"/>
      <point x="126.6" y="846" type="line"/>
      <point x="96.6" y="846" type="line"/>
      <point x="99.6" y="658" type="line"/>
    </contour>
  </outline>
</glyph>
<glyph name="parenleft" format="1">
  <advance width="420.65"/>
  <unicode hex="0028"/>
  <outline>
    <contour>
      <point x="404.9" y="-235"/>
      <point x="390.9" y="-251"/>
      <point x="404.9" y="-235" type="curve"/>
      <point x="199.9" y="-86"/>
      <point x="85.9" y="73"/>
      <point x="85.9" y="326" type="curve"/>
      <point x="85.9" y="578"/>
      <point x="200.9" y="735"/>
      <point x="402.9" y="888" type="curve"/>
      <point x="388.9" y="903"/>
      <point x="402.9" y="888"/>
      <point x="388.9" y="903" type="curve"/>
      <point x="177.9" y="749"/>
      <point x="60.9" y="586"/>
      <point x="60.9" y="326" type="curve"/>
      <point x="60.9" y="66"/>
      <point x="178.9" y="-96"/>
      <point x="390.9" y="-251" type="curve"/>
    </contour>
  </outline>
</glyph>
<glyph name="parenright" format="1">
  <advance width="435.5"/>
  <unicode hex="0029"/>
  <outline>
    <contour>
      <point x="28.65" y="-267"/>
      <point x="13.65" y="-252"/>
      <point x="28.65" y="-267" type="curve"/>
      <point x="244.65" y="-104"/>
      <point x="375.65" y="57"/>
      <point x="375.65" y="327" type="curve"/>
      <point x="375.65" y="591"/>
      <point x="251.65" y="751"/>
      <point x="33.65" y="903" type="curve"/>
      <point x="19.65" y="887"/>
      <point x="33.65" y="903"/>
      <point x="19.65" y="887" type="curve"/>
      <point x="228.65" y="736"/>
      <point x="349.65" y="582"/>
      <point x="349.65" y="326" type="curve"/>
      <point x="349.65" y="65"/>
      <point x="218.65" y="-89"/>
      <point x="13.65" y="-252" type="curve"/>
    </contour>
  </outline>
</glyph>
<glyph name="asterisk" format="1">
  <advance width="782.55"/>
  <unicode hex="002A"/>
  <outline>
    <contour>
      <point x="397.3" y="652" type="line"/>
      <point x="400.3" y="840" type="line"/>
      <point x="370.3" y="840" type="line"/>
      <point x="373.3" y="652" type="line"/>
    </contour>
    <contour>
      <point x="513.3" y="563" type="line"/>
      <point x="693.3" y="619" type="line"/>
      <point x="684.3" y="647" type="line"/>
      <point x="506.3" y="586" type="line"/>
    </contour>
    <contour>
      <point x="465.3" y="426" type="line"/>
      <point x="573.3" y="272" type="line"/>
      <point x="597.3" y="290" type="line"/>
      <point x="484.3" y="440" type="line"/>
    </contour>
    <contour>
      <point x="318.3" y="429" type="line"/>
      <point x="205.3" y="279" type="line"/>
      <point x="230.3" y="261" type="line"/>
      <point x="338.3" y="415" type="line"/>
    </contour>
    <contour>
      <point x="277.3" y="569" type="line"/>
      <point x="99.3" y="630" type="line"/>
      <point x="90.3" y="602" type="line"/>
      <point x="269.3" y="546" type="line"/>
    </contour>
  </outline>
</glyph>
<glyph name="plus" format="1">
  <advance width="742.81"/>
  <unicode hex="002B"/>
  <outline>
    <contour>
      <point x="59.01" y="297"/>
      <point x="59.01" y="321"/>
      <point x="59.01" y="297" type="curve"/>
      <point x="59.01" y="297"/>
      <point x="684.01" y="297"/>
      <point x="684.01" y="297" type="curve"/>
      <point x="684.01" y="321"/>
      <point x="684.01" y="297"/>
      <point x="684.01" y="321" type="curve"/>
      <point x="684.01" y="321"/>
      <point x="59.01" y="321"/>
      <point x="59.01" y="321" type="curve"/>
    </contour>
    <contour>
      <point x="378.01" y="18"/>
      <point x="354.01" y="18"/>
      <point x="378.01" y="18" type="curve"/>
      <point x="378.01" y="18"/>
      <point x="378.01" y="588"/>
      <point x="378.01" y="588" type="curve"/>
      <point x="354.01" y="588"/>
      <point x="378.01" y="588"/>
      <point x="354.01" y="588" type="curve"/>
      <point x="354.01" y="588"/>
      <point x="354.01" y="18"/>
      <point x="354.01" y="18" type="curve"/>
    </contour>
  </outline>
</glyph>
<glyph name="period" format="1">
  <advance width="214.4"/>
  <unicode hex="002E"/>
  <outline>
    <contour>
      <point x="102.2" y="12"/>
      <point x="112.2" y="12"/>
      <point x="126.2" y="12" type="curve"/>
      <point x="126.2" y="23"/>
      <point x="118.2" y="30"/>
      <point x="106.2" y="30" type="curve"/>
      <point x="95.2" y="30"/>
      <point x="88.2" y="23"/>
      <point x="88.2" y="12" type="curve"/>
      <point x="102.2" y="12"/>
      <point x="112.2" y="12"/>
      <point x="126.2" y="12" type="curve"/>
      <point x="126.2" y="1"/>
      <point x="118.2" y="-6"/>
      <point x="106.2" y="-6" type="curve"/>
      <point x="95.2" y="-6"/>
      <point x="88.2" y="1"/>
      <point x="88.2" y="12" type="curve"/>
    </contour>
  </outline>
</glyph>
<glyph name="slash" format="1">
  <advance width="679.43"/>
  <unicode hex="002F"/>
  <outline>
    <contour>
      <point x="64.32" y="-67"/>
      <point x="40.32" y="-67"/>
      <point x="64.32" y="-67" type="curve"/>
      <point x="256.32" y="236"/>
      <point x="448.32" y="540"/>
      <point x="639.32" y="843" type="curve"/>
      <point x="615.32" y="843"/>
      <point x="639.32" y="843"/>
      <point x="615.32" y="843" type="curve"/>
      <point x="424.32" y="540"/>
      <point x="232.32" y="236"/>
      <point x="40.32" y="-67" type="curve"/>
    </contour>
  </outline>
</glyph>
<glyph name="zero" format="1">
  <advance width="891.85"/>
  <unicode hex="0030"/>
  <outline>
    <contour>
      <point x="94.4" y="360"/>
      <point x="73.4" y="360"/>
      <point x="96.4" y="360" type="curve"/>
      <point x="96.4" y="576"/>
      <point x="229.4" y="703"/>
      <point x="447.4" y="703" type="curve"/>
      <point x="663.4" y="703"/>
      <point x="795.4" y="575"/>
      <point x="795.4" y="362" type="curve"/>
      <point x="795.4" y="148"/>
      <point x="664.4" y="20"/>
      <point x="450.4" y="20" type="curve"/>
      <point x="231.4" y="20"/>
      <point x="96.4" y="145"/>
      <point x="96.4" y="360" type="curve"/>
      <point x="73.4" y="360"/>
      <point x="94.4" y="360"/>
      <point x="71.4" y="360" type="curve"/>
      <point x="71.4" y="130"/>
      <point x="216.4" y="-5"/>
      <point x="449.4" y="-5" type="curve"/>
      <point x="679.4" y="-5"/>
      <point x="819.4" y="133"/>
      <point x="819.4" y="363" type="curve"/>
      <point x="819.4" y="592"/>
      <point x="678.4" y="727"/>
      <point x="448.4" y="727" type="curve"/>
      <point x="215.4" y="727"/>
      <point x="71.4" y="591"/>
      <point x="71.4" y="360" type="curve"/>
    </contour>
  </outline>
</glyph>
<glyph name="one" format="1">
  <advance width="531.125"/>
  <unicode hex="0031"/>
  <outline>
    <contour>
      <point x="334.3" y="0"/>
      <point x="334.3" y="22"/>
      <point x="334.3" y="0" type="curve"/>
      <point x="390.3" y="0"/>
      <point x="446.3" y="0"/>
      <point x="503.3" y="0" type="curve"/>
      <point x="503.3" y="22"/>
      <point x="503.3" y="0"/>
      <point x="503.3" y="22" type="curve"/>
      <point x="334.3" y="22"/>
      <point x="503.3" y="22"/>
      <point x="334.3" y="22" type="curve"/>
    </contour>
    <contour>
      <point x="334.3" y="22"/>
      <point x="334.3" y="0"/>
      <point x="334.3" y="22" type="curve"/>
      <point x="165.3" y="22"/>
      <point x="334.3" y="22"/>
      <point x="165.3" y="22" type="curve"/>
      <point x="165.3" y="0"/>
      <point x="165.3" y="22"/>
      <point x="165.3" y="0" type="curve"/>
      <point x="221.3" y="0"/>
      <point x="277.3" y="0"/>
      <point x="334.3" y="0" type="curve"/>
    </contour>
    <contour>
      <point x="62.3" y="531"/>
      <point x="48.3" y="550"/>
      <point x="62.3" y="531" type="curve"/>
      <point x="339.3" y="705"/>
      <point x="62.3" y="531"/>
      <point x="339.3" y="705" type="curve"/>
      <point x="319.3" y="722"/>
      <point x="339.3" y="705"/>
      <point x="319.3" y="722" type="curve"/>
      <point x="48.3" y="550"/>
      <point x="319.3" y="722"/>
      <point x="48.3" y="550" type="curve"/>
    </contour>
    <contour>
      <point x="343.3" y="0"/>
      <point x="319.3" y="0"/>
      <point x="343.3" y="0" type="curve"/>
      <point x="343.3" y="241"/>
      <point x="343.3" y="481"/>
      <point x="343.3" y="722" type="curve"/>
      <point x="319.3" y="722"/>
      <point x="343.3" y="722"/>
      <point x="319.3" y="722" type="curve"/>
      <point x="319.3" y="481"/>
      <point x="319.3" y="241"/>
      <point x="319.3" y="0" type="curve"/>
    </contour>
  </outline>
</glyph>
<glyph name="two" format="1">
  <advance width="732.15"/>
  <unicode hex="0032"/>
  <outline>
    <contour>
      <point x="655.5" y="22"/>
      <point x="633.5" y="22"/>
      <point x="655.5" y="22" type="curve"/>
      <point x="655.5" y="142"/>
      <point x="655.5" y="22"/>
      <point x="655.5" y="142" type="curve"/>
      <point x="633.5" y="142"/>
      <point x="655.5" y="142"/>
      <point x="633.5" y="142" type="curve"/>
      <point x="633.5" y="22"/>
      <point x="633.5" y="142"/>
      <point x="633.5" y="22" type="curve"/>
    </contour>
    <contour>
      <point x="52.5" y="0"/>
      <point x="52.5" y="22"/>
      <point x="52.5" y="0" type="curve"/>
      <point x="259.5" y="0"/>
      <point x="447.5" y="0"/>
      <point x="655.5" y="0" type="curve"/>
      <point x="655.5" y="22"/>
      <point x="655.5" y="0"/>
      <point x="655.5" y="22" type="curve"/>
      <point x="443.5" y="22"/>
      <point x="263.5" y="22"/>
      <point x="52.5" y="22" type="curve"/>
    </contour>
    <contour>
      <point x="101.5" y="563"/>
      <point x="82.5" y="576"/>
      <point x="101.5" y="563" type="curve"/>
      <point x="168.5" y="656"/>
      <point x="245.5" y="702"/>
      <point x="359.5" y="702" type="curve"/>
      <point x="490.5" y="702"/>
      <point x="587.5" y="651"/>
      <point x="587.5" y="526" type="curve"/>
      <point x="587.5" y="390"/>
      <point x="485.5" y="319"/>
      <point x="360.5" y="237" type="curve"/>
      <point x="257.5" y="165"/>
      <point x="154.5" y="93"/>
      <point x="52.5" y="22" type="curve"/>
      <point x="63.5" y="0"/>
      <point x="52.5" y="22"/>
      <point x="63.5" y="0" type="curve"/>
      <point x="167.5" y="73"/>
      <point x="271.5" y="147"/>
      <point x="375.5" y="220" type="curve"/>
      <point x="506.5" y="305"/>
      <point x="611.5" y="373"/>
      <point x="611.5" y="527" type="curve"/>
      <point x="611.5" y="665"/>
      <point x="507.5" y="727"/>
      <point x="361.5" y="727" type="curve"/>
      <point x="238.5" y="727"/>
      <point x="147.5" y="675"/>
      <point x="82.5" y="576" type="curve"/>
    </contour>
  </outline>
</glyph>
<glyph name="three" format="1">
  <advance width="673.305"/>
  <unicode hex="0033"/>
  <outline>
    <contour>
      <point x="63.105" y="56"/>
      <point x="75.105" y="77"/>
      <point x="63.105" y="56" type="curve"/>
      <point x="148.105" y="15"/>
      <point x="216.105" y="-5"/>
      <point x="311.105" y="-5" type="curve"/>
      <point x="479.105" y="-5"/>
      <point x="606.105" y="39"/>
      <point x="606.105" y="195" type="curve"/>
      <point x="606.105" y="340"/>
      <point x="427.105" y="389"/>
      <point x="186.105" y="389" type="curve"/>
      <point x="186.105" y="370"/>
      <point x="186.105" y="389"/>
      <point x="186.105" y="370" type="curve"/>
      <point x="381.105" y="370"/>
      <point x="583.105" y="330"/>
      <point x="583.105" y="194" type="curve"/>
      <point x="583.105" y="52"/>
      <point x="448.105" y="22"/>
      <point x="312.105" y="22" type="curve"/>
      <point x="223.105" y="22"/>
      <point x="164.105" y="39"/>
      <point x="75.105" y="77" type="curve"/>
    </contour>
    <contour>
      <point x="88.105" y="625"/>
      <point x="72.105" y="642"/>
      <point x="88.105" y="625" type="curve"/>
      <point x="142.105" y="671"/>
      <point x="218.105" y="700"/>
      <point x="305.105" y="700" type="curve"/>
      <point x="436.105" y="700"/>
      <point x="538.105" y="669"/>
      <point x="538.105" y="557" type="curve"/>
      <point x="538.105" y="440"/>
      <point x="365.105" y="394"/>
      <point x="186.105" y="394" type="curve"/>
      <point x="186.105" y="375"/>
      <point x="186.105" y="394"/>
      <point x="186.105" y="375" type="curve"/>
      <point x="390.105" y="375"/>
      <point x="561.105" y="420"/>
      <point x="561.105" y="558" type="curve"/>
      <point x="561.105" y="684"/>
      <point x="451.105" y="727"/>
      <point x="307.105" y="727" type="curve"/>
      <point x="212.105" y="727"/>
      <point x="127.105" y="689"/>
      <point x="72.105" y="642" type="curve"/>
    </contour>
  </outline>
</glyph>
<glyph name="four" format="1">
  <advance width="812.2"/>
  <unicode hex="0034"/>
  <outline>
    <contour>
      <point x="489.6" y="22" type="line"/>
      <point x="320.6" y="22" type="line"/>
      <point x="320.6" y="0" type="line"/>
      <point x="489.6" y="0" type="line"/>
    </contour>
    <contour>
      <point x="489.6" y="0" type="line"/>
      <point x="658.6" y="0" type="line"/>
      <point x="658.6" y="22" type="line"/>
      <point x="489.6" y="22" type="line"/>
    </contour>
    <contour>
      <point x="48.6" y="266" type="line"/>
      <point x="495.6" y="705" type="line"/>
      <point x="479.6" y="722" type="line"/>
      <point x="33.6" y="288" type="line"/>
    </contour>
    <contour>
      <point x="757.6" y="288" type="line"/>
      <point x="33.6" y="288" type="line"/>
      <point x="33.6" y="264" type="line"/>
      <point x="757.6" y="264" type="line"/>
    </contour>
    <contour>
      <point x="503.6" y="1" type="line"/>
      <point x="503.6" y="722" type="line"/>
      <point x="479.6" y="722" type="line"/>
      <point x="479.6" y="1" type="line"/>
    </contour>
  </outline>
</glyph>
<glyph name="six" format="1">
  <advance width="720.05"/>
  <unicode hex="0036"/>
  <outline>
    <contour>
      <point x="85.05" y="230"/>
      <point x="68.05" y="241"/>
      <point x="85.05" y="230" type="curve"/>
      <point x="148.05" y="343"/>
      <point x="248.05" y="385"/>
      <point x="368.05" y="385" type="curve"/>
      <point x="511.05" y="385"/>
      <point x="616.05" y="332"/>
      <point x="616.05" y="202" type="curve"/>
      <point x="616.05" y="76"/>
      <point x="512.05" y="21"/>
      <point x="374.05" y="21" type="curve"/>
      <point x="209.05" y="21"/>
      <point x="89.05" y="91"/>
      <point x="89.05" y="242" type="curve"/>
      <point x="89.05" y="543"/>
      <point x="346.05" y="645"/>
      <point x="657.05" y="717" type="curve"/>
      <point x="652.05" y="737"/>
      <point x="657.05" y="717"/>
      <point x="652.05" y="737" type="curve"/>
      <point x="323.05" y="665"/>
      <point x="64.05" y="554"/>
      <point x="64.05" y="241" type="curve"/>
      <point x="64.05" y="75"/>
      <point x="195.05" y="-5"/>
      <point x="373.05" y="-5" type="curve"/>
      <point x="529.05" y="-5"/>
      <point x="642.05" y="61"/>
      <point x="642.05" y="203" type="curve"/>
      <point x="642.05" y="347"/>
      <point x="526.05" y="409"/>
      <point x="370.05" y="409" type="curve"/>
      <point x="231.05" y="409"/>
      <point x="126.05" y="357"/>
      <point x="68.05" y="241" type="curve"/>
    </contour>
  </outline>
</glyph>
<glyph name="seven" format="1">
  <advance width="711.5"/>
  <unicode hex="0037"/>
  <outline>
    <contour>
      <point x="75.55" y="580" type="curve"/>
      <point x="75.55" y="700" type="curve"/>
      <point x="53.55" y="700" type="curve"/>
      <point x="53.55" y="580" type="curve"/>
    </contour>
    <contour>
      <point x="53.55" y="700" type="curve"/>
      <point x="691.55" y="700" type="curve"/>
      <point x="691.55" y="722" type="curve"/>
      <point x="53.55" y="722" type="curve"/>
    </contour>
    <contour>
      <point x="678.55" y="722" type="curve"/>
      <point x="107.55" y="0" type="curve"/>
      <point x="138.55" y="0" type="curve"/>
      <point x="691.55" y="700" type="curve"/>
    </contour>
  </outline>
</glyph>
<glyph name="eight" format="1">
  <advance width="681.6"/>
  <unicode hex="0038"/>
  <outline>
    <contour>
      <point x="95.3" y="562"/>
      <point x="119.3" y="562"/>
      <point x="95.3" y="562" type="curve"/>
      <point x="95.3" y="434"/>
      <point x="208.3" y="415"/>
      <point x="334.3" y="369" type="curve"/>
      <point x="467.3" y="320"/>
      <point x="588.3" y="297"/>
      <point x="588.3" y="170" type="curve"/>
      <point x="588.3" y="47"/>
      <point x="479.3" y="19"/>
      <point x="338.3" y="19" type="curve"/>
      <point x="198.3" y="19"/>
      <point x="93.3" y="49"/>
      <point x="93.3" y="170" type="curve"/>
      <point x="93.3" y="301"/>
      <point x="216.3" y="319"/>
      <point x="351.3" y="369" type="curve"/>
      <point x="473.3" y="417"/>
      <point x="586.3" y="434"/>
      <point x="586.3" y="560" type="curve"/>
      <point x="586.3" y="688"/>
      <point x="483.3" y="727"/>
      <point x="338.3" y="727" type="curve"/>
      <point x="199.3" y="727"/>
      <point x="95.3" y="685"/>
      <point x="95.3" y="562" type="curve"/>
      <point x="119.3" y="562"/>
      <point x="95.3" y="562"/>
      <point x="119.3" y="562" type="curve"/>
      <point x="119.3" y="670"/>
      <point x="214.3" y="703"/>
      <point x="337.3" y="703" type="curve"/>
      <point x="467.3" y="703"/>
      <point x="562.3" y="674"/>
      <point x="562.3" y="560" type="curve"/>
      <point x="562.3" y="446"/>
      <point x="452.3" y="429"/>
      <point x="334.3" y="387" type="curve"/>
      <point x="194.3" y="334"/>
      <point x="69.3" y="313"/>
      <point x="69.3" y="170" type="curve"/>
      <point x="69.3" y="36"/>
      <point x="183.3" y="-5"/>
      <point x="337.3" y="-5" type="curve"/>
      <point x="493.3" y="-5"/>
      <point x="612.3" y="32"/>
      <point x="612.3" y="170" type="curve"/>
      <point x="612.3" y="310"/>
      <point x="488.3" y="335"/>
      <point x="351.3" y="387" type="curve"/>
      <point x="231.3" y="432"/>
      <point x="119.3" y="445"/>
      <point x="119.3" y="562" type="curve"/>
    </contour>
  </outline>
</glyph>
<glyph name="nine" format="1">
  <advance width="721.2"/>
  <unicode hex="0039"/>
  <outline>
    <contour>
      <point x="638.1" y="492"/>
      <point x="651.1" y="485"/>
      <point x="638.1" y="492" type="curve"/>
      <point x="574.1" y="379"/>
      <point x="485.1" y="336"/>
      <point x="355.1" y="336" type="curve"/>
      <point x="212.1" y="336"/>
      <point x="105.1" y="390"/>
      <point x="105.1" y="520" type="curve"/>
      <point x="105.1" y="646"/>
      <point x="210.1" y="702"/>
      <point x="348.1" y="702" type="curve"/>
      <point x="513.1" y="702"/>
      <point x="633.1" y="631"/>
      <point x="633.1" y="480" type="curve"/>
      <point x="633.1" y="179"/>
      <point x="382.1" y="49"/>
      <point x="65.1" y="8" type="curve"/>
      <point x="69.1" y="-15"/>
      <point x="65.1" y="8"/>
      <point x="69.1" y="-15" type="curve"/>
      <point x="401.1" y="24"/>
      <point x="656.1" y="168"/>
      <point x="656.1" y="481" type="curve"/>
      <point x="656.1" y="647"/>
      <point x="528.1" y="727"/>
      <point x="349.1" y="727" type="curve"/>
      <point x="194.1" y="727"/>
      <point x="81.1" y="661"/>
      <point x="81.1" y="519" type="curve"/>
      <point x="81.1" y="375"/>
      <point x="196.1" y="313"/>
      <point x="353.1" y="313" type="curve"/>
      <point x="492.1" y="313"/>
      <point x="600.1" y="364"/>
      <point x="651.1" y="485" type="curve"/>
    </contour>
  </outline>
</glyph>
<glyph name="colon" format="1">
  <advance width="220.7"/>
  <unicode hex="003A"/>
  <outline>
    <contour>
      <point x="105.35" y="12"/>
      <point x="115.35" y="12"/>
      <point x="129.35" y="12" type="curve"/>
      <point x="129.35" y="23"/>
      <point x="121.35" y="30"/>
      <point x="109.35" y="30" type="curve"/>
      <point x="98.35" y="30"/>
      <point x="91.35" y="23"/>
      <point x="91.35" y="12" type="curve"/>
      <point x="105.35" y="12"/>
      <point x="115.35" y="12"/>
      <point x="129.35" y="12" type="curve"/>
      <point x="129.35" y="1"/>
      <point x="121.35" y="-6"/>
      <point x="109.35" y="-6" type="curve"/>
      <point x="98.35" y="-6"/>
      <point x="91.35" y="1"/>
      <point x="91.35" y="12" type="curve"/>
    </contour>
    <contour>
      <point x="105.35" y="429"/>
      <point x="115.35" y="429"/>
      <point x="129.35" y="429" type="curve"/>
      <point x="129.35" y="440"/>
      <point x="121.35" y="447"/>
      <point x="109.35" y="447" type="curve"/>
      <point x="98.35" y="447"/>
      <point x="91.35" y="440"/>
      <point x="91.35" y="429" type="curve"/>
      <point x="105.35" y="429"/>
      <point x="115.35" y="429"/>
      <point x="129.35" y="429" type="curve"/>
      <point x="129.35" y="418"/>
      <point x="121.35" y="411"/>
      <point x="109.35" y="411" type="curve"/>
      <point x="98.35" y="411"/>
      <point x="91.35" y="418"/>
      <point x="91.35" y="429" type="curve"/>
    </contour>
  </outline>
</glyph>
<glyph name="semicolon" format="1">
  <advance width="269.2"/>
  <unicode hex="003B"/>
  <outline>
    <contour>
      <point x="81.9" y="-74" type="line"/>
      <point x="139.9" y="-74"/>
      <point x="157.9" y="-21"/>
      <point x="157.9" y="27" type="curve"/>
      <point x="157.9" y="58"/>
      <point x="153.9" y="84"/>
      <point x="134.9" y="84" type="curve"/>
      <point x="121.9" y="84"/>
      <point x="114.9" y="78"/>
      <point x="114.9" y="66" type="curve"/>
      <point x="114.9" y="56"/>
      <point x="118.9" y="50"/>
      <point x="129.9" y="45" type="curve"/>
      <point x="129.9" y="19"/>
      <point x="132.9" y="-52"/>
      <point x="81.9" y="-52" type="curve"/>
    </contour>
    <contour>
      <point x="130.9" y="428"/>
      <point x="140.9" y="428"/>
      <point x="154.9" y="428" type="curve"/>
      <point x="154.9" y="439"/>
      <point x="146.9" y="446"/>
      <point x="134.9" y="446" type="curve"/>
      <point x="123.9" y="446"/>
      <point x="116.9" y="439"/>
      <point x="116.9" y="428" type="curve"/>
      <point x="130.9" y="428"/>
      <point x="140.9" y="428"/>
      <point x="154.9" y="428" type="curve"/>
      <point x="154.9" y="417"/>
      <point x="146.9" y="410"/>
      <point x="134.9" y="410" type="curve"/>
      <point x="123.9" y="410"/>
      <point x="116.9" y="417"/>
      <point x="116.9" y="428" type="curve"/>
    </contour>
  </outline>
</glyph>
<glyph name="less" format="1">
  <advance width="939.635"/>
  <unicode hex="003C"/>
  <outline>
    <contour>
      <point x="864.63" y="582"/>
      <point x="864.63" y="558"/>
      <point x="864.63" y="582" type="curve"/>
      <point x="590.63" y="492"/>
      <point x="316.63" y="402"/>
      <point x="42.63" y="312" type="curve"/>
      <point x="42.63" y="288"/>
      <point x="42.63" y="312"/>
      <point x="42.63" y="288" type="curve"/>
      <point x="316.63" y="378"/>
      <point x="590.63" y="468"/>
      <point x="864.63" y="558" type="curve"/>
    </contour>
    <contour>
      <point x="878.63" y="48"/>
      <point x="878.63" y="24"/>
      <point x="878.63" y="48" type="curve"/>
      <point x="599.63" y="136"/>
      <point x="321.63" y="224"/>
      <point x="42.63" y="312" type="curve"/>
      <point x="42.63" y="288"/>
      <point x="42.63" y="312"/>
      <point x="42.63" y="288" type="curve"/>
      <point x="321.63" y="200"/>
      <point x="599.63" y="112"/>
      <point x="878.63" y="24" type="curve"/>
    </contour>
  </outline>
</glyph>
<glyph name="equal" format="1">
  <advance width="1033.8"/>
  <unicode hex="003D"/>
  <outline>
    <contour>
      <point x="92.4" y="206"/>
      <point x="92.4" y="229"/>
      <point x="92.4" y="206" type="curve"/>
      <point x="375.4" y="206"/>
      <point x="658.4" y="206"/>
      <point x="941.4" y="206" type="curve"/>
      <point x="941.4" y="229"/>
      <point x="941.4" y="206"/>
      <point x="941.4" y="229" type="curve"/>
      <point x="658.4" y="229"/>
      <point x="375.4" y="229"/>
      <point x="92.4" y="229" type="curve"/>
    </contour>
    <contour>
      <point x="92.4" y="428"/>
      <point x="92.4" y="451"/>
      <point x="92.4" y="428" type="curve"/>
      <point x="375.4" y="428"/>
      <point x="658.4" y="428"/>
      <point x="941.4" y="428" type="curve"/>
      <point x="941.4" y="451"/>
      <point x="941.4" y="428"/>
      <point x="941.4" y="451" type="curve"/>
      <point x="658.4" y="451"/>
      <point x="375.4" y="451"/>
      <point x="92.4" y="451" type="curve"/>
    </contour>
  </outline>
</glyph>
<glyph name="greater" format="1">
  <advance width="938.585"/>
  <unicode hex="003E"/>
  <outline>
    <contour>
      <point x="72.745" y="24"/>
      <point x="72.745" y="48"/>
      <point x="72.745" y="24" type="curve"/>
      <point x="346.745" y="114"/>
      <point x="621.745" y="204"/>
      <point x="895.745" y="294" type="curve"/>
      <point x="895.745" y="318"/>
      <point x="895.745" y="294"/>
      <point x="895.745" y="318" type="curve"/>
      <point x="621.745" y="228"/>
      <point x="346.745" y="138"/>
      <point x="72.745" y="48" type="curve"/>
    </contour>
    <contour>
      <point x="59.745" y="558"/>
      <point x="59.745" y="582"/>
      <point x="59.745" y="558" type="curve"/>
      <point x="337.745" y="470"/>
      <point x="616.745" y="382"/>
      <point x="895.745" y="294" type="curve"/>
      <point x="895.745" y="318"/>
      <point x="895.745" y="294"/>
      <point x="895.745" y="318" type="curve"/>
      <point x="616.745" y="406"/>
      <point x="337.745" y="494"/>
      <point x="59.745" y="582" type="curve"/>
    </contour>
  </outline>
</glyph>
<glyph name="question" format="1">
  <advance width="583.45"/>
  <unicode hex="003F"/>
  <outline>
    <contour>
      <point x="229.2" y="334"/>
      <point x="254.2" y="334"/>
      <point x="229.2" y="334" type="curve"/>
      <point x="229.2" y="297"/>
      <point x="229.2" y="259"/>
      <point x="229.2" y="222" type="curve"/>
      <point x="254.2" y="222"/>
      <point x="229.2" y="222"/>
      <point x="254.2" y="222" type="curve"/>
      <point x="254.2" y="259"/>
      <point x="254.2" y="297"/>
      <point x="254.2" y="334" type="curve"/>
    </contour>
    <contour>
      <point x="81.2" y="630" type="line"/>
      <point x="125.2" y="662"/>
      <point x="189.2" y="688"/>
      <point x="260.2" y="688" type="curve"/>
      <point x="388.2" y="688"/>
      <point x="492.2" y="638"/>
      <point x="492.2" y="519" type="curve"/>
      <point x="492.2" y="388"/>
      <point x="375.2" y="334"/>
      <point x="229.2" y="334" type="curve"/>
      <point x="229.2" y="326"/>
      <point x="229.2" y="319"/>
      <point x="229.2" y="311" type="curve"/>
      <point x="388.2" y="311"/>
      <point x="515.2" y="375"/>
      <point x="515.2" y="519" type="curve"/>
      <point x="515.2" y="651"/>
      <point x="403.2" y="710"/>
      <point x="262.2" y="710" type="curve"/>
      <point x="185.2" y="710"/>
      <point x="117.2" y="684"/>
      <point x="67.2" y="648" type="curve"/>
    </contour>
    <contour>
      <point x="256.2" y="11"/>
      <point x="228.2" y="11"/>
      <point x="256.2" y="11" type="curve"/>
      <point x="256.2" y="20"/>
      <point x="251.2" y="25"/>
      <point x="242.2" y="25" type="curve"/>
      <point x="233.2" y="25"/>
      <point x="228.2" y="19"/>
      <point x="228.2" y="11" type="curve"/>
      <point x="256.2" y="11"/>
      <point x="228.2" y="11"/>
      <point x="256.2" y="11" type="curve"/>
      <point x="256.2" y="2"/>
      <point x="251.2" y="-2"/>
      <point x="242.2" y="-2" type="curve"/>
      <point x="233.2" y="-2"/>
      <point x="228.2" y="3"/>
      <point x="228.2" y="11" type="curve"/>
    </contour>
  </outline>
</glyph>
<glyph name="at" format="1">
  <advance width="1033.06818182"/>
  <unicode hex="0040"/>
  <outline>
    <contour>
      <point x="750.0" y="-74"/>
      <point x="761.0" y="-94"/>
      <point x="750.0" y="-74" type="curve"/>
      <point x="672.0" y="-107"/>
      <point x="617.0" y="-111"/>
      <point x="533.0" y="-111" type="curve"/>
      <point x="273.0" y="-111"/>
      <point x="86.0" y="-16"/>
      <point x="86.0" y="219" type="curve"/>
      <point x="86.0" y="451"/>
      <point x="275.0" y="545"/>
      <point x="531.0" y="545" type="curve"/>
      <point x="772.0" y="545"/>
      <point x="944.0" y="445"/>
      <point x="944.0" y="224" type="curve"/>
      <point x="944.0" y="136"/>
      <point x="909.0" y="73"/>
      <point x="828.0" y="73" type="curve"/>
      <point x="746.0" y="73"/>
      <point x="707.0" y="136"/>
      <point x="707.0" y="224" type="curve"/>
      <point x="707.0" y="337"/>
      <point x="628.0" y="397"/>
      <point x="511.0" y="397" type="curve"/>
      <point x="386.0" y="397"/>
      <point x="302.0" y="341"/>
      <point x="302.0" y="225" type="curve"/>
      <point x="302.0" y="105"/>
      <point x="383.0" y="41"/>
      <point x="507.0" y="41" type="curve"/>
      <point x="617.0" y="41"/>
      <point x="680.0" y="105"/>
      <point x="702.0" y="214" type="curve"/>
      <point x="687.0" y="219"/>
      <point x="702.0" y="214"/>
      <point x="687.0" y="219" type="curve"/>
      <point x="658.0" y="122"/>
      <point x="608.0" y="63"/>
      <point x="511.0" y="63" type="curve"/>
      <point x="398.0" y="63"/>
      <point x="325.0" y="119"/>
      <point x="325.0" y="226" type="curve"/>
      <point x="325.0" y="328"/>
      <point x="401.0" y="375"/>
      <point x="509.0" y="375" type="curve"/>
      <point x="614.0" y="375"/>
      <point x="685.0" y="324"/>
      <point x="685.0" y="223" type="curve"/>
      <point x="685.0" y="123"/>
      <point x="731.0" y="53"/>
      <point x="826.0" y="53" type="curve"/>
      <point x="922.0" y="53"/>
      <point x="967.0" y="123"/>
      <point x="967.0" y="225" type="curve"/>
      <point x="967.0" y="461"/>
      <point x="787.0" y="568"/>
      <point x="533.0" y="568" type="curve"/>
      <point x="260.0" y="568"/>
      <point x="63.0" y="467"/>
      <point x="63.0" y="218" type="curve"/>
      <point x="63.0" y="-30"/>
      <point x="259.0" y="-133"/>
      <point x="531.0" y="-133" type="curve"/>
      <point x="620.0" y="-133"/>
      <point x="679.0" y="-126"/>
      <point x="761.0" y="-94" type="curve"/>
    </contour>
  </outline>
</glyph>
<glyph name="B" format="1">
  <advance width="827.05"/>
  <unicode hex="0042"/>
  <outline>
    <contour>
      <point x="211.95" y="722"/>
      <point x="211.95" y="700"/>
      <point x="211.95" y="722" type="curve"/>
      <point x="154.95" y="722"/>
      <point x="98.95" y="722"/>
      <point x="41.95" y="722" type="curve"/>
      <point x="41.95" y="700"/>
      <point x="41.95" y="722"/>
      <point x="41.95" y="700" type="curve"/>
      <point x="211.95" y="700"/>
      <point x="41.95" y="700"/>
      <point x="211.95" y="700" type="curve"/>
    </contour>
    <contour>
      <point x="209.95" y="22"/>
      <point x="209.95" y="0"/>
      <point x="209.95" y="22" type="curve"/>
      <point x="40.95" y="22"/>
      <point x="209.95" y="22"/>
      <point x="40.95" y="22" type="curve"/>
      <point x="40.95" y="0"/>
      <point x="40.95" y="22"/>
      <point x="40.95" y="0" type="curve"/>
      <point x="96.95" y="0"/>
      <point x="153.95" y="0"/>
      <point x="209.95" y="0" type="curve"/>
    </contour>
    <contour>
      <point x="196.95" y="700"/>
      <point x="196.95" y="722"/>
      <point x="196.95" y="700" type="curve"/>
      <point x="293.95" y="700"/>
      <point x="390.95" y="700"/>
      <point x="487.95" y="700" type="curve"/>
      <point x="592.95" y="700"/>
      <point x="674.95" y="656"/>
      <point x="674.95" y="555" type="curve"/>
      <point x="674.95" y="447"/>
      <point x="550.95" y="421"/>
      <point x="429.95" y="421" type="curve"/>
      <point x="351.95" y="421"/>
      <point x="273.95" y="421"/>
      <point x="196.95" y="421" type="curve"/>
      <point x="196.95" y="399"/>
      <point x="196.95" y="421"/>
      <point x="196.95" y="399" type="curve"/>
      <point x="269.95" y="399"/>
      <point x="343.95" y="399"/>
      <point x="417.95" y="399" type="curve"/>
      <point x="558.95" y="399"/>
      <point x="698.95" y="430"/>
      <point x="698.95" y="555" type="curve"/>
      <point x="698.95" y="669"/>
      <point x="610.95" y="722"/>
      <point x="487.95" y="722" type="curve"/>
      <point x="390.95" y="722"/>
      <point x="293.95" y="722"/>
      <point x="196.95" y="722" type="curve"/>
    </contour>
    <contour>
      <point x="218.95" y="0"/>
      <point x="193.95" y="0"/>
      <point x="218.95" y="0" type="curve"/>
      <point x="218.95" y="241"/>
      <point x="218.95" y="481"/>
      <point x="218.95" y="722" type="curve"/>
      <point x="193.95" y="722"/>
      <point x="218.95" y="722"/>
      <point x="193.95" y="722" type="curve"/>
      <point x="193.95" y="481"/>
      <point x="193.95" y="241"/>
      <point x="193.95" y="0" type="curve"/>
    </contour>
    <contour>
      <point x="196.95" y="399"/>
      <point x="196.95" y="421"/>
      <point x="196.95" y="399" type="curve"/>
      <point x="273.95" y="399"/>
      <point x="351.95" y="399"/>
      <point x="429.95" y="399" type="curve"/>
      <point x="594.95" y="399"/>
      <point x="737.95" y="355"/>
      <point x="737.95" y="204" type="curve"/>
      <point x="737.95" y="73"/>
      <point x="631.95" y="22"/>
      <point x="485.95" y="22" type="curve"/>
      <point x="388.95" y="22"/>
      <point x="292.95" y="22"/>
      <point x="196.95" y="22" type="curve"/>
      <point x="196.95" y="0"/>
      <point x="196.95" y="22"/>
      <point x="196.95" y="0" type="curve"/>
      <point x="292.95" y="0"/>
      <point x="388.95" y="0"/>
      <point x="485.95" y="0" type="curve"/>
      <point x="646.95" y="0"/>
      <point x="761.95" y="59"/>
      <point x="761.95" y="204" type="curve"/>
      <point x="761.95" y="372"/>
      <point x="602.95" y="421"/>
      <point x="417.95" y="421" type="curve"/>
      <point x="343.95" y="421"/>
      <point x="269.95" y="421"/>
      <point x="196.95" y="421" type="curve"/>
    </contour>
  </outline>
</glyph>
<glyph name="C" format="1">
  <advance width="876.65"/>
  <unicode hex="0043"/>
  <outline>
    <contour>
      <point x="781.35" y="655"/>
      <point x="803.35" y="655"/>
      <point x="781.35" y="655" type="curve"/>
      <point x="781.35" y="535"/>
      <point x="781.35" y="655"/>
      <point x="781.35" y="535" type="curve"/>
      <point x="803.35" y="535"/>
      <point x="781.35" y="535"/>
      <point x="803.35" y="535" type="curve"/>
      <point x="803.35" y="655"/>
      <point x="803.35" y="535"/>
      <point x="803.35" y="655" type="curve"/>
    </contour>
    <contour>
      <point x="803.35" y="655"/>
      <point x="790.35" y="638"/>
      <point x="803.35" y="655" type="curve"/>
      <point x="710.35" y="697"/>
      <point x="611.35" y="727"/>
      <point x="501.35" y="727" type="curve"/>
      <point x="243.35" y="727"/>
      <point x="70.35" y="594"/>
      <point x="70.35" y="344" type="curve"/>
      <point x="70.35" y="113"/>
      <point x="232.35" y="-5"/>
      <point x="473.35" y="-5" type="curve"/>
      <point x="615.35" y="-5"/>
      <point x="709.35" y="25"/>
      <point x="828.35" y="96" type="curve"/>
      <point x="813.35" y="113"/>
      <point x="828.35" y="96"/>
      <point x="813.35" y="113" type="curve"/>
      <point x="702.35" y="43"/>
      <point x="608.35" y="19"/>
      <point x="474.35" y="19" type="curve"/>
      <point x="248.35" y="19"/>
      <point x="94.35" y="130"/>
      <point x="94.35" y="345" type="curve"/>
      <point x="94.35" y="578"/>
      <point x="258.35" y="704"/>
      <point x="500.35" y="704" type="curve"/>
      <point x="605.35" y="704"/>
      <point x="702.35" y="680"/>
      <point x="790.35" y="638" type="curve"/>
    </contour>
    <contour>
      <point x="495.35" y="825" type="move" name="top"/>
    </contour>
    <contour>
      <point x="466.35" y="10" type="move" name="bottom"/>
    </contour>
  </outline>
</glyph>
<glyph name="F" format="1">
  <advance width="803.55"/>
  <unicode hex="0046"/>
  <outline>
    <contour>
      <point x="211.0" y="0"/>
      <point x="211.0" y="22"/>
      <point x="211.0" y="0" type="curve"/>
      <point x="267.0" y="0"/>
      <point x="211.0" y="0"/>
      <point x="380.0" y="0" type="curve"/>
      <point x="380.0" y="22"/>
      <point x="380.0" y="0"/>
      <point x="380.0" y="22" type="curve"/>
      <point x="211.0" y="22"/>
      <point x="380.0" y="22"/>
      <point x="211.0" y="22" type="curve"/>
    </contour>
    <contour>
      <point x="211.0" y="722"/>
      <point x="211.0" y="700"/>
      <point x="211.0" y="722" type="curve"/>
      <point x="155.0" y="722"/>
      <point x="98.0" y="722"/>
      <point x="42.0" y="722" type="curve"/>
      <point x="42.0" y="700"/>
      <point x="42.0" y="722"/>
      <point x="42.0" y="700" type="curve"/>
      <point x="211.0" y="700"/>
      <point x="42.0" y="700"/>
      <point x="211.0" y="700" type="curve"/>
    </contour>
    <contour>
      <point x="211.0" y="22"/>
      <point x="211.0" y="0"/>
      <point x="211.0" y="22" type="curve"/>
      <point x="42.0" y="22"/>
      <point x="211.0" y="22"/>
      <point x="42.0" y="22" type="curve"/>
      <point x="42.0" y="0"/>
      <point x="42.0" y="22"/>
      <point x="42.0" y="0" type="curve"/>
      <point x="98.0" y="0"/>
      <point x="155.0" y="0"/>
      <point x="211.0" y="0" type="curve"/>
    </contour>
    <contour>
      <point x="728.0" y="711"/>
      <point x="750.0" y="711"/>
      <point x="728.0" y="711" type="curve"/>
      <point x="728.0" y="591"/>
      <point x="728.0" y="711"/>
      <point x="728.0" y="591" type="curve"/>
      <point x="750.0" y="591"/>
      <point x="728.0" y="591"/>
      <point x="750.0" y="591" type="curve"/>
      <point x="750.0" y="711"/>
      <point x="750.0" y="591"/>
      <point x="750.0" y="711" type="curve"/>
    </contour>
    <contour>
      <point x="216.0" y="363"/>
      <point x="216.0" y="385"/>
      <point x="216.0" y="363" type="curve"/>
      <point x="361.0" y="363"/>
      <point x="506.0" y="363"/>
      <point x="651.0" y="363" type="curve"/>
      <point x="651.0" y="385"/>
      <point x="651.0" y="363"/>
      <point x="651.0" y="385" type="curve"/>
      <point x="506.0" y="385"/>
      <point x="361.0" y="385"/>
      <point x="216.0" y="385" type="curve"/>
    </contour>
    <contour>
      <point x="223.0" y="0"/>
      <point x="199.0" y="0"/>
      <point x="223.0" y="0" type="curve"/>
      <point x="223.0" y="0"/>
      <point x="223.0" y="722"/>
      <point x="223.0" y="722" type="curve"/>
      <point x="199.0" y="722"/>
      <point x="223.0" y="722"/>
      <point x="199.0" y="722" type="curve"/>
      <point x="199.0" y="481"/>
      <point x="199.0" y="241"/>
      <point x="199.0" y="0" type="curve"/>
    </contour>
    <contour>
      <point x="196.0" y="700"/>
      <point x="196.0" y="722"/>
      <point x="196.0" y="700" type="curve"/>
      <point x="380.0" y="700"/>
      <point x="565.0" y="700"/>
      <point x="750.0" y="700" type="curve"/>
      <point x="750.0" y="722"/>
      <point x="750.0" y="700"/>
      <point x="750.0" y="722" type="curve"/>
      <point x="565.0" y="722"/>
      <point x="380.0" y="722"/>
      <point x="196.0" y="722" type="curve"/>
    </contour>
  </outline>
</glyph>
<glyph name="H" format="1">
  <advance width="1103.95"/>
  <unicode hex="0048"/>
  <outline>
    <contour>
      <point x="894.0" y="700"/>
      <point x="894.0" y="722"/>
      <point x="894.0" y="700" type="curve"/>
      <point x="1063.0" y="700"/>
      <point x="894.0" y="700"/>
      <point x="1063.0" y="700" type="curve"/>
      <point x="1063.0" y="722"/>
      <point x="1063.0" y="700"/>
      <point x="1063.0" y="722" type="curve"/>
      <point x="1007.0" y="722"/>
      <point x="950.0" y="722"/>
      <point x="894.0" y="722" type="curve"/>
    </contour>
    <contour>
      <point x="894.0" y="0"/>
      <point x="894.0" y="22"/>
      <point x="894.0" y="0" type="curve"/>
      <point x="950.0" y="0"/>
      <point x="1007.0" y="0"/>
      <point x="1063.0" y="0" type="curve"/>
      <point x="1063.0" y="22"/>
      <point x="1063.0" y="0"/>
      <point x="1063.0" y="22" type="curve"/>
      <point x="894.0" y="22"/>
      <point x="1063.0" y="22"/>
      <point x="894.0" y="22" type="curve"/>
    </contour>
    <contour>
      <point x="894.0" y="22"/>
      <point x="894.0" y="0"/>
      <point x="894.0" y="22" type="curve"/>
      <point x="725.0" y="22"/>
      <point x="894.0" y="22"/>
      <point x="725.0" y="22" type="curve"/>
      <point x="725.0" y="0"/>
      <point x="725.0" y="22"/>
      <point x="725.0" y="0" type="curve"/>
      <point x="781.0" y="0"/>
      <point x="838.0" y="0"/>
      <point x="894.0" y="0" type="curve"/>
    </contour>
    <contour>
      <point x="894.0" y="722"/>
      <point x="894.0" y="700"/>
      <point x="894.0" y="722" type="curve"/>
      <point x="838.0" y="722"/>
      <point x="781.0" y="722"/>
      <point x="725.0" y="722" type="curve"/>
      <point x="725.0" y="700"/>
      <point x="725.0" y="722"/>
      <point x="725.0" y="700" type="curve"/>
      <point x="894.0" y="700"/>
      <point x="725.0" y="700"/>
      <point x="894.0" y="700" type="curve"/>
    </contour>
    <contour>
      <point x="211.0" y="700"/>
      <point x="211.0" y="722"/>
      <point x="211.0" y="700" type="curve"/>
      <point x="380.0" y="700"/>
      <point x="211.0" y="700"/>
      <point x="380.0" y="700" type="curve"/>
      <point x="380.0" y="722"/>
      <point x="380.0" y="700"/>
      <point x="380.0" y="722" type="curve"/>
      <point x="324.0" y="722"/>
      <point x="267.0" y="722"/>
      <point x="211.0" y="722" type="curve"/>
    </contour>
    <contour>
      <point x="211.0" y="722"/>
      <point x="211.0" y="700"/>
      <point x="211.0" y="722" type="curve"/>
      <point x="155.0" y="722"/>
      <point x="98.0" y="722"/>
      <point x="42.0" y="722" type="curve"/>
      <point x="42.0" y="700"/>
      <point x="42.0" y="722"/>
      <point x="42.0" y="700" type="curve"/>
      <point x="211.0" y="700"/>
      <point x="42.0" y="700"/>
      <point x="211.0" y="700" type="curve"/>
    </contour>
    <contour>
      <point x="211.0" y="0"/>
      <point x="211.0" y="22"/>
      <point x="211.0" y="0" type="curve"/>
      <point x="267.0" y="0"/>
      <point x="211.0" y="0"/>
      <point x="380.0" y="0" type="curve"/>
      <point x="380.0" y="22"/>
      <point x="380.0" y="0"/>
      <point x="380.0" y="22" type="curve"/>
      <point x="211.0" y="22"/>
      <point x="380.0" y="22"/>
      <point x="211.0" y="22" type="curve"/>
    </contour>
    <contour>
      <point x="211.0" y="22"/>
      <point x="211.0" y="0"/>
      <point x="211.0" y="22" type="curve"/>
      <point x="42.0" y="22"/>
      <point x="211.0" y="22"/>
      <point x="42.0" y="22" type="curve"/>
      <point x="42.0" y="0"/>
      <point x="42.0" y="22"/>
      <point x="42.0" y="0" type="curve"/>
      <point x="98.0" y="0"/>
      <point x="155.0" y="0"/>
      <point x="211.0" y="0" type="curve"/>
    </contour>
    <contour>
      <point x="223.0" y="0"/>
      <point x="199.0" y="0"/>
      <point x="223.0" y="0" type="curve"/>
      <point x="223.0" y="0"/>
      <point x="223.0" y="722"/>
      <point x="223.0" y="722" type="curve"/>
      <point x="199.0" y="722"/>
      <point x="223.0" y="722"/>
      <point x="199.0" y="722" type="curve"/>
      <point x="199.0" y="481"/>
      <point x="199.0" y="241"/>
      <point x="199.0" y="0" type="curve"/>
    </contour>
    <contour>
      <point x="890.0" y="374"/>
      <point x="890.0" y="352"/>
      <point x="890.0" y="374" type="curve"/>
      <point x="664.0" y="374"/>
      <point x="437.0" y="374"/>
      <point x="211.0" y="374" type="curve"/>
      <point x="211.0" y="352"/>
      <point x="211.0" y="374"/>
      <point x="211.0" y="352" type="curve"/>
      <point x="437.0" y="352"/>
      <point x="664.0" y="352"/>
      <point x="890.0" y="352" type="curve"/>
    </contour>
    <contour>
      <point x="905.0" y="1"/>
      <point x="881.0" y="1"/>
      <point x="905.0" y="1" type="curve"/>
      <point x="905.0" y="241"/>
      <point x="905.0" y="481"/>
      <point x="905.0" y="721" type="curve"/>
      <point x="881.0" y="721"/>
      <point x="905.0" y="721"/>
      <point x="881.0" y="721" type="curve"/>
      <point x="881.0" y="721"/>
      <point x="881.0" y="1"/>
      <point x="881.0" y="1" type="curve"/>
    </contour>
  </outline>
</glyph>
<glyph name="I" format="1">
  <advance width="420.95"/>
  <unicode hex="0049"/>
  <outline>
    <contour>
      <point x="211.0" y="722"/>
      <point x="211.0" y="700"/>
      <point x="211.0" y="722" type="curve"/>
      <point x="154.0" y="722"/>
      <point x="98.0" y="722"/>
      <point x="42.0" y="722" type="curve"/>
      <point x="42.0" y="700"/>
      <point x="42.0" y="722"/>
      <point x="42.0" y="700" type="curve"/>
      <point x="211.0" y="700"/>
      <point x="42.0" y="700"/>
      <point x="211.0" y="700" type="curve"/>
    </contour>
    <contour>
      <point x="211.0" y="700"/>
      <point x="211.0" y="722"/>
      <point x="211.0" y="700" type="curve"/>
      <point x="380.0" y="700"/>
      <point x="211.0" y="700"/>
      <point x="380.0" y="700" type="curve"/>
      <point x="380.0" y="722"/>
      <point x="380.0" y="700"/>
      <point x="380.0" y="722" type="curve"/>
      <point x="323.0" y="722"/>
      <point x="267.0" y="722"/>
      <point x="211.0" y="722" type="curve"/>
    </contour>
    <contour>
      <point x="211.0" y="0"/>
      <point x="211.0" y="22"/>
      <point x="211.0" y="0" type="curve"/>
      <point x="267.0" y="0"/>
      <point x="323.0" y="0"/>
      <point x="380.0" y="0" type="curve"/>
      <point x="380.0" y="22"/>
      <point x="380.0" y="0"/>
      <point x="380.0" y="22" type="curve"/>
      <point x="211.0" y="22"/>
      <point x="380.0" y="22"/>
      <point x="211.0" y="22" type="curve"/>
    </contour>
    <contour>
      <point x="211.0" y="22"/>
      <point x="211.0" y="0"/>
      <point x="211.0" y="22" type="curve"/>
      <point x="42.0" y="22"/>
      <point x="211.0" y="22"/>
      <point x="42.0" y="22" type="curve"/>
      <point x="42.0" y="0"/>
      <point x="42.0" y="22"/>
      <point x="42.0" y="0" type="curve"/>
      <point x="98.0" y="0"/>
      <point x="154.0" y="0"/>
      <point x="211.0" y="0" type="curve"/>
    </contour>
    <contour>
      <point x="221.0" y="0"/>
      <point x="197.0" y="0"/>
      <point x="221.0" y="0" type="curve"/>
      <point x="221.0" y="241"/>
      <point x="221.0" y="481"/>
      <point x="221.0" y="722" type="curve"/>
      <point x="197.0" y="722"/>
      <point x="221.0" y="722"/>
      <point x="197.0" y="722" type="curve"/>
      <point x="197.0" y="481"/>
      <point x="197.0" y="241"/>
      <point x="197.0" y="0" type="curve"/>
    </contour>
    <contour>
      <point x="210.0" y="825" type="move" name="top"/>
    </contour>
    <contour>
      <point x="221.0" y="0" type="move" name="bottom"/>
    </contour>
  </outline>
</glyph>
<glyph name="J" format="1">
  <advance width="601.8"/>
  <unicode hex="004A"/>
  <outline>
    <contour>
      <point x="424.55" y="722"/>
      <point x="424.55" y="700"/>
      <point x="424.55" y="722" type="curve"/>
      <point x="371.55" y="722"/>
      <point x="318.55" y="722"/>
      <point x="265.55" y="722" type="curve"/>
      <point x="265.55" y="700"/>
      <point x="265.55" y="722"/>
      <point x="265.55" y="700" type="curve"/>
      <point x="424.55" y="700"/>
      <point x="265.55" y="700"/>
      <point x="424.55" y="700" type="curve"/>
    </contour>
    <contour>
      <point x="424.55" y="700"/>
      <point x="424.55" y="722"/>
      <point x="424.55" y="700" type="curve"/>
      <point x="575.55" y="700"/>
      <point x="424.55" y="700"/>
      <point x="575.55" y="700" type="curve"/>
      <point x="575.55" y="722"/>
      <point x="575.55" y="700"/>
      <point x="575.55" y="722" type="curve"/>
      <point x="525.55" y="722"/>
      <point x="474.55" y="722"/>
      <point x="424.55" y="722" type="curve"/>
    </contour>
    <contour>
      <point x="32.55" y="43"/>
      <point x="43.55" y="60"/>
      <point x="32.55" y="43" type="curve"/>
      <point x="70.55" y="23"/>
      <point x="124.55" y="0"/>
      <point x="189.55" y="0" type="curve"/>
      <point x="339.55" y="0"/>
      <point x="435.55" y="75"/>
      <point x="435.55" y="219" type="curve"/>
      <point x="435.55" y="386"/>
      <point x="435.55" y="554"/>
      <point x="435.55" y="722" type="curve"/>
      <point x="410.55" y="722"/>
      <point x="435.55" y="722"/>
      <point x="410.55" y="722" type="curve"/>
      <point x="410.55" y="554"/>
      <point x="410.55" y="386"/>
      <point x="410.55" y="219" type="curve"/>
      <point x="410.55" y="90"/>
      <point x="323.55" y="22"/>
      <point x="189.55" y="22" type="curve"/>
      <point x="131.55" y="22"/>
      <point x="92.55" y="39"/>
      <point x="43.55" y="60" type="curve"/>
    </contour>
  </outline>
</glyph>
<glyph name="K" format="1">
  <advance width="919.5"/>
  <unicode hex="004B"/>
  <outline>
    <contour>
      <point x="714.0" y="722"/>
      <point x="714.0" y="700"/>
      <point x="714.0" y="722" type="curve"/>
      <point x="657.0" y="722"/>
      <point x="601.0" y="722"/>
      <point x="545.0" y="722" type="curve"/>
      <point x="545.0" y="700"/>
      <point x="545.0" y="722"/>
      <point x="545.0" y="700" type="curve"/>
      <point x="714.0" y="700"/>
      <point x="545.0" y="700"/>
      <point x="714.0" y="700" type="curve"/>
    </contour>
    <contour>
      <point x="750.0" y="0"/>
      <point x="750.0" y="22"/>
      <point x="750.0" y="0" type="curve"/>
      <point x="803.0" y="0"/>
      <point x="855.0" y="0"/>
      <point x="909.0" y="0" type="curve"/>
      <point x="909.0" y="22"/>
      <point x="909.0" y="0"/>
      <point x="909.0" y="22" type="curve"/>
      <point x="750.0" y="22"/>
      <point x="909.0" y="22"/>
      <point x="750.0" y="22" type="curve"/>
    </contour>
    <contour>
      <point x="714.0" y="700"/>
      <point x="714.0" y="722"/>
      <point x="714.0" y="700" type="curve"/>
      <point x="873.0" y="700"/>
      <point x="714.0" y="700"/>
      <point x="873.0" y="700" type="curve"/>
      <point x="873.0" y="722"/>
      <point x="873.0" y="700"/>
      <point x="873.0" y="722" type="curve"/>
      <point x="819.0" y="722"/>
      <point x="767.0" y="722"/>
      <point x="714.0" y="722" type="curve"/>
    </contour>
    <contour>
      <point x="211.0" y="722"/>
      <point x="211.0" y="700"/>
      <point x="211.0" y="722" type="curve"/>
      <point x="155.0" y="722"/>
      <point x="99.0" y="722"/>
      <point x="42.0" y="722" type="curve"/>
      <point x="42.0" y="700"/>
      <point x="42.0" y="722"/>
      <point x="42.0" y="700" type="curve"/>
      <point x="211.0" y="700"/>
      <point x="42.0" y="700"/>
      <point x="211.0" y="700" type="curve"/>
    </contour>
    <contour>
      <point x="211.0" y="700"/>
      <point x="211.0" y="722"/>
      <point x="211.0" y="700" type="curve"/>
      <point x="381.0" y="700"/>
      <point x="211.0" y="700"/>
      <point x="381.0" y="700" type="curve"/>
      <point x="381.0" y="722"/>
      <point x="381.0" y="700"/>
      <point x="381.0" y="722" type="curve"/>
      <point x="324.0" y="722"/>
      <point x="268.0" y="722"/>
      <point x="211.0" y="722" type="curve"/>
    </contour>
    <contour>
      <point x="211.0" y="0"/>
      <point x="211.0" y="22"/>
      <point x="211.0" y="0" type="curve"/>
      <point x="268.0" y="0"/>
      <point x="211.0" y="0"/>
      <point x="381.0" y="0" type="curve"/>
      <point x="381.0" y="22"/>
      <point x="381.0" y="0"/>
      <point x="381.0" y="22" type="curve"/>
      <point x="211.0" y="22"/>
      <point x="381.0" y="22"/>
      <point x="211.0" y="22" type="curve"/>
    </contour>
    <contour>
      <point x="211.0" y="22"/>
      <point x="211.0" y="0"/>
      <point x="211.0" y="22" type="curve"/>
      <point x="42.0" y="22"/>
      <point x="211.0" y="22"/>
      <point x="42.0" y="22" type="curve"/>
      <point x="42.0" y="0"/>
      <point x="42.0" y="22"/>
      <point x="42.0" y="0" type="curve"/>
      <point x="99.0" y="0"/>
      <point x="155.0" y="0"/>
      <point x="211.0" y="0" type="curve"/>
    </contour>
    <contour>
      <point x="722.0" y="722"/>
      <point x="755.0" y="722"/>
      <point x="718.0" y="722" type="curve"/>
      <point x="211.0" y="380" type="line"/>
      <point x="249.0" y="380"/>
      <point x="215.0" y="380"/>
      <point x="253.0" y="380" type="curve"/>
      <point x="759.0" y="722" type="line"/>
    </contour>
    <contour>
      <point x="224.0" y="0"/>
      <point x="199.0" y="0"/>
      <point x="224.0" y="0" type="curve"/>
      <point x="224.0" y="0"/>
      <point x="224.0" y="722"/>
      <point x="224.0" y="722" type="curve"/>
      <point x="199.0" y="722"/>
      <point x="224.0" y="722"/>
      <point x="199.0" y="722" type="curve"/>
      <point x="199.0" y="481"/>
      <point x="199.0" y="241"/>
      <point x="199.0" y="0" type="curve"/>
    </contour>
    <contour>
      <point x="790.0" y="0"/>
      <point x="753.0" y="0"/>
      <point x="794.0" y="0" type="curve"/>
      <point x="253.0" y="380" type="line"/>
      <point x="215.0" y="380"/>
      <point x="249.0" y="380"/>
      <point x="211.0" y="380" type="curve"/>
      <point x="749.0" y="0" type="line"/>
    </contour>
    <contour>
      <point x="521.0" y="2" type="move" name="bottom"/>
    </contour>
  </outline>
</glyph>
<glyph name="L" format="1">
  <advance width="821.95"/>
  <unicode hex="004C"/>
  <outline>
    <contour>
      <point x="779.95" y="11"/>
      <point x="757.95" y="11"/>
      <point x="779.95" y="11" type="curve"/>
      <point x="779.95" y="131"/>
      <point x="779.95" y="11"/>
      <point x="779.95" y="131" type="curve"/>
      <point x="757.95" y="131"/>
      <point x="779.95" y="131"/>
      <point x="757.95" y="131" type="curve"/>
      <point x="757.95" y="11"/>
      <point x="757.95" y="131"/>
      <point x="757.95" y="11" type="curve"/>
    </contour>
    <contour>
      <point x="209.95" y="22"/>
      <point x="209.95" y="0"/>
      <point x="209.95" y="22" type="curve"/>
      <point x="40.95" y="22"/>
      <point x="209.95" y="22"/>
      <point x="40.95" y="22" type="curve"/>
      <point x="40.95" y="0"/>
      <point x="40.95" y="22"/>
      <point x="40.95" y="0" type="curve"/>
      <point x="96.95" y="0"/>
      <point x="153.95" y="0"/>
      <point x="209.95" y="0" type="curve"/>
    </contour>
    <contour>
      <point x="209.95" y="722"/>
      <point x="209.95" y="700"/>
      <point x="209.95" y="722" type="curve"/>
      <point x="153.95" y="722"/>
      <point x="96.95" y="722"/>
      <point x="40.95" y="722" type="curve"/>
      <point x="40.95" y="700"/>
      <point x="40.95" y="722"/>
      <point x="40.95" y="700" type="curve"/>
      <point x="209.95" y="700"/>
      <point x="40.95" y="700"/>
      <point x="209.95" y="700" type="curve"/>
    </contour>
    <contour>
      <point x="209.95" y="700"/>
      <point x="209.95" y="722"/>
      <point x="209.95" y="700" type="curve"/>
      <point x="378.95" y="700"/>
      <point x="209.95" y="700"/>
      <point x="378.95" y="700" type="curve"/>
      <point x="378.95" y="722"/>
      <point x="378.95" y="700"/>
      <point x="378.95" y="722" type="curve"/>
      <point x="322.95" y="722"/>
      <point x="265.95" y="722"/>
      <point x="209.95" y="722" type="curve"/>
    </contour>
    <contour>
      <point x="223.95" y="0"/>
      <point x="198.95" y="0"/>
      <point x="223.95" y="0" type="curve"/>
      <point x="223.95" y="241"/>
      <point x="223.95" y="481"/>
      <point x="223.95" y="722" type="curve"/>
      <point x="198.95" y="722"/>
      <point x="223.95" y="722"/>
      <point x="198.95" y="722" type="curve"/>
      <point x="198.95" y="481"/>
      <point x="198.95" y="241"/>
      <point x="198.95" y="0" type="curve"/>
    </contour>
    <contour>
      <point x="209.95" y="0"/>
      <point x="209.95" y="22"/>
      <point x="209.95" y="0" type="curve"/>
      <point x="399.95" y="0"/>
      <point x="589.95" y="0"/>
      <point x="779.95" y="0" type="curve"/>
      <point x="779.95" y="22"/>
      <point x="779.95" y="0"/>
      <point x="779.95" y="22" type="curve"/>
      <point x="589.95" y="22"/>
      <point x="399.95" y="22"/>
      <point x="209.95" y="22" type="curve"/>
    </contour>
    <contour>
      <point x="212.95" y="825" type="move" name="top"/>
    </contour>
    <contour>
      <point x="454.95" y="6" type="move" name="bottom"/>
    </contour>
  </outline>
</glyph>
<glyph name="M" format="1">
  <advance width="1321.55"/>
  <unicode hex="004D"/>
  <outline>
    <contour>
      <point x="1126.3" y="0"/>
      <point x="1126.3" y="22"/>
      <point x="1126.3" y="0" type="curve"/>
      <point x="1183.3" y="0"/>
      <point x="1239.3" y="0"/>
      <point x="1295.3" y="0" type="curve"/>
      <point x="1295.3" y="22"/>
      <point x="1295.3" y="0"/>
      <point x="1295.3" y="22" type="curve"/>
      <point x="1126.3" y="22"/>
      <point x="1295.3" y="22"/>
      <point x="1126.3" y="22" type="curve"/>
    </contour>
    <contour>
      <point x="1126.3" y="22"/>
      <point x="1126.3" y="0"/>
      <point x="1126.3" y="22" type="curve"/>
      <point x="957.3" y="22"/>
      <point x="1126.3" y="22"/>
      <point x="957.3" y="22" type="curve"/>
      <point x="957.3" y="0"/>
      <point x="957.3" y="22"/>
      <point x="957.3" y="0" type="curve"/>
      <point x="1014.3" y="0"/>
      <point x="1070.3" y="0"/>
      <point x="1126.3" y="0" type="curve"/>
    </contour>
    <contour>
      <point x="196.3" y="22"/>
      <point x="196.3" y="0"/>
      <point x="196.3" y="22" type="curve"/>
      <point x="27.3" y="22"/>
      <point x="196.3" y="22"/>
      <point x="27.3" y="22" type="curve"/>
      <point x="27.3" y="0"/>
      <point x="27.3" y="22"/>
      <point x="27.3" y="0" type="curve"/>
      <point x="83.3" y="0"/>
      <point x="140.3" y="0"/>
      <point x="196.3" y="0" type="curve"/>
    </contour>
    <contour>
      <point x="276.3" y="722"/>
      <point x="276.3" y="700"/>
      <point x="276.3" y="722" type="curve"/>
      <point x="219.3" y="722"/>
      <point x="163.3" y="722"/>
      <point x="107.3" y="722" type="curve"/>
      <point x="107.3" y="700"/>
      <point x="107.3" y="722"/>
      <point x="107.3" y="700" type="curve"/>
      <point x="276.3" y="700"/>
      <point x="107.3" y="700"/>
      <point x="276.3" y="700" type="curve"/>
    </contour>
    <contour>
      <point x="1044.3" y="700"/>
      <point x="1044.3" y="722"/>
      <point x="1044.3" y="700" type="curve"/>
      <point x="1213.3" y="700"/>
      <point x="1044.3" y="700"/>
      <point x="1213.3" y="700" type="curve"/>
      <point x="1213.3" y="722"/>
      <point x="1213.3" y="700"/>
      <point x="1213.3" y="722" type="curve"/>
      <point x="1157.3" y="722"/>
      <point x="1100.3" y="722"/>
      <point x="1044.3" y="722" type="curve"/>
    </contour>
    <contour>
      <point x="196.3" y="0"/>
      <point x="196.3" y="22"/>
      <point x="196.3" y="0" type="curve"/>
      <point x="252.3" y="0"/>
      <point x="196.3" y="0"/>
      <point x="365.3" y="0" type="curve"/>
      <point x="365.3" y="22"/>
      <point x="365.3" y="0"/>
      <point x="365.3" y="22" type="curve"/>
      <point x="196.3" y="22"/>
      <point x="365.3" y="22"/>
      <point x="196.3" y="22" type="curve"/>
    </contour>
    <contour>
      <point x="1137.3" y="0"/>
      <point x="1113.3" y="0"/>
      <point x="1137.3" y="0" type="curve"/>
      <point x="1109.3" y="241"/>
      <point x="1081.3" y="481"/>
      <point x="1054.3" y="722" type="curve"/>
      <point x="1032.3" y="722"/>
      <point x="1054.3" y="722"/>
      <point x="1032.3" y="722" type="curve"/>
      <point x="1059.3" y="481"/>
      <point x="1086.3" y="241"/>
      <point x="1113.3" y="0" type="curve"/>
    </contour>
    <contour>
      <point x="207.3" y="0"/>
      <point x="183.3" y="0"/>
      <point x="207.3" y="0" type="curve"/>
      <point x="233.3" y="241"/>
      <point x="258.3" y="481"/>
      <point x="284.3" y="722" type="curve"/>
      <point x="262.3" y="722"/>
      <point x="284.3" y="722"/>
      <point x="262.3" y="722" type="curve"/>
      <point x="236.3" y="481"/>
      <point x="209.3" y="241"/>
      <point x="183.3" y="0" type="curve"/>
    </contour>
    <contour>
      <point x="667.3" y="0"/>
      <point x="645.3" y="0"/>
      <point x="669.3" y="0" type="curve"/>
      <point x="544.3" y="241"/>
      <point x="418.3" y="481"/>
      <point x="289.3" y="722" type="curve"/>
      <point x="267.3" y="722"/>
      <point x="287.3" y="722"/>
      <point x="265.3" y="722" type="curve"/>
      <point x="391.3" y="481"/>
      <point x="517.3" y="241"/>
      <point x="643.3" y="0" type="curve"/>
    </contour>
    <contour>
      <point x="677.3" y="0"/>
      <point x="654.3" y="0"/>
      <point x="679.3" y="0" type="curve"/>
      <point x="803.3" y="241"/>
      <point x="927.3" y="481"/>
      <point x="1051.3" y="722" type="curve"/>
      <point x="1029.3" y="722"/>
      <point x="1049.3" y="722"/>
      <point x="1027.3" y="722" type="curve"/>
      <point x="900.3" y="481"/>
      <point x="777.3" y="241"/>
      <point x="652.3" y="0" type="curve"/>
    </contour>
  </outline>
</glyph>
<glyph name="N" format="1">
  <advance width="1135.15"/>
  <unicode hex="004E"/>
  <outline>
    <contour>
      <point x="213.0" y="722"/>
      <point x="213.0" y="700"/>
      <point x="213.0" y="722" type="curve"/>
      <point x="157.0" y="722"/>
      <point x="100.0" y="722"/>
      <point x="44.0" y="722" type="curve"/>
      <point x="44.0" y="700"/>
      <point x="44.0" y="722"/>
      <point x="44.0" y="700" type="curve"/>
      <point x="213.0" y="700"/>
      <point x="44.0" y="700"/>
      <point x="213.0" y="700" type="curve"/>
    </contour>
    <contour>
      <point x="942.0" y="700"/>
      <point x="942.0" y="722"/>
      <point x="942.0" y="700" type="curve"/>
      <point x="1111.0" y="700"/>
      <point x="942.0" y="700"/>
      <point x="1111.0" y="700" type="curve"/>
      <point x="1111.0" y="722"/>
      <point x="1111.0" y="700"/>
      <point x="1111.0" y="722" type="curve"/>
      <point x="1055.0" y="722"/>
      <point x="998.0" y="722"/>
      <point x="942.0" y="722" type="curve"/>
    </contour>
    <contour>
      <point x="942.0" y="722"/>
      <point x="942.0" y="700"/>
      <point x="942.0" y="722" type="curve"/>
      <point x="886.0" y="722"/>
      <point x="829.0" y="722"/>
      <point x="773.0" y="722" type="curve"/>
      <point x="773.0" y="700"/>
      <point x="773.0" y="722"/>
      <point x="773.0" y="700" type="curve"/>
      <point x="942.0" y="700"/>
      <point x="773.0" y="700"/>
      <point x="942.0" y="700" type="curve"/>
    </contour>
    <contour>
      <point x="212.0" y="22"/>
      <point x="212.0" y="0"/>
      <point x="212.0" y="22" type="curve"/>
      <point x="43.0" y="22"/>
      <point x="212.0" y="22"/>
      <point x="43.0" y="22" type="curve"/>
      <point x="42.0" y="0"/>
      <point x="43.0" y="22"/>
      <point x="42.0" y="0" type="curve"/>
      <point x="99.0" y="0"/>
      <point x="155.0" y="0"/>
      <point x="212.0" y="0" type="curve"/>
    </contour>
    <contour>
      <point x="212.0" y="0"/>
      <point x="212.0" y="22"/>
      <point x="212.0" y="0" type="curve"/>
      <point x="268.0" y="0"/>
      <point x="212.0" y="0"/>
      <point x="381.0" y="0" type="curve"/>
      <point x="381.0" y="22"/>
      <point x="381.0" y="0"/>
      <point x="381.0" y="22" type="curve"/>
      <point x="212.0" y="22"/>
      <point x="381.0" y="22"/>
      <point x="212.0" y="22" type="curve"/>
    </contour>
    <contour>
      <point x="948.0" y="0"/>
      <point x="923.0" y="0"/>
      <point x="952.0" y="0" type="curve"/>
      <point x="711.0" y="241"/>
      <point x="470.0" y="481"/>
      <point x="230.0" y="722" type="curve"/>
      <point x="200.0" y="722"/>
      <point x="226.0" y="722"/>
      <point x="196.0" y="722" type="curve"/>
      <point x="437.0" y="481"/>
      <point x="678.0" y="241"/>
      <point x="919.0" y="0" type="curve"/>
    </contour>
    <contour>
      <point x="928.0" y="722"/>
      <point x="953.0" y="722"/>
      <point x="928.0" y="722" type="curve"/>
      <point x="928.0" y="481"/>
      <point x="928.0" y="241"/>
      <point x="928.0" y="0" type="curve"/>
      <point x="953.0" y="0"/>
      <point x="928.0" y="0"/>
      <point x="953.0" y="0" type="curve"/>
      <point x="953.0" y="241"/>
      <point x="953.0" y="481"/>
      <point x="953.0" y="722" type="curve"/>
    </contour>
    <contour>
      <point x="224.0" y="0"/>
      <point x="199.0" y="0"/>
      <point x="224.0" y="0" type="curve"/>
      <point x="224.0" y="241"/>
      <point x="224.0" y="481"/>
      <point x="224.0" y="722" type="curve"/>
      <point x="199.0" y="722"/>
      <point x="224.0" y="722"/>
      <point x="199.0" y="722" type="curve"/>
      <point x="199.0" y="481"/>
      <point x="199.0" y="241"/>
      <point x="199.0" y="0" type="curve"/>
    </contour>
    <contour>
      <point x="571.0" y="825" type="move" name="top"/>
    </contour>
    <contour>
      <point x="603.0" y="6" type="move" name="bottom"/>
    </contour>
  </outline>
</glyph>
<glyph name="P" format="1">
  <advance width="772.9"/>
  <unicode hex="0050"/>
  <outline>
    <contour>
      <point x="212.05" y="722"/>
      <point x="212.05" y="700"/>
      <point x="212.05" y="722" type="curve"/>
      <point x="156.05" y="722"/>
      <point x="99.05" y="722"/>
      <point x="43.05" y="722" type="curve"/>
      <point x="43.05" y="700"/>
      <point x="43.05" y="722"/>
      <point x="43.05" y="700" type="curve"/>
      <point x="212.05" y="700"/>
      <point x="43.05" y="700"/>
      <point x="212.05" y="700" type="curve"/>
    </contour>
    <contour>
      <point x="212.05" y="22"/>
      <point x="212.05" y="0"/>
      <point x="212.05" y="22" type="curve"/>
      <point x="43.05" y="22"/>
      <point x="212.05" y="22"/>
      <point x="43.05" y="22" type="curve"/>
      <point x="43.05" y="0"/>
      <point x="43.05" y="22"/>
      <point x="43.05" y="0" type="curve"/>
      <point x="99.05" y="0"/>
      <point x="156.05" y="0"/>
      <point x="212.05" y="0" type="curve"/>
    </contour>
    <contour>
      <point x="212.05" y="0"/>
      <point x="212.05" y="22"/>
      <point x="212.05" y="0" type="curve"/>
      <point x="267.05" y="0"/>
      <point x="212.05" y="0"/>
      <point x="379.05" y="0" type="curve"/>
      <point x="379.05" y="22"/>
      <point x="379.05" y="0"/>
      <point x="379.05" y="22" type="curve"/>
      <point x="212.05" y="22"/>
      <point x="379.05" y="22"/>
      <point x="212.05" y="22" type="curve"/>
    </contour>
    <contour>
      <point x="210.05" y="326"/>
      <point x="218.05" y="346"/>
      <point x="210.05" y="326" type="curve"/>
      <point x="281.05" y="299"/>
      <point x="345.05" y="280"/>
      <point x="421.05" y="280" type="curve"/>
      <point x="584.05" y="283"/>
      <point x="713.05" y="347"/>
      <point x="713.05" y="494" type="curve"/>
      <point x="713.05" y="654"/>
      <point x="567.05" y="722"/>
      <point x="388.05" y="722" type="curve"/>
      <point x="331.05" y="722"/>
      <point x="273.05" y="722"/>
      <point x="216.05" y="722" type="curve"/>
      <point x="216.05" y="700"/>
      <point x="216.05" y="722"/>
      <point x="216.05" y="700" type="curve"/>
      <point x="272.05" y="700"/>
      <point x="329.05" y="700"/>
      <point x="385.05" y="700" type="curve"/>
      <point x="552.05" y="700"/>
      <point x="688.05" y="642"/>
      <point x="688.05" y="493" type="curve"/>
      <point x="688.05" y="360"/>
      <point x="570.05" y="302"/>
      <point x="424.05" y="302" type="curve"/>
      <point x="346.05" y="302"/>
      <point x="290.05" y="318"/>
      <point x="218.05" y="346" type="curve"/>
    </contour>
    <contour>
      <point x="223.05" y="0"/>
      <point x="198.05" y="0"/>
      <point x="223.05" y="0" type="curve"/>
      <point x="223.05" y="241"/>
      <point x="223.05" y="481"/>
      <point x="223.05" y="722" type="curve"/>
      <point x="198.05" y="722"/>
      <point x="223.05" y="722"/>
      <point x="198.05" y="722" type="curve"/>
      <point x="198.05" y="481"/>
      <point x="198.05" y="241"/>
      <point x="198.05" y="0" type="curve"/>
    </contour>
  </outline>
</glyph>
<glyph name="Q" format="1">
  <advance width="1023.03"/>
  <unicode hex="0051"/>
  <outline>
    <contour>
      <point x="475.35" y="4"/>
      <point x="496.35" y="15"/>
      <point x="475.35" y="4" type="curve"/>
      <point x="622.35" y="-196"/>
      <point x="784.35" y="-240"/>
      <point x="1021.35" y="-240" type="curve"/>
      <point x="1021.35" y="-217"/>
      <point x="1021.35" y="-240"/>
      <point x="1021.35" y="-217" type="curve"/>
      <point x="795.35" y="-217"/>
      <point x="639.35" y="-177"/>
      <point x="496.35" y="15" type="curve"/>
    </contour>
    <contour>
      <point x="95.35" y="360"/>
      <point x="70.35" y="360"/>
      <point x="95.35" y="360" type="curve"/>
      <point x="95.35" y="576"/>
      <point x="250.35" y="703"/>
      <point x="474.35" y="703" type="curve"/>
      <point x="698.35" y="703"/>
      <point x="853.35" y="578"/>
      <point x="853.35" y="363" type="curve"/>
      <point x="853.35" y="147"/>
      <point x="700.35" y="19"/>
      <point x="477.35" y="19" type="curve"/>
      <point x="251.35" y="19"/>
      <point x="95.35" y="144"/>
      <point x="95.35" y="360" type="curve"/>
      <point x="70.35" y="360"/>
      <point x="95.35" y="360"/>
      <point x="70.35" y="360" type="curve"/>
      <point x="70.35" y="129"/>
      <point x="237.35" y="-5"/>
      <point x="476.35" y="-5" type="curve"/>
      <point x="714.35" y="-5"/>
      <point x="878.35" y="132"/>
      <point x="878.35" y="364" type="curve"/>
      <point x="878.35" y="594"/>
      <point x="713.35" y="727"/>
      <point x="475.35" y="727" type="curve"/>
      <point x="236.35" y="727"/>
      <point x="70.35" y="591"/>
      <point x="70.35" y="360" type="curve"/>
    </contour>
  </outline>
</glyph>
<glyph name="T" format="1">
  <advance width="937.8"/>
  <unicode hex="0054"/>
  <outline>
    <contour>
      <point x="50.61" y="710"/>
      <point x="72.61" y="710"/>
      <point x="50.61" y="710" type="curve"/>
      <point x="50.61" y="590"/>
      <point x="50.61" y="710"/>
      <point x="50.61" y="590" type="curve"/>
      <point x="72.61" y="590"/>
      <point x="50.61" y="590"/>
      <point x="72.61" y="590" type="curve"/>
      <point x="72.61" y="710"/>
      <point x="72.61" y="590"/>
      <point x="72.61" y="710" type="curve"/>
    </contour>
    <contour>
      <point x="865.61" y="710"/>
      <point x="887.61" y="710"/>
      <point x="865.61" y="710" type="curve"/>
      <point x="865.61" y="590"/>
      <point x="865.61" y="710"/>
      <point x="865.61" y="590" type="curve"/>
      <point x="887.61" y="590"/>
      <point x="865.61" y="590"/>
      <point x="887.61" y="590" type="curve"/>
      <point x="887.61" y="710"/>
      <point x="887.61" y="590"/>
      <point x="887.61" y="710" type="curve"/>
    </contour>
    <contour>
      <point x="467.61" y="0"/>
      <point x="467.61" y="22"/>
      <point x="467.61" y="0" type="curve"/>
      <point x="524.61" y="0"/>
      <point x="580.61" y="0"/>
      <point x="636.61" y="0" type="curve"/>
      <point x="636.61" y="22"/>
      <point x="636.61" y="0"/>
      <point x="636.61" y="22" type="curve"/>
      <point x="467.61" y="22"/>
      <point x="636.61" y="22"/>
      <point x="467.61" y="22" type="curve"/>
    </contour>
    <contour>
      <point x="467.61" y="22"/>
      <point x="467.61" y="0"/>
      <point x="467.61" y="22" type="curve"/>
      <point x="298.61" y="22"/>
      <point x="467.61" y="22"/>
      <point x="298.61" y="22" type="curve"/>
      <point x="298.61" y="0"/>
      <point x="298.61" y="22"/>
      <point x="298.61" y="0" type="curve"/>
      <point x="355.61" y="0"/>
      <point x="411.61" y="0"/>
      <point x="467.61" y="0" type="curve"/>
    </contour>
    <contour>
      <point x="481.61" y="0"/>
      <point x="457.61" y="0"/>
      <point x="481.61" y="0" type="curve"/>
      <point x="481.61" y="237"/>
      <point x="481.61" y="473"/>
      <point x="481.61" y="710" type="curve"/>
      <point x="457.61" y="710"/>
      <point x="481.61" y="710"/>
      <point x="457.61" y="710" type="curve"/>
      <point x="457.61" y="473"/>
      <point x="457.61" y="237"/>
      <point x="457.61" y="0" type="curve"/>
    </contour>
    <contour>
      <point x="50.61" y="698"/>
      <point x="50.61" y="722"/>
      <point x="50.61" y="698" type="curve"/>
      <point x="329.61" y="698"/>
      <point x="608.61" y="698"/>
      <point x="887.61" y="698" type="curve"/>
      <point x="887.61" y="722"/>
      <point x="887.61" y="698"/>
      <point x="887.61" y="722" type="curve"/>
      <point x="608.61" y="722"/>
      <point x="329.61" y="722"/>
      <point x="50.61" y="722" type="curve"/>
    </contour>
    <contour>
      <point x="466.61" y="825" type="move" name="top"/>
    </contour>
    <contour>
      <point x="481.61" y="0" type="move" name="bottom"/>
    </contour>
  </outline>
</glyph>
<glyph name="V" format="1">
  <advance width="1068.95"/>
  <unicode hex="0056"/>
  <outline>
    <contour>
      <point x="881.05" y="722"/>
      <point x="881.05" y="700"/>
      <point x="881.05" y="722" type="curve"/>
      <point x="823.05" y="722"/>
      <point x="765.05" y="722"/>
      <point x="707.05" y="722" type="curve"/>
      <point x="707.05" y="700"/>
      <point x="707.05" y="722"/>
      <point x="707.05" y="700" type="curve"/>
      <point x="881.05" y="700"/>
      <point x="707.05" y="700"/>
      <point x="881.05" y="700" type="curve"/>
    </contour>
    <contour>
      <point x="150.05" y="722"/>
      <point x="150.05" y="700"/>
      <point x="150.05" y="722" type="curve"/>
      <point x="93.05" y="722"/>
      <point x="37.05" y="722"/>
      <point x="-19.95" y="722" type="curve"/>
      <point x="-19.95" y="700"/>
      <point x="-19.95" y="722"/>
      <point x="-19.95" y="700" type="curve"/>
      <point x="150.05" y="700"/>
      <point x="-19.95" y="700"/>
      <point x="150.05" y="700" type="curve"/>
    </contour>
    <contour>
      <point x="881.05" y="700"/>
      <point x="881.05" y="722"/>
      <point x="881.05" y="700" type="curve"/>
      <point x="1050.05" y="700"/>
      <point x="881.05" y="700"/>
      <point x="1050.05" y="700" type="curve"/>
      <point x="1050.05" y="722"/>
      <point x="1050.05" y="700"/>
      <point x="1050.05" y="722" type="curve"/>
      <point x="994.05" y="722"/>
      <point x="938.05" y="722"/>
      <point x="881.05" y="722" type="curve"/>
    </contour>
    <contour>
      <point x="150.05" y="700"/>
      <point x="150.05" y="722"/>
      <point x="150.05" y="700" type="curve"/>
      <point x="324.05" y="700"/>
      <point x="150.05" y="700"/>
      <point x="324.05" y="700" type="curve"/>
      <point x="324.05" y="722"/>
      <point x="324.05" y="700"/>
      <point x="324.05" y="722" type="curve"/>
      <point x="266.05" y="722"/>
      <point x="208.05" y="722"/>
      <point x="150.05" y="722" type="curve"/>
    </contour>
    <contour>
      <point x="884.05" y="722"/>
      <point x="911.05" y="722"/>
      <point x="884.05" y="722" type="curve"/>
      <point x="759.05" y="481"/>
      <point x="634.05" y="241"/>
      <point x="509.05" y="0" type="curve"/>
      <point x="536.05" y="0"/>
      <point x="509.05" y="0"/>
      <point x="536.05" y="0" type="curve"/>
      <point x="661.05" y="241"/>
      <point x="786.05" y="481"/>
      <point x="911.05" y="722" type="curve"/>
    </contour>
    <contour>
      <point x="121.05" y="722"/>
      <point x="148.05" y="722"/>
      <point x="120.05" y="722" type="curve"/>
      <point x="247.05" y="481"/>
      <point x="374.05" y="241"/>
      <point x="501.05" y="0" type="curve"/>
      <point x="528.05" y="0"/>
      <point x="502.05" y="0"/>
      <point x="529.05" y="0" type="curve"/>
      <point x="402.05" y="241"/>
      <point x="275.05" y="481"/>
      <point x="149.05" y="722" type="curve"/>
    </contour>
  </outline>
</glyph>
<glyph name="W" format="1">
  <advance width="1337.25"/>
  <unicode hex="0057"/>
  <outline>
    <contour>
      <point x="160.6" y="700"/>
      <point x="160.6" y="722"/>
      <point x="160.6" y="700" type="curve"/>
      <point x="329.6" y="700"/>
      <point x="160.6" y="700"/>
      <point x="329.6" y="700" type="curve"/>
      <point x="329.6" y="722"/>
      <point x="329.6" y="700"/>
      <point x="329.6" y="722" type="curve"/>
      <point x="273.6" y="722"/>
      <point x="217.6" y="722"/>
      <point x="160.6" y="722" type="curve"/>
    </contour>
    <contour>
      <point x="160.6" y="722"/>
      <point x="160.6" y="700"/>
      <point x="160.6" y="722" type="curve"/>
      <point x="104.6" y="722"/>
      <point x="47.6" y="722"/>
      <point x="-8.4" y="722" type="curve"/>
      <point x="-8.4" y="700"/>
      <point x="-8.4" y="722"/>
      <point x="-8.4" y="700" type="curve"/>
      <point x="160.6" y="700"/>
      <point x="-8.4" y="700"/>
      <point x="160.6" y="700" type="curve"/>
    </contour>
    <contour>
      <point x="1154.6" y="722"/>
      <point x="1154.6" y="700"/>
      <point x="1154.6" y="722" type="curve"/>
      <point x="1097.6" y="722"/>
      <point x="1041.6" y="722"/>
      <point x="985.6" y="722" type="curve"/>
      <point x="985.6" y="700"/>
      <point x="985.6" y="722"/>
      <point x="985.6" y="700" type="curve"/>
      <point x="1154.6" y="700"/>
      <point x="985.6" y="700"/>
      <point x="1154.6" y="700" type="curve"/>
    </contour>
    <contour>
      <point x="1154.6" y="700"/>
      <point x="1154.6" y="722"/>
      <point x="1154.6" y="700" type="curve"/>
      <point x="1323.6" y="700"/>
      <point x="1154.6" y="700"/>
      <point x="1323.6" y="700" type="curve"/>
      <point x="1323.6" y="722"/>
      <point x="1323.6" y="700"/>
      <point x="1323.6" y="722" type="curve"/>
      <point x="1267.6" y="722"/>
      <point x="1210.6" y="722"/>
      <point x="1154.6" y="722" type="curve"/>
    </contour>
    <contour>
      <point x="395.6" y="0"/>
      <point x="384.6" y="0"/>
      <point x="401.6" y="0" type="curve"/>
      <point x="491.6" y="241"/>
      <point x="582.6" y="481"/>
      <point x="672.6" y="722" type="curve"/>
      <point x="649.6" y="722"/>
      <point x="672.6" y="722"/>
      <point x="649.6" y="722" type="curve"/>
      <point x="559.6" y="481"/>
      <point x="468.6" y="241"/>
      <point x="378.6" y="0" type="curve"/>
    </contour>
    <contour>
      <point x="658.6" y="722"/>
      <point x="681.6" y="722"/>
      <point x="658.6" y="722" type="curve"/>
      <point x="739.6" y="481"/>
      <point x="821.6" y="241"/>
      <point x="902.6" y="0" type="curve"/>
      <point x="920.6" y="0"/>
      <point x="907.6" y="0"/>
      <point x="925.6" y="0" type="curve"/>
      <point x="845.6" y="241"/>
      <point x="763.6" y="481"/>
      <point x="681.6" y="722" type="curve"/>
    </contour>
    <contour>
      <point x="131.6" y="722"/>
      <point x="156.6" y="722"/>
      <point x="131.6" y="722" type="curve"/>
      <point x="212.6" y="481"/>
      <point x="294.6" y="241"/>
      <point x="376.6" y="0" type="curve"/>
      <point x="393.6" y="0"/>
      <point x="382.6" y="0"/>
      <point x="399.6" y="0" type="curve"/>
      <point x="319.6" y="240"/>
      <point x="236.6" y="482"/>
      <point x="156.6" y="722" type="curve"/>
    </contour>
    <contour>
      <point x="1158.6" y="722"/>
      <point x="1183.6" y="722"/>
      <point x="1158.6" y="722" type="curve"/>
      <point x="1073.6" y="481"/>
      <point x="988.6" y="241"/>
      <point x="905.6" y="0" type="curve"/>
      <point x="923.6" y="0"/>
      <point x="910.6" y="0"/>
      <point x="928.6" y="0" type="curve"/>
      <point x="1013.6" y="241"/>
      <point x="1098.6" y="481"/>
      <point x="1183.6" y="722" type="curve"/>
    </contour>
  </outline>
</glyph>
<glyph name="X" format="1">
  <advance width="990.95"/>
  <unicode hex="0058"/>
  <outline>
    <contour>
      <point x="166.9" y="0"/>
      <point x="166.9" y="22"/>
      <point x="166.9" y="0" type="curve"/>
      <point x="223.9" y="0"/>
      <point x="166.9" y="0"/>
      <point x="335.9" y="0" type="curve"/>
      <point x="335.9" y="22"/>
      <point x="335.9" y="0"/>
      <point x="335.9" y="22" type="curve"/>
      <point x="166.9" y="22"/>
      <point x="335.9" y="22"/>
      <point x="166.9" y="22" type="curve"/>
    </contour>
    <contour>
      <point x="166.9" y="22"/>
      <point x="166.9" y="0"/>
      <point x="166.9" y="22" type="curve"/>
      <point x="-2.1" y="22"/>
      <point x="166.9" y="22"/>
      <point x="-2.1" y="22" type="curve"/>
      <point x="-2.1" y="0"/>
      <point x="-2.1" y="22"/>
      <point x="-2.1" y="0" type="curve"/>
      <point x="54.9" y="0"/>
      <point x="110.9" y="0"/>
      <point x="166.9" y="0" type="curve"/>
    </contour>
    <contour>
      <point x="820.9" y="0"/>
      <point x="820.9" y="22"/>
      <point x="820.9" y="0" type="curve"/>
      <point x="876.9" y="0"/>
      <point x="933.9" y="0"/>
      <point x="989.9" y="0" type="curve"/>
      <point x="989.9" y="22"/>
      <point x="989.9" y="0"/>
      <point x="989.9" y="22" type="curve"/>
      <point x="820.9" y="22"/>
      <point x="989.9" y="22"/>
      <point x="820.9" y="22" type="curve"/>
    </contour>
    <contour>
      <point x="820.9" y="22"/>
      <point x="820.9" y="0"/>
      <point x="820.9" y="22" type="curve"/>
      <point x="651.9" y="22"/>
      <point x="820.9" y="22"/>
      <point x="651.9" y="22" type="curve"/>
      <point x="651.9" y="0"/>
      <point x="651.9" y="22"/>
      <point x="651.9" y="0" type="curve"/>
      <point x="707.9" y="0"/>
      <point x="764.9" y="0"/>
      <point x="820.9" y="0" type="curve"/>
    </contour>
    <contour>
      <point x="785.9" y="700"/>
      <point x="785.9" y="722"/>
      <point x="785.9" y="700" type="curve"/>
      <point x="954.9" y="700"/>
      <point x="785.9" y="700"/>
      <point x="954.9" y="700" type="curve"/>
      <point x="954.9" y="722"/>
      <point x="954.9" y="700"/>
      <point x="954.9" y="722" type="curve"/>
      <point x="898.9" y="722"/>
      <point x="841.9" y="722"/>
      <point x="785.9" y="722" type="curve"/>
    </contour>
    <contour>
      <point x="785.9" y="722"/>
      <point x="785.9" y="700"/>
      <point x="785.9" y="722" type="curve"/>
      <point x="729.9" y="722"/>
      <point x="672.9" y="722"/>
      <point x="616.9" y="722" type="curve"/>
      <point x="616.9" y="700"/>
      <point x="616.9" y="722"/>
      <point x="616.9" y="700" type="curve"/>
      <point x="785.9" y="700"/>
      <point x="616.9" y="700"/>
      <point x="785.9" y="700" type="curve"/>
    </contour>
    <contour>
      <point x="207.9" y="722"/>
      <point x="207.9" y="700"/>
      <point x="207.9" y="722" type="curve"/>
      <point x="151.9" y="722"/>
      <point x="94.9" y="722"/>
      <point x="38.9" y="722" type="curve"/>
      <point x="38.9" y="700"/>
      <point x="38.9" y="722"/>
      <point x="38.9" y="700" type="curve"/>
      <point x="207.9" y="700"/>
      <point x="38.9" y="700"/>
      <point x="207.9" y="700" type="curve"/>
    </contour>
    <contour>
      <point x="207.9" y="700"/>
      <point x="207.9" y="722"/>
      <point x="207.9" y="700" type="curve"/>
      <point x="376.9" y="700"/>
      <point x="207.9" y="700"/>
      <point x="376.9" y="700" type="curve"/>
      <point x="376.9" y="722"/>
      <point x="376.9" y="700"/>
      <point x="376.9" y="722" type="curve"/>
      <point x="320.9" y="722"/>
      <point x="263.9" y="722"/>
      <point x="207.9" y="722" type="curve"/>
    </contour>
    <contour>
      <point x="798.9" y="722"/>
      <point x="827.9" y="722"/>
      <point x="798.9" y="722" type="curve"/>
      <point x="574.9" y="481"/>
      <point x="349.9" y="241"/>
      <point x="125.9" y="0" type="curve"/>
      <point x="157.9" y="0"/>
      <point x="125.9" y="0"/>
      <point x="157.9" y="0" type="curve"/>
      <point x="380.9" y="241"/>
      <point x="603.9" y="481"/>
      <point x="827.9" y="722" type="curve"/>
    </contour>
    <contour>
      <point x="169.9" y="722"/>
      <point x="198.9" y="722"/>
      <point x="169.9" y="722" type="curve"/>
      <point x="391.9" y="481"/>
      <point x="612.9" y="241"/>
      <point x="834.9" y="0" type="curve"/>
      <point x="864.9" y="0"/>
      <point x="834.9" y="0"/>
      <point x="864.9" y="0" type="curve"/>
      <point x="642.9" y="241"/>
      <point x="420.9" y="481"/>
      <point x="198.9" y="722" type="curve"/>
    </contour>
  </outline>
</glyph>
<glyph name="bracketleft" format="1">
  <advance width="336.0"/>
  <unicode hex="005B"/>
  <outline>
    <contour>
      <point x="295.05" y="771"/>
      <point x="295.05" y="747"/>
      <point x="295.05" y="771" type="curve"/>
      <point x="226.05" y="771"/>
      <point x="157.05" y="771"/>
      <point x="88.05" y="771" type="curve"/>
      <point x="87.05" y="771"/>
      <point x="88.05" y="771"/>
      <point x="85.05" y="771" type="curve"/>
      <point x="85.05" y="769"/>
      <point x="85.05" y="767"/>
      <point x="85.05" y="765" type="curve"/>
      <point x="85.05" y="470"/>
      <point x="85.05" y="175"/>
      <point x="85.05" y="-120" type="curve"/>
      <point x="85.05" y="-121"/>
      <point x="85.05" y="-123"/>
      <point x="85.05" y="-124" type="curve"/>
      <point x="86.05" y="-124"/>
      <point x="86.05" y="-124"/>
      <point x="87.05" y="-124" type="curve"/>
      <point x="156.05" y="-124"/>
      <point x="225.05" y="-124"/>
      <point x="295.05" y="-124" type="curve"/>
      <point x="295.05" y="-100"/>
      <point x="295.05" y="-124"/>
      <point x="295.05" y="-100" type="curve"/>
      <point x="225.05" y="-100"/>
      <point x="156.05" y="-100"/>
      <point x="87.05" y="-100" type="curve"/>
      <point x="110.05" y="-100"/>
      <point x="87.05" y="-100"/>
      <point x="110.05" y="-100" type="curve"/>
      <point x="110.05" y="-120"/>
      <point x="110.05" y="-100"/>
      <point x="110.05" y="-120" type="curve"/>
      <point x="110.05" y="175"/>
      <point x="110.05" y="470"/>
      <point x="110.05" y="765" type="curve"/>
      <point x="110.05" y="747"/>
      <point x="110.05" y="765"/>
      <point x="110.05" y="747" type="curve"/>
      <point x="88.05" y="747"/>
      <point x="110.05" y="747"/>
      <point x="88.05" y="747" type="curve"/>
      <point x="157.05" y="747"/>
      <point x="226.05" y="747"/>
      <point x="295.05" y="747" type="curve"/>
    </contour>
  </outline>
</glyph>
<glyph name="backslash" format="1">
  <advance width="640.415"/>
  <unicode hex="005C"/>
  <outline>
    <contour>
      <point x="597.365" y="-68"/>
      <point x="572.365" y="-68"/>
      <point x="597.365" y="-68" type="curve"/>
      <point x="421.365" y="236"/>
      <point x="245.365" y="540"/>
      <point x="68.365" y="844" type="curve"/>
      <point x="43.365" y="844"/>
      <point x="68.365" y="844"/>
      <point x="43.365" y="844" type="curve"/>
      <point x="219.365" y="540"/>
      <point x="396.365" y="236"/>
      <point x="572.365" y="-68" type="curve"/>
    </contour>
  </outline>
</glyph>
<glyph name="bracketright" format="1">
  <advance width="335.0"/>
  <unicode hex="005D"/>
  <outline>
    <contour>
      <point x="40.95" y="747"/>
      <point x="40.95" y="771"/>
      <point x="40.95" y="747" type="curve"/>
      <point x="109.95" y="747"/>
      <point x="177.95" y="747"/>
      <point x="246.95" y="747" type="curve"/>
      <point x="243.95" y="750"/>
      <point x="239.95" y="753"/>
      <point x="236.95" y="756" type="curve"/>
      <point x="232.95" y="759"/>
      <point x="228.95" y="762"/>
      <point x="225.95" y="765" type="curve"/>
      <point x="225.95" y="470"/>
      <point x="225.95" y="175"/>
      <point x="225.95" y="-120" type="curve"/>
      <point x="229.95" y="-117"/>
      <point x="233.95" y="-113"/>
      <point x="237.95" y="-109" type="curve"/>
      <point x="241.95" y="-107"/>
      <point x="244.95" y="-103"/>
      <point x="248.95" y="-100" type="curve"/>
      <point x="178.95" y="-100"/>
      <point x="109.95" y="-100"/>
      <point x="40.95" y="-100" type="curve"/>
      <point x="40.95" y="-124"/>
      <point x="40.95" y="-100"/>
      <point x="40.95" y="-124" type="curve"/>
      <point x="109.95" y="-124"/>
      <point x="178.95" y="-124"/>
      <point x="248.95" y="-124" type="curve"/>
      <point x="249.95" y="-124"/>
      <point x="248.95" y="-124"/>
      <point x="249.95" y="-124" type="curve"/>
      <point x="249.95" y="-120"/>
      <point x="249.95" y="-124"/>
      <point x="249.95" y="-120" type="curve"/>
      <point x="249.95" y="175"/>
      <point x="249.95" y="470"/>
      <point x="249.95" y="765" type="curve"/>
      <point x="249.95" y="771"/>
      <point x="249.95" y="765"/>
      <point x="249.95" y="771" type="curve"/>
      <point x="246.95" y="771"/>
      <point x="249.95" y="771"/>
      <point x="246.95" y="771" type="curve"/>
      <point x="177.95" y="771"/>
      <point x="109.95" y="771"/>
      <point x="40.95" y="771" type="curve"/>
    </contour>
  </outline>
</glyph>
<glyph name="asciicircum" format="1">
  <advance width="653.35"/>
  <unicode hex="005E"/>
  <outline>
    <contour>
      <point x="100.7" y="466"/>
      <point x="79.7" y="466"/>
      <point x="102.7" y="466" type="curve"/>
      <point x="180.7" y="581"/>
      <point x="259.7" y="695"/>
      <point x="337.7" y="810" type="curve"/>
      <point x="314.7" y="810"/>
      <point x="335.7" y="810"/>
      <point x="312.7" y="810" type="curve"/>
      <point x="234.7" y="695"/>
      <point x="155.7" y="581"/>
      <point x="77.7" y="466" type="curve"/>
    </contour>
    <contour>
      <point x="574.7" y="466"/>
      <point x="553.7" y="466"/>
      <point x="576.7" y="466" type="curve"/>
      <point x="499.7" y="577"/>
      <point x="416.7" y="699"/>
      <point x="339.7" y="810" type="curve"/>
      <point x="316.7" y="810"/>
      <point x="337.7" y="810"/>
      <point x="314.7" y="810" type="curve"/>
      <point x="390.7" y="699"/>
      <point x="474.7" y="577"/>
      <point x="551.7" y="466" type="curve"/>
    </contour>
  </outline>
</glyph>
<glyph name="underscore" format="1">
  <advance width="922.58"/>
  <unicode hex="005F"/>
  <outline>
    <contour>
      <point x="-0.525" y="-210"/>
      <point x="-0.525" y="-189"/>
      <point x="-0.525" y="-210" type="curve"/>
      <point x="309.475" y="-210"/>
      <point x="616.475" y="-210"/>
      <point x="922.475" y="-210" type="curve"/>
      <point x="922.475" y="-189"/>
      <point x="922.475" y="-210"/>
      <point x="922.475" y="-189" type="curve"/>
      <point x="616.475" y="-189"/>
      <point x="309.475" y="-189"/>
      <point x="-0.525" y="-189" type="curve"/>
    </contour>
  </outline>
</glyph>
<glyph name="grave" format="1">
  <advance width="487.665"/>
  <unicode hex="0060"/>
  <outline>
    <contour>
      <point x="287.85" y="591" type="line"/>
      <point x="99.85" y="757" type="line"/>
      <point x="59.85" y="757" type="line"/>
      <point x="257.85" y="591" type="line"/>
    </contour>
    <contour>
      <point x="269.85" y="591" type="move" name="_top"/>
    </contour>
  </outline>
</glyph>
<glyph name="b" format="1">
  <advance width="820.55"/>
  <unicode hex="0062"/>
  <outline>
    <contour>
      <point x="176.35" y="800"/>
      <point x="176.35" y="778"/>
      <point x="176.35" y="800" type="curve"/>
      <point x="120.35" y="800"/>
      <point x="64.35" y="800"/>
      <point x="7.35" y="800" type="curve"/>
      <point x="7.35" y="778"/>
      <point x="7.35" y="800"/>
      <point x="7.35" y="778" type="curve"/>
      <point x="176.35" y="778"/>
      <point x="7.35" y="778"/>
      <point x="176.35" y="778" type="curve"/>
    </contour>
    <contour>
      <point x="180.35" y="408"/>
      <point x="168.35" y="424"/>
      <point x="180.35" y="408" type="curve"/>
      <point x="240.35" y="463"/>
      <point x="344.35" y="516"/>
      <point x="461.35" y="516" type="curve"/>
      <point x="618.35" y="516"/>
      <point x="729.35" y="420"/>
      <point x="729.35" y="263" type="curve"/>
      <point x="729.35" y="112"/>
      <point x="617.35" y="15"/>
      <point x="460.35" y="17" type="curve"/>
      <point x="352.35" y="17"/>
      <point x="270.35" y="42"/>
      <point x="183.35" y="110" type="curve"/>
      <point x="167.35" y="97"/>
      <point x="183.35" y="110"/>
      <point x="167.35" y="97" type="curve"/>
      <point x="258.35" y="21"/>
      <point x="345.35" y="-5"/>
      <point x="461.35" y="-5" type="curve"/>
      <point x="631.35" y="-5"/>
      <point x="753.35" y="97"/>
      <point x="753.35" y="264" type="curve"/>
      <point x="753.35" y="432"/>
      <point x="632.35" y="538"/>
      <point x="464.35" y="538" type="curve"/>
      <point x="341.35" y="538"/>
      <point x="232.35" y="483"/>
      <point x="168.35" y="424" type="curve"/>
    </contour>
    <contour>
      <point x="186.35" y="0"/>
      <point x="162.35" y="0"/>
      <point x="186.35" y="0" type="curve"/>
      <point x="186.35" y="267"/>
      <point x="186.35" y="533"/>
      <point x="186.35" y="800" type="curve"/>
      <point x="162.35" y="800"/>
      <point x="186.35" y="800"/>
      <point x="162.35" y="800" type="curve"/>
      <point x="162.35" y="533"/>
      <point x="162.35" y="267"/>
      <point x="162.35" y="0" type="curve"/>
    </contour>
    <contour>
      <point x="176.35" y="22"/>
      <point x="176.35" y="0"/>
      <point x="176.35" y="22" type="curve"/>
      <point x="7.35" y="22"/>
      <point x="176.35" y="22"/>
      <point x="7.35" y="22" type="curve"/>
      <point x="7.35" y="0"/>
      <point x="7.35" y="22"/>
      <point x="7.35" y="0" type="curve"/>
      <point x="64.35" y="0"/>
      <point x="120.35" y="0"/>
      <point x="176.35" y="0" type="curve"/>
    </contour>
  </outline>
</glyph>
<glyph name="c" format="1">
  <advance width="668.585"/>
  <unicode hex="0063"/>
  <outline>
    <contour>
      <point x="574.885" y="473"/>
      <point x="596.885" y="473"/>
      <point x="574.885" y="473" type="curve"/>
      <point x="574.885" y="353"/>
      <point x="574.885" y="473"/>
      <point x="574.885" y="353" type="curve"/>
      <point x="596.885" y="353"/>
      <point x="574.885" y="353"/>
      <point x="596.885" y="353" type="curve"/>
      <point x="596.885" y="473"/>
      <point x="596.885" y="353"/>
      <point x="596.885" y="473" type="curve"/>
    </contour>
    <contour>
      <point x="596.885" y="473"/>
      <point x="582.885" y="458"/>
      <point x="596.885" y="473" type="curve"/>
      <point x="533.885" y="511"/>
      <point x="457.885" y="538"/>
      <point x="380.885" y="538" type="curve"/>
      <point x="192.885" y="538"/>
      <point x="66.885" y="450"/>
      <point x="66.885" y="267" type="curve"/>
      <point x="66.885" y="84"/>
      <point x="189.885" y="-5"/>
      <point x="378.885" y="-5" type="curve"/>
      <point x="463.885" y="-5"/>
      <point x="548.885" y="25"/>
      <point x="611.885" y="82" type="curve"/>
      <point x="594.885" y="98"/>
      <point x="611.885" y="82"/>
      <point x="594.885" y="98" type="curve"/>
      <point x="534.885" y="43"/>
      <point x="457.885" y="17"/>
      <point x="378.885" y="17" type="curve"/>
      <point x="207.885" y="17"/>
      <point x="90.885" y="97"/>
      <point x="90.885" y="267" type="curve"/>
      <point x="90.885" y="437"/>
      <point x="207.885" y="516"/>
      <point x="378.885" y="516" type="curve"/>
      <point x="450.885" y="516"/>
      <point x="521.885" y="494"/>
      <point x="582.885" y="458" type="curve"/>
    </contour>
    <contour>
      <point x="387.885" y="-2" type="move" name="bottom"/>
    </contour>
    <contour>
      <point x="374.885" y="671" type="move" name="top"/>
    </contour>
  </outline>
</glyph>
<glyph name="d" format="1">
  <advance width="827.98"/>
  <unicode hex="0064"/>
  <outline>
    <contour>
      <point x="649.84" y="800"/>
      <point x="649.84" y="778"/>
      <point x="649.84" y="800" type="curve"/>
      <point x="593.84" y="800"/>
      <point x="536.84" y="800"/>
      <point x="480.84" y="800" type="curve"/>
      <point x="480.84" y="778"/>
      <point x="480.84" y="800"/>
      <point x="480.84" y="778" type="curve"/>
      <point x="649.84" y="778"/>
      <point x="480.84" y="778"/>
      <point x="649.84" y="778" type="curve"/>
    </contour>
    <contour>
      <point x="651.84" y="0"/>
      <point x="651.84" y="22"/>
      <point x="651.84" y="0" type="curve"/>
      <point x="707.84" y="0"/>
      <point x="763.84" y="0"/>
      <point x="820.84" y="0" type="curve"/>
      <point x="820.84" y="22"/>
      <point x="820.84" y="0"/>
      <point x="820.84" y="22" type="curve"/>
      <point x="651.84" y="22"/>
      <point x="820.84" y="22"/>
      <point x="651.84" y="22" type="curve"/>
    </contour>
    <contour>
      <point x="657.84" y="448"/>
      <point x="643.84" y="432"/>
      <point x="657.84" y="448" type="curve"/>
      <point x="579.84" y="511"/>
      <point x="494.84" y="538"/>
      <point x="389.84" y="538" type="curve"/>
      <point x="203.84" y="538"/>
      <point x="63.84" y="441"/>
      <point x="63.84" y="264" type="curve"/>
      <point x="63.84" y="88"/>
      <point x="206.84" y="-5"/>
      <point x="393.84" y="-5" type="curve"/>
      <point x="504.84" y="-5"/>
      <point x="583.84" y="32"/>
      <point x="657.84" y="119" type="curve"/>
      <point x="643.84" y="134"/>
      <point x="657.84" y="119"/>
      <point x="643.84" y="134" type="curve"/>
      <point x="570.84" y="53"/>
      <point x="497.84" y="17"/>
      <point x="392.84" y="17" type="curve"/>
      <point x="219.84" y="17"/>
      <point x="88.84" y="102"/>
      <point x="88.84" y="265" type="curve"/>
      <point x="88.84" y="429"/>
      <point x="218.84" y="516"/>
      <point x="390.84" y="516" type="curve"/>
      <point x="489.84" y="516"/>
      <point x="573.84" y="491"/>
      <point x="643.84" y="432" type="curve"/>
    </contour>
    <contour>
      <point x="663.84" y="0"/>
      <point x="637.84" y="0"/>
      <point x="663.84" y="0" type="curve"/>
      <point x="663.84" y="267"/>
      <point x="663.84" y="533"/>
      <point x="663.84" y="800" type="curve"/>
      <point x="637.84" y="800"/>
      <point x="663.84" y="800"/>
      <point x="637.84" y="800" type="curve"/>
      <point x="637.84" y="533"/>
      <point x="637.84" y="267"/>
      <point x="637.84" y="0" type="curve"/>
    </contour>
  </outline>
</glyph>
<glyph name="f" format="1">
  <advance width="626.3"/>
  <unicode hex="0066"/>
  <outline>
    <contour>
      <point x="595.9" y="772"/>
      <point x="617.9" y="772"/>
      <point x="595.9" y="772" type="curve"/>
      <point x="595.9" y="652"/>
      <point x="595.9" y="772"/>
      <point x="595.9" y="652" type="curve"/>
      <point x="617.9" y="652"/>
      <point x="595.9" y="652"/>
      <point x="617.9" y="652" type="curve"/>
      <point x="617.9" y="772"/>
      <point x="617.9" y="652"/>
      <point x="617.9" y="772" type="curve"/>
    </contour>
    <contour>
      <point x="289.9" y="0"/>
      <point x="289.9" y="22"/>
      <point x="289.9" y="0" type="curve"/>
      <point x="345.9" y="0"/>
      <point x="402.9" y="0"/>
      <point x="458.9" y="0" type="curve"/>
      <point x="458.9" y="22"/>
      <point x="458.9" y="0"/>
      <point x="458.9" y="22" type="curve"/>
      <point x="289.9" y="22"/>
      <point x="458.9" y="22"/>
      <point x="289.9" y="22" type="curve"/>
    </contour>
    <contour>
      <point x="289.9" y="22"/>
      <point x="289.9" y="0"/>
      <point x="289.9" y="22" type="curve"/>
      <point x="120.9" y="22"/>
      <point x="289.9" y="22"/>
      <point x="120.9" y="22" type="curve"/>
      <point x="120.9" y="0"/>
      <point x="120.9" y="22"/>
      <point x="120.9" y="0" type="curve"/>
      <point x="176.9" y="0"/>
      <point x="233.9" y="0"/>
      <point x="289.9" y="0" type="curve"/>
    </contour>
    <contour>
      <point x="39.9" y="511"/>
      <point x="39.9" y="533"/>
      <point x="39.9" y="511" type="curve"/>
      <point x="39.9" y="511"/>
      <point x="598.9" y="511"/>
      <point x="598.9" y="511" type="curve"/>
      <point x="598.9" y="533"/>
      <point x="598.9" y="511"/>
      <point x="598.9" y="533" type="curve"/>
      <point x="598.9" y="533"/>
      <point x="39.9" y="533"/>
      <point x="39.9" y="533" type="curve"/>
    </contour>
    <contour>
      <point x="301.9" y="0"/>
      <point x="277.9" y="0"/>
      <point x="301.9" y="0" type="curve"/>
      <point x="301.9" y="0"/>
      <point x="301.9" y="640"/>
      <point x="301.9" y="640" type="curve"/>
      <point x="301.9" y="735"/>
      <point x="373.9" y="783"/>
      <point x="474.9" y="783" type="curve"/>
      <point x="520.9" y="783"/>
      <point x="565.9" y="770"/>
      <point x="607.9" y="755" type="curve"/>
      <point x="617.9" y="772"/>
      <point x="607.9" y="755"/>
      <point x="617.9" y="772" type="curve"/>
      <point x="571.9" y="789"/>
      <point x="522.9" y="805"/>
      <point x="474.9" y="805" type="curve"/>
      <point x="360.9" y="805"/>
      <point x="277.9" y="750"/>
      <point x="277.9" y="640" type="curve"/>
      <point x="277.9" y="640"/>
      <point x="277.9" y="0"/>
      <point x="277.9" y="0" type="curve"/>
    </contour>
  </outline>
</glyph>
<glyph name="g" format="1">
  <advance width="695.145"/>
  <unicode hex="0067"/>
  <outline>
    <contour>
      <point x="475.095" y="500"/>
      <point x="462.095" y="517"/>
      <point x="475.095" y="500" type="curve"/>
      <point x="673.095" y="575" type="line"/>
      <point x="660.095" y="597" type="line"/>
      <point x="462.095" y="517" type="line"/>
    </contour>
    <contour>
      <point x="130.095" y="358"/>
      <point x="105.095" y="357"/>
      <point x="130.095" y="358" type="curve"/>
      <point x="130.095" y="466"/>
      <point x="232.095" y="517"/>
      <point x="355.095" y="517" type="curve"/>
      <point x="476.095" y="517"/>
      <point x="574.095" y="469"/>
      <point x="574.095" y="361" type="curve"/>
      <point x="574.095" y="257"/>
      <point x="474.095" y="210"/>
      <point x="352.095" y="210" type="curve"/>
      <point x="233.095" y="210"/>
      <point x="130.095" y="252"/>
      <point x="130.095" y="358" type="curve"/>
      <point x="105.095" y="357"/>
      <point x="130.095" y="358"/>
      <point x="105.095" y="357" type="curve"/>
      <point x="105.095" y="238"/>
      <point x="217.095" y="189"/>
      <point x="350.095" y="189" type="curve"/>
      <point x="486.095" y="189"/>
      <point x="598.095" y="240"/>
      <point x="598.095" y="362" type="curve"/>
      <point x="598.095" y="483"/>
      <point x="489.095" y="538"/>
      <point x="355.095" y="538" type="curve"/>
      <point x="217.095" y="538"/>
      <point x="105.095" y="481"/>
      <point x="105.095" y="357" type="curve"/>
    </contour>
    <contour>
      <point x="213.095" y="227"/>
      <point x="224.095" y="214"/>
      <point x="213.095" y="227" type="curve"/>
      <point x="155.095" y="204"/>
      <point x="111.095" y="170"/>
      <point x="111.095" y="109" type="curve"/>
      <point x="111.095" y="4"/>
      <point x="226.095" y="-5"/>
      <point x="346.095" y="-13" type="curve"/>
      <point x="497.095" y="-23"/>
      <point x="650.095" y="-16"/>
      <point x="650.095" y="-144" type="curve"/>
      <point x="650.095" y="-266"/>
      <point x="503.095" y="-283"/>
      <point x="348.095" y="-283" type="curve"/>
      <point x="203.095" y="-283"/>
      <point x="70.095" y="-251"/>
      <point x="70.095" y="-134" type="curve"/>
      <point x="70.095" y="-54"/>
      <point x="137.095" y="-16"/>
      <point x="216.095" y="9" type="curve"/>
      <point x="204.095" y="22"/>
      <point x="216.095" y="9"/>
      <point x="204.095" y="22" type="curve"/>
      <point x="117.095" y="-4"/>
      <point x="46.095" y="-46"/>
      <point x="46.095" y="-135" type="curve"/>
      <point x="46.095" y="-272"/>
      <point x="188.095" y="-304"/>
      <point x="347.095" y="-304" type="curve"/>
      <point x="516.095" y="-304"/>
      <point x="675.095" y="-287"/>
      <point x="672.095" y="-142" type="curve"/>
      <point x="672.095" y="1"/>
      <point x="512.095" y="-2"/>
      <point x="350.095" y="8" type="curve"/>
      <point x="241.095" y="13"/>
      <point x="135.095" y="16"/>
      <point x="135.095" y="112" type="curve"/>
      <point x="135.095" y="164"/>
      <point x="174.095" y="192"/>
      <point x="224.095" y="214" type="curve"/>
    </contour>
    <contour>
      <point x="357.095" y="671" type="move" name="top"/>
    </contour>
  </outline>
</glyph>
<glyph name="h" format="1">
  <advance width="850.55"/>
  <unicode hex="0068"/>
  <outline>
    <contour>
      <point x="677.35" y="0"/>
      <point x="677.35" y="22"/>
      <point x="677.35" y="0" type="curve"/>
      <point x="733.35" y="0"/>
      <point x="790.35" y="0"/>
      <point x="846.35" y="0" type="curve"/>
      <point x="846.35" y="22"/>
      <point x="846.35" y="0"/>
      <point x="846.35" y="22" type="curve"/>
      <point x="677.35" y="22"/>
      <point x="846.35" y="22"/>
      <point x="677.35" y="22" type="curve"/>
    </contour>
    <contour>
      <point x="176.35" y="0"/>
      <point x="176.35" y="22"/>
      <point x="176.35" y="0" type="curve"/>
      <point x="228.35" y="0"/>
      <point x="176.35" y="0"/>
      <point x="332.35" y="0" type="curve"/>
      <point x="332.35" y="22"/>
      <point x="332.35" y="0"/>
      <point x="332.35" y="22" type="curve"/>
      <point x="176.35" y="22"/>
      <point x="332.35" y="22"/>
      <point x="176.35" y="22" type="curve"/>
    </contour>
    <contour>
      <point x="176.35" y="800"/>
      <point x="176.35" y="778"/>
      <point x="176.35" y="800" type="curve"/>
      <point x="120.35" y="800"/>
      <point x="63.35" y="800"/>
      <point x="7.35" y="800" type="curve"/>
      <point x="7.35" y="778"/>
      <point x="7.35" y="800"/>
      <point x="7.35" y="778" type="curve"/>
      <point x="176.35" y="778"/>
      <point x="7.35" y="778"/>
      <point x="176.35" y="778" type="curve"/>
    </contour>
    <contour>
      <point x="176.35" y="22"/>
      <point x="176.35" y="0"/>
      <point x="176.35" y="22" type="curve"/>
      <point x="7.35" y="22"/>
      <point x="176.35" y="22"/>
      <point x="7.35" y="22" type="curve"/>
      <point x="7.35" y="0"/>
      <point x="7.35" y="22"/>
      <point x="7.35" y="0" type="curve"/>
      <point x="63.35" y="0"/>
      <point x="120.35" y="0"/>
      <point x="176.35" y="0" type="curve"/>
    </contour>
    <contour>
      <point x="183.35" y="354"/>
      <point x="171.35" y="365"/>
      <point x="183.35" y="354" type="curve"/>
      <point x="234.35" y="458"/>
      <point x="345.35" y="516"/>
      <point x="460.35" y="516" type="curve"/>
      <point x="586.35" y="516"/>
      <point x="666.35" y="461"/>
      <point x="666.35" y="341" type="curve"/>
      <point x="666.35" y="228"/>
      <point x="666.35" y="114"/>
      <point x="666.35" y="0" type="curve"/>
      <point x="690.35" y="0"/>
      <point x="666.35" y="0"/>
      <point x="690.35" y="0" type="curve"/>
      <point x="690.35" y="115"/>
      <point x="690.35" y="229"/>
      <point x="690.35" y="344" type="curve"/>
      <point x="690.35" y="477"/>
      <point x="602.35" y="538"/>
      <point x="463.35" y="538" type="curve"/>
      <point x="338.35" y="538"/>
      <point x="217.35" y="481"/>
      <point x="171.35" y="365" type="curve"/>
    </contour>
    <contour>
      <point x="188.35" y="0"/>
      <point x="164.35" y="0"/>
      <point x="188.35" y="0" type="curve"/>
      <point x="188.35" y="267"/>
      <point x="188.35" y="533"/>
      <point x="188.35" y="800" type="curve"/>
      <point x="164.35" y="800"/>
      <point x="188.35" y="800"/>
      <point x="164.35" y="800" type="curve"/>
      <point x="164.35" y="533"/>
      <point x="164.35" y="267"/>
      <point x="164.35" y="0" type="curve"/>
    </contour>
  </outline>
</glyph>
<glyph name="i" format="1">
  <advance width="370.15"/>
  <unicode hex="0069"/>
  <outline>
    <contour>
      <point x="204.7" y="22"/>
      <point x="204.7" y="0"/>
      <point x="204.7" y="22" type="curve"/>
      <point x="35.7" y="22"/>
      <point x="204.7" y="22"/>
      <point x="35.7" y="22" type="curve"/>
      <point x="35.7" y="0"/>
      <point x="35.7" y="22"/>
      <point x="35.7" y="0" type="curve"/>
      <point x="92.7" y="0"/>
      <point x="148.7" y="0"/>
      <point x="204.7" y="0" type="curve"/>
    </contour>
    <contour>
      <point x="204.7" y="0"/>
      <point x="204.7" y="22"/>
      <point x="204.7" y="0" type="curve"/>
      <point x="256.7" y="0"/>
      <point x="308.7" y="0"/>
      <point x="360.7" y="0" type="curve"/>
      <point x="360.7" y="22"/>
      <point x="360.7" y="0"/>
      <point x="360.7" y="22" type="curve"/>
      <point x="204.7" y="22"/>
      <point x="360.7" y="22"/>
      <point x="204.7" y="22" type="curve"/>
    </contour>
    <contour>
      <point x="204.7" y="533"/>
      <point x="204.7" y="511"/>
      <point x="204.7" y="533" type="curve"/>
      <point x="148.7" y="533"/>
      <point x="92.7" y="533"/>
      <point x="35.7" y="533" type="curve"/>
      <point x="35.7" y="511"/>
      <point x="35.7" y="533"/>
      <point x="35.7" y="511" type="curve"/>
      <point x="204.7" y="511"/>
      <point x="35.7" y="511"/>
      <point x="204.7" y="511" type="curve"/>
    </contour>
    <contour>
      <point x="218.7" y="0"/>
      <point x="192.7" y="0"/>
      <point x="218.7" y="0" type="curve"/>
      <point x="218.7" y="178"/>
      <point x="218.7" y="355"/>
      <point x="218.7" y="533" type="curve"/>
      <point x="192.7" y="533"/>
      <point x="218.7" y="533"/>
      <point x="192.7" y="533" type="curve"/>
      <point x="192.7" y="355"/>
      <point x="192.7" y="178"/>
      <point x="192.7" y="0" type="curve"/>
    </contour>
    <contour>
      <point x="199.7" y="684"/>
      <point x="209.7" y="684"/>
      <point x="223.7" y="684" type="curve"/>
      <point x="223.7" y="695"/>
      <point x="215.7" y="702"/>
      <point x="203.7" y="702" type="curve"/>
      <point x="192.7" y="702"/>
      <point x="185.7" y="695"/>
      <point x="185.7" y="684" type="curve"/>
      <point x="199.7" y="684"/>
      <point x="209.7" y="684"/>
      <point x="223.7" y="684" type="curve"/>
      <point x="223.7" y="673"/>
      <point x="215.7" y="666"/>
      <point x="203.7" y="666" type="curve"/>
      <point x="192.7" y="666"/>
      <point x="185.7" y="673"/>
      <point x="185.7" y="684" type="curve"/>
    </contour>
    <contour>
      <point x="204.7" y="669" type="move" name="top"/>
    </contour>
    <contour>
      <point x="218.7" y="0" type="move" name="bottom"/>
    </contour>
  </outline>
</glyph>
<glyph name="j" format="1">
  <advance width="365.1"/>
  <unicode hex="006A"/>
  <outline>
    <contour>
      <point x="243.35" y="533"/>
      <point x="243.35" y="511"/>
      <point x="243.35" y="533" type="curve"/>
      <point x="187.35" y="533"/>
      <point x="131.35" y="533"/>
      <point x="74.35" y="533" type="curve"/>
      <point x="74.35" y="511"/>
      <point x="74.35" y="533"/>
      <point x="74.35" y="511" type="curve"/>
      <point x="243.35" y="511"/>
      <point x="74.35" y="511"/>
      <point x="243.35" y="511" type="curve"/>
    </contour>
    <contour>
      <point x="8.35" y="-301"/>
      <point x="11.35" y="-279"/>
      <point x="7.35" y="-301" type="curve"/>
      <point x="18.35" y="-301"/>
      <point x="32.35" y="-304"/>
      <point x="47.35" y="-304" type="curve"/>
      <point x="162.35" y="-304"/>
      <point x="257.35" y="-253"/>
      <point x="257.35" y="-142" type="curve"/>
      <point x="257.35" y="83"/>
      <point x="257.35" y="308"/>
      <point x="257.35" y="533" type="curve"/>
      <point x="233.35" y="533"/>
      <point x="257.35" y="533"/>
      <point x="233.35" y="533" type="curve"/>
      <point x="233.35" y="308"/>
      <point x="233.35" y="83"/>
      <point x="233.35" y="-142" type="curve"/>
      <point x="233.35" y="-238"/>
      <point x="149.35" y="-282"/>
      <point x="47.35" y="-282" type="curve"/>
      <point x="35.35" y="-282"/>
      <point x="19.35" y="-280"/>
      <point x="11.35" y="-279" type="curve"/>
    </contour>
    <contour>
      <point x="241.35" y="683"/>
      <point x="251.35" y="683"/>
      <point x="265.35" y="683" type="curve"/>
      <point x="265.35" y="694"/>
      <point x="257.35" y="701"/>
      <point x="245.35" y="701" type="curve"/>
      <point x="234.35" y="701"/>
      <point x="227.35" y="694"/>
      <point x="227.35" y="683" type="curve"/>
      <point x="241.35" y="683"/>
      <point x="251.35" y="683"/>
      <point x="265.35" y="683" type="curve"/>
      <point x="265.35" y="672"/>
      <point x="257.35" y="665"/>
      <point x="245.35" y="665" type="curve"/>
      <point x="234.35" y="665"/>
      <point x="227.35" y="672"/>
      <point x="227.35" y="683" type="curve"/>
    </contour>
  </outline>
</glyph>
<glyph name="k" format="1">
  <advance width="768.1"/>
  <unicode hex="006B"/>
  <outline>
    <contour>
      <point x="176.35" y="22"/>
      <point x="176.35" y="0"/>
      <point x="176.35" y="22" type="curve"/>
      <point x="7.35" y="22"/>
      <point x="176.35" y="22"/>
      <point x="7.35" y="22" type="curve"/>
      <point x="7.35" y="0"/>
      <point x="7.35" y="22"/>
      <point x="7.35" y="0" type="curve"/>
      <point x="63.35" y="0"/>
      <point x="119.35" y="0"/>
      <point x="176.35" y="0" type="curve"/>
    </contour>
    <contour>
      <point x="583.35" y="0"/>
      <point x="583.35" y="22"/>
      <point x="583.35" y="0" type="curve"/>
      <point x="639.35" y="0"/>
      <point x="696.35" y="0"/>
      <point x="752.35" y="0" type="curve"/>
      <point x="752.35" y="22"/>
      <point x="752.35" y="0"/>
      <point x="752.35" y="22" type="curve"/>
      <point x="583.35" y="22"/>
      <point x="752.35" y="22"/>
      <point x="583.35" y="22" type="curve"/>
    </contour>
    <contour>
      <point x="548.35" y="511"/>
      <point x="548.35" y="533"/>
      <point x="548.35" y="511" type="curve"/>
      <point x="699.35" y="511"/>
      <point x="548.35" y="511"/>
      <point x="699.35" y="511" type="curve"/>
      <point x="699.35" y="533"/>
      <point x="699.35" y="511"/>
      <point x="699.35" y="533" type="curve"/>
      <point x="649.35" y="533"/>
      <point x="598.35" y="533"/>
      <point x="548.35" y="533" type="curve"/>
    </contour>
    <contour>
      <point x="176.35" y="0"/>
      <point x="176.35" y="22"/>
      <point x="176.35" y="0" type="curve"/>
      <point x="227.35" y="0"/>
      <point x="176.35" y="0"/>
      <point x="329.35" y="0" type="curve"/>
      <point x="329.35" y="22"/>
      <point x="329.35" y="0"/>
      <point x="329.35" y="22" type="curve"/>
      <point x="176.35" y="22"/>
      <point x="329.35" y="22"/>
      <point x="176.35" y="22" type="curve"/>
    </contour>
    <contour>
      <point x="548.35" y="533"/>
      <point x="548.35" y="511"/>
      <point x="548.35" y="533" type="curve"/>
      <point x="496.35" y="533"/>
      <point x="444.35" y="533"/>
      <point x="392.35" y="533" type="curve"/>
      <point x="392.35" y="511"/>
      <point x="392.35" y="533"/>
      <point x="392.35" y="511" type="curve"/>
      <point x="548.35" y="511"/>
      <point x="392.35" y="511"/>
      <point x="548.35" y="511" type="curve"/>
    </contour>
    <contour>
      <point x="179.35" y="800"/>
      <point x="179.35" y="778"/>
      <point x="179.35" y="800" type="curve"/>
      <point x="122.35" y="800"/>
      <point x="66.35" y="800"/>
      <point x="9.35" y="800" type="curve"/>
      <point x="9.35" y="778"/>
      <point x="9.35" y="800"/>
      <point x="9.35" y="778" type="curve"/>
      <point x="179.35" y="778"/>
      <point x="9.35" y="778"/>
      <point x="179.35" y="778" type="curve"/>
    </contour>
    <contour>
      <point x="189.35" y="0"/>
      <point x="165.35" y="0"/>
      <point x="189.35" y="0" type="curve"/>
      <point x="189.35" y="0"/>
      <point x="189.35" y="800"/>
      <point x="189.35" y="800" type="curve"/>
      <point x="165.35" y="800"/>
      <point x="189.35" y="800"/>
      <point x="165.35" y="800" type="curve"/>
      <point x="165.35" y="533"/>
      <point x="165.35" y="267"/>
      <point x="165.35" y="0" type="curve"/>
    </contour>
    <contour>
      <point x="552.35" y="533"/>
      <point x="594.35" y="533"/>
      <point x="552.35" y="533" type="curve"/>
      <point x="178.35" y="275" type="line"/>
      <point x="221.35" y="275"/>
      <point x="178.35" y="275"/>
      <point x="221.35" y="275" type="curve"/>
      <point x="594.35" y="533" type="line"/>
    </contour>
    <contour>
      <point x="630.35" y="0"/>
      <point x="583.35" y="0"/>
      <point x="630.35" y="0" type="curve"/>
      <point x="221.35" y="275" type="line"/>
      <point x="178.35" y="275"/>
      <point x="221.35" y="275"/>
      <point x="178.35" y="275" type="curve"/>
      <point x="583.35" y="0" type="line"/>
    </contour>
    <contour>
      <point x="449.35" y="3" type="move" name="bottom"/>
    </contour>
  </outline>
</glyph>
<glyph name="l" format="1">
  <advance width="354.75"/>
  <unicode hex="006C"/>
  <outline>
    <contour>
      <point x="177.4" y="22"/>
      <point x="177.4" y="0"/>
      <point x="177.4" y="22" type="curve"/>
      <point x="8.4" y="22"/>
      <point x="177.4" y="22"/>
      <point x="8.4" y="22" type="curve"/>
      <point x="8.4" y="0"/>
      <point x="8.4" y="22"/>
      <point x="8.4" y="0" type="curve"/>
      <point x="65.4" y="0"/>
      <point x="121.4" y="0"/>
      <point x="177.4" y="0" type="curve"/>
    </contour>
    <contour>
      <point x="180.4" y="800"/>
      <point x="180.4" y="778"/>
      <point x="180.4" y="800" type="curve"/>
      <point x="124.4" y="800"/>
      <point x="67.4" y="800"/>
      <point x="11.4" y="800" type="curve"/>
      <point x="11.4" y="778"/>
      <point x="11.4" y="800"/>
      <point x="11.4" y="778" type="curve"/>
      <point x="180.4" y="778"/>
      <point x="11.4" y="778"/>
      <point x="180.4" y="778" type="curve"/>
    </contour>
    <contour>
      <point x="177.4" y="0"/>
      <point x="177.4" y="22"/>
      <point x="177.4" y="0" type="curve"/>
      <point x="234.4" y="0"/>
      <point x="290.4" y="0"/>
      <point x="347.4" y="0" type="curve"/>
      <point x="347.4" y="22"/>
      <point x="347.4" y="0"/>
      <point x="347.4" y="22" type="curve"/>
      <point x="177.4" y="22"/>
      <point x="347.4" y="22"/>
      <point x="177.4" y="22" type="curve"/>
    </contour>
    <contour>
      <point x="188.4" y="0"/>
      <point x="164.4" y="0"/>
      <point x="188.4" y="0" type="curve"/>
      <point x="188.4" y="267"/>
      <point x="188.4" y="533"/>
      <point x="188.4" y="800" type="curve"/>
      <point x="164.4" y="800"/>
      <point x="188.4" y="800"/>
      <point x="164.4" y="800" type="curve"/>
      <point x="164.4" y="533"/>
      <point x="164.4" y="267"/>
      <point x="164.4" y="0" type="curve"/>
    </contour>
    <contour>
      <point x="177.4" y="916" type="move" name="top"/>
    </contour>
    <contour>
      <point x="188.4" y="4" type="move" name="bottom"/>
    </contour>
  </outline>
</glyph>
<glyph name="m" format="1">
  <advance width="1275.9"/>
  <unicode hex="006D"/>
  <outline>
    <contour>
      <point x="652.7" y="0"/>
      <point x="652.7" y="22"/>
      <point x="652.7" y="0" type="curve"/>
      <point x="794.7" y="0"/>
      <point x="652.7" y="0"/>
      <point x="794.7" y="0" type="curve"/>
      <point x="794.7" y="22"/>
      <point x="794.7" y="0"/>
      <point x="794.7" y="22" type="curve"/>
      <point x="652.7" y="22"/>
      <point x="794.7" y="22"/>
      <point x="652.7" y="22" type="curve"/>
    </contour>
    <contour>
      <point x="1102.7" y="0"/>
      <point x="1102.7" y="22"/>
      <point x="1102.7" y="0" type="curve"/>
      <point x="1158.7" y="0"/>
      <point x="1215.7" y="0"/>
      <point x="1271.7" y="0" type="curve"/>
      <point x="1271.7" y="22"/>
      <point x="1271.7" y="0"/>
      <point x="1271.7" y="22" type="curve"/>
      <point x="1102.7" y="22"/>
      <point x="1271.7" y="22"/>
      <point x="1102.7" y="22" type="curve"/>
    </contour>
    <contour>
      <point x="204.7" y="22"/>
      <point x="204.7" y="0"/>
      <point x="204.7" y="22" type="curve"/>
      <point x="35.7" y="22"/>
      <point x="204.7" y="22"/>
      <point x="35.7" y="22" type="curve"/>
      <point x="35.7" y="0"/>
      <point x="35.7" y="22"/>
      <point x="35.7" y="0" type="curve"/>
      <point x="91.7" y="0"/>
      <point x="148.7" y="0"/>
      <point x="204.7" y="0" type="curve"/>
    </contour>
    <contour>
      <point x="204.7" y="0"/>
      <point x="204.7" y="22"/>
      <point x="204.7" y="0" type="curve"/>
      <point x="251.7" y="0"/>
      <point x="204.7" y="0"/>
      <point x="346.7" y="0" type="curve"/>
      <point x="346.7" y="22"/>
      <point x="346.7" y="0"/>
      <point x="346.7" y="22" type="curve"/>
      <point x="204.7" y="22"/>
      <point x="346.7" y="22"/>
      <point x="204.7" y="22" type="curve"/>
    </contour>
    <contour>
      <point x="204.7" y="533"/>
      <point x="204.7" y="511"/>
      <point x="204.7" y="533" type="curve"/>
      <point x="148.7" y="533"/>
      <point x="91.7" y="533"/>
      <point x="35.7" y="533" type="curve"/>
      <point x="35.7" y="511"/>
      <point x="35.7" y="533"/>
      <point x="35.7" y="511" type="curve"/>
      <point x="204.7" y="511"/>
      <point x="35.7" y="511"/>
      <point x="204.7" y="511" type="curve"/>
    </contour>
    <contour>
      <point x="659.7" y="354"/>
      <point x="647.7" y="365"/>
      <point x="659.7" y="354" type="curve"/>
      <point x="709.7" y="458"/>
      <point x="795.7" y="516"/>
      <point x="907.7" y="516" type="curve"/>
      <point x="1029.7" y="516"/>
      <point x="1088.7" y="464"/>
      <point x="1088.7" y="341" type="curve"/>
      <point x="1088.7" y="228"/>
      <point x="1088.7" y="114"/>
      <point x="1088.7" y="0" type="curve"/>
      <point x="1113.7" y="0"/>
      <point x="1088.7" y="0"/>
      <point x="1113.7" y="0" type="curve"/>
      <point x="1113.7" y="115"/>
      <point x="1113.7" y="229"/>
      <point x="1113.7" y="344" type="curve"/>
      <point x="1113.7" y="478"/>
      <point x="1047.7" y="538"/>
      <point x="912.7" y="538" type="curve"/>
      <point x="790.7" y="538"/>
      <point x="692.7" y="480"/>
      <point x="647.7" y="365" type="curve"/>
    </contour>
    <contour>
      <point x="211.7" y="354"/>
      <point x="199.7" y="365"/>
      <point x="211.7" y="354" type="curve"/>
      <point x="262.7" y="459"/>
      <point x="346.7" y="516"/>
      <point x="458.7" y="516" type="curve"/>
      <point x="579.7" y="516"/>
      <point x="640.7" y="464"/>
      <point x="640.7" y="341" type="curve"/>
      <point x="640.7" y="228"/>
      <point x="640.7" y="114"/>
      <point x="640.7" y="0" type="curve"/>
      <point x="664.7" y="0"/>
      <point x="640.7" y="0"/>
      <point x="664.7" y="0" type="curve"/>
      <point x="664.7" y="115"/>
      <point x="664.7" y="229"/>
      <point x="664.7" y="344" type="curve"/>
      <point x="664.7" y="478"/>
      <point x="599.7" y="538"/>
      <point x="464.7" y="538" type="curve"/>
      <point x="341.7" y="538"/>
      <point x="245.7" y="481"/>
      <point x="199.7" y="365" type="curve"/>
    </contour>
    <contour>
      <point x="216.7" y="0"/>
      <point x="192.7" y="0"/>
      <point x="216.7" y="0" type="curve"/>
      <point x="216.7" y="178"/>
      <point x="216.7" y="355"/>
      <point x="216.7" y="533" type="curve"/>
      <point x="192.7" y="533"/>
      <point x="216.7" y="533"/>
      <point x="192.7" y="533" type="curve"/>
      <point x="192.7" y="355"/>
      <point x="192.7" y="178"/>
      <point x="192.7" y="0" type="curve"/>
    </contour>
  </outline>
</glyph>
<glyph name="p" format="1">
  <advance width="830.5"/>
  <unicode hex="0070"/>
  <outline>
    <contour>
      <point x="185.3" y="-278"/>
      <point x="185.3" y="-299"/>
      <point x="185.3" y="-278" type="curve"/>
      <point x="6.3" y="-278"/>
      <point x="185.3" y="-278"/>
      <point x="6.3" y="-278" type="curve"/>
      <point x="6.3" y="-299"/>
      <point x="6.3" y="-278"/>
      <point x="6.3" y="-299" type="curve"/>
      <point x="66.3" y="-299"/>
      <point x="126.3" y="-299"/>
      <point x="185.3" y="-299" type="curve"/>
    </contour>
    <contour>
      <point x="185.3" y="-300"/>
      <point x="185.3" y="-279"/>
      <point x="185.3" y="-300" type="curve"/>
      <point x="240.3" y="-300"/>
      <point x="296.3" y="-300"/>
      <point x="351.3" y="-300" type="curve"/>
      <point x="351.3" y="-278"/>
      <point x="351.3" y="-300"/>
      <point x="351.3" y="-278" type="curve"/>
      <point x="185.3" y="-279"/>
      <point x="351.3" y="-278"/>
      <point x="185.3" y="-279" type="curve"/>
    </contour>
    <contour>
      <point x="187.3" y="533"/>
      <point x="187.3" y="512"/>
      <point x="187.3" y="533" type="curve"/>
      <point x="127.3" y="533"/>
      <point x="67.3" y="533"/>
      <point x="8.3" y="533" type="curve"/>
      <point x="8.3" y="511"/>
      <point x="8.3" y="533"/>
      <point x="8.3" y="511" type="curve"/>
      <point x="187.3" y="512"/>
      <point x="8.3" y="511"/>
      <point x="187.3" y="512" type="curve"/>
    </contour>
    <contour>
      <point x="191.3" y="423"/>
      <point x="179.3" y="437"/>
      <point x="191.3" y="423" type="curve"/>
      <point x="248.3" y="476"/>
      <point x="355.3" y="516"/>
      <point x="470.3" y="516" type="curve"/>
      <point x="628.3" y="516"/>
      <point x="740.3" y="426"/>
      <point x="740.3" y="276" type="curve"/>
      <point x="744.3" y="117"/>
      <point x="633.3" y="15"/>
      <point x="472.3" y="17" type="curve"/>
      <point x="361.3" y="17"/>
      <point x="281.3" y="54"/>
      <point x="193.3" y="122" type="curve"/>
      <point x="178.3" y="111"/>
      <point x="193.3" y="122"/>
      <point x="178.3" y="111" type="curve"/>
      <point x="269.3" y="35"/>
      <point x="354.3" y="-5"/>
      <point x="472.3" y="-5" type="curve"/>
      <point x="645.3" y="-5"/>
      <point x="764.3" y="106"/>
      <point x="763.3" y="277" type="curve"/>
      <point x="763.3" y="440"/>
      <point x="640.3" y="538"/>
      <point x="471.3" y="538" type="curve"/>
      <point x="351.3" y="538"/>
      <point x="241.3" y="495"/>
      <point x="179.3" y="437" type="curve"/>
    </contour>
    <contour>
      <point x="198.3" y="-300"/>
      <point x="174.3" y="-300"/>
      <point x="198.3" y="-300" type="curve"/>
      <point x="198.3" y="-22"/>
      <point x="198.3" y="255"/>
      <point x="198.3" y="533" type="curve"/>
      <point x="174.3" y="533"/>
      <point x="198.3" y="533"/>
      <point x="174.3" y="533" type="curve"/>
      <point x="174.3" y="255"/>
      <point x="174.3" y="-22"/>
      <point x="174.3" y="-300" type="curve"/>
    </contour>
  </outline>
</glyph>
<glyph name="q" format="1">
  <advance width="814.45"/>
  <unicode hex="0071"/>
  <outline>
    <contour>
      <point x="652.1" y="511"/>
      <point x="652.1" y="533"/>
      <point x="652.1" y="511" type="curve"/>
      <point x="807.1" y="511"/>
      <point x="652.1" y="511"/>
      <point x="807.1" y="511" type="curve"/>
      <point x="807.1" y="533"/>
      <point x="807.1" y="511"/>
      <point x="807.1" y="533" type="curve"/>
      <point x="756.1" y="533"/>
      <point x="704.1" y="533"/>
      <point x="652.1" y="533" type="curve"/>
    </contour>
    <contour>
      <point x="652.1" y="-279"/>
      <point x="652.1" y="-300"/>
      <point x="652.1" y="-279" type="curve"/>
      <point x="483.1" y="-278"/>
      <point x="652.1" y="-279"/>
      <point x="483.1" y="-278" type="curve"/>
      <point x="483.1" y="-300"/>
      <point x="483.1" y="-278"/>
      <point x="483.1" y="-300" type="curve"/>
      <point x="539.1" y="-300"/>
      <point x="596.1" y="-300"/>
      <point x="652.1" y="-300" type="curve"/>
    </contour>
    <contour>
      <point x="652.1" y="-300"/>
      <point x="652.1" y="-279"/>
      <point x="652.1" y="-300" type="curve"/>
      <point x="704.1" y="-300"/>
      <point x="756.1" y="-300"/>
      <point x="807.1" y="-300" type="curve"/>
      <point x="807.1" y="-278"/>
      <point x="807.1" y="-300"/>
      <point x="807.1" y="-278" type="curve"/>
      <point x="652.1" y="-279"/>
      <point x="807.1" y="-278"/>
      <point x="652.1" y="-279" type="curve"/>
    </contour>
    <contour>
      <point x="661.1" y="442"/>
      <point x="645.1" y="429"/>
      <point x="658.1" y="444" type="curve"/>
      <point x="576.1" y="503"/>
      <point x="467.1" y="538"/>
      <point x="362.1" y="538" type="curve"/>
      <point x="186.1" y="538"/>
      <point x="65.1" y="436"/>
      <point x="65.1" y="264" type="curve"/>
      <point x="65.1" y="92"/>
      <point x="190.1" y="-5"/>
      <point x="366.1" y="-5" type="curve"/>
      <point x="477.1" y="-5"/>
      <point x="583.1" y="42"/>
      <point x="656.1" y="121" type="curve"/>
      <point x="640.1" y="135"/>
      <point x="661.1" y="126"/>
      <point x="646.1" y="140" type="curve"/>
      <point x="572.1" y="60"/>
      <point x="472.1" y="17"/>
      <point x="366.1" y="17" type="curve"/>
      <point x="206.1" y="17"/>
      <point x="90.1" y="107"/>
      <point x="90.1" y="265" type="curve"/>
      <point x="90.1" y="423"/>
      <point x="202.1" y="516"/>
      <point x="363.1" y="516" type="curve"/>
      <point x="463.1" y="516"/>
      <point x="566.1" y="481"/>
      <point x="648.1" y="427" type="curve"/>
    </contour>
    <contour>
      <point x="663.1" y="-300"/>
      <point x="637.1" y="-300"/>
      <point x="663.1" y="-300" type="curve"/>
      <point x="663.1" y="-22"/>
      <point x="663.1" y="255"/>
      <point x="663.1" y="533" type="curve"/>
      <point x="637.1" y="533"/>
      <point x="663.1" y="533"/>
      <point x="637.1" y="533" type="curve"/>
      <point x="637.1" y="255"/>
      <point x="637.1" y="-22"/>
      <point x="637.1" y="-300" type="curve"/>
    </contour>
  </outline>
</glyph>
<glyph name="r" format="1">
  <advance width="573.2"/>
  <unicode hex="0072"/>
  <outline>
    <contour>
      <point x="205.7" y="0"/>
      <point x="205.7" y="22"/>
      <point x="205.7" y="0" type="curve"/>
      <point x="257.7" y="0"/>
      <point x="309.7" y="0"/>
      <point x="361.7" y="0" type="curve"/>
      <point x="361.7" y="22"/>
      <point x="361.7" y="0"/>
      <point x="361.7" y="22" type="curve"/>
      <point x="205.7" y="22"/>
      <point x="361.7" y="22"/>
      <point x="205.7" y="22" type="curve"/>
    </contour>
    <contour>
      <point x="205.7" y="22"/>
      <point x="205.7" y="0"/>
      <point x="205.7" y="22" type="curve"/>
      <point x="36.7" y="22"/>
      <point x="205.7" y="22"/>
      <point x="36.7" y="22" type="curve"/>
      <point x="36.7" y="0"/>
      <point x="36.7" y="22"/>
      <point x="36.7" y="0" type="curve"/>
      <point x="92.7" y="0"/>
      <point x="149.7" y="0"/>
      <point x="205.7" y="0" type="curve"/>
    </contour>
    <contour>
      <point x="204.7" y="533"/>
      <point x="204.7" y="511"/>
      <point x="204.7" y="533" type="curve"/>
      <point x="147.7" y="533"/>
      <point x="91.7" y="533"/>
      <point x="35.7" y="533" type="curve"/>
      <point x="35.7" y="511"/>
      <point x="35.7" y="533"/>
      <point x="35.7" y="511" type="curve"/>
      <point x="204.7" y="511"/>
      <point x="35.7" y="511"/>
      <point x="204.7" y="511" type="curve"/>
    </contour>
    <contour>
      <point x="217.7" y="0"/>
      <point x="193.7" y="0"/>
      <point x="217.7" y="0" type="curve"/>
      <point x="217.7" y="178"/>
      <point x="217.7" y="355"/>
      <point x="217.7" y="533" type="curve"/>
      <point x="193.7" y="533"/>
      <point x="217.7" y="533"/>
      <point x="193.7" y="533" type="curve"/>
      <point x="193.7" y="355"/>
      <point x="193.7" y="178"/>
      <point x="193.7" y="0" type="curve"/>
    </contour>
    <contour>
      <point x="217.7" y="356"/>
      <point x="198.7" y="370"/>
      <point x="211.7" y="352" type="curve"/>
      <point x="283.7" y="480"/>
      <point x="408.7" y="516"/>
      <point x="541.7" y="516" type="curve"/>
      <point x="541.7" y="538"/>
      <point x="541.7" y="516"/>
      <point x="541.7" y="538" type="curve"/>
      <point x="402.7" y="538"/>
      <point x="259.7" y="491"/>
      <point x="204.7" y="374" type="curve"/>
    </contour>
    <contour>
      <point x="210.7" y="671" type="move" name="top"/>
    </contour>
    <contour>
      <point x="243.7" y="3" type="move" name="bottom"/>
    </contour>
  </outline>
</glyph>
<glyph name="s" format="1">
  <advance width="592.25"/>
  <unicode hex="0073"/>
  <outline>
    <contour>
      <point x="65.1" y="52"/>
      <point x="80.1" y="71"/>
      <point x="67.1" y="51" type="curve"/>
      <point x="150.1" y="19"/>
      <point x="225.1" y="-5"/>
      <point x="310.1" y="-5" type="curve"/>
      <point x="433.1" y="-5"/>
      <point x="526.1" y="28"/>
      <point x="526.1" y="140" type="curve"/>
      <point x="525.1" y="253"/>
      <point x="418.1" y="259"/>
      <point x="300.1" y="287" type="curve"/>
      <point x="204.1" y="309"/>
      <point x="120.1" y="329"/>
      <point x="120.1" y="414" type="curve"/>
      <point x="120.1" y="496"/>
      <point x="192.1" y="516"/>
      <point x="286.1" y="516" type="curve"/>
      <point x="352.1" y="516"/>
      <point x="431.1" y="494"/>
      <point x="477.1" y="471" type="curve"/>
      <point x="488.1" y="490"/>
      <point x="477.1" y="471"/>
      <point x="488.1" y="490" type="curve"/>
      <point x="439.1" y="514"/>
      <point x="356.1" y="538"/>
      <point x="287.1" y="538" type="curve"/>
      <point x="179.1" y="538"/>
      <point x="98.1" y="511"/>
      <point x="98.1" y="414" type="curve"/>
      <point x="98.1" y="313"/>
      <point x="185.1" y="291"/>
      <point x="292.1" y="266" type="curve"/>
      <point x="399.1" y="239"/>
      <point x="503.1" y="238"/>
      <point x="503.1" y="140" type="curve"/>
      <point x="503.1" y="43"/>
      <point x="420.1" y="17"/>
      <point x="314.1" y="17" type="curve"/>
      <point x="231.1" y="17"/>
      <point x="160.1" y="41"/>
      <point x="78.1" y="72" type="curve"/>
    </contour>
    <contour>
      <point x="466.1" y="490"/>
      <point x="488.1" y="490"/>
      <point x="466.1" y="490" type="curve"/>
      <point x="466.1" y="370"/>
      <point x="466.1" y="490"/>
      <point x="466.1" y="370" type="curve"/>
      <point x="488.1" y="370"/>
      <point x="466.1" y="370"/>
      <point x="488.1" y="370" type="curve"/>
      <point x="488.1" y="490"/>
      <point x="488.1" y="370"/>
      <point x="488.1" y="490" type="curve"/>
    </contour>
    <contour>
      <point x="86.1" y="51"/>
      <point x="65.1" y="51"/>
      <point x="86.1" y="51" type="curve"/>
      <point x="86.1" y="171"/>
      <point x="86.1" y="51"/>
      <point x="86.1" y="171" type="curve"/>
      <point x="65.1" y="171"/>
      <point x="86.1" y="171"/>
      <point x="65.1" y="171" type="curve"/>
      <point x="65.1" y="51"/>
      <point x="65.1" y="171"/>
      <point x="65.1" y="51" type="curve"/>
    </contour>
    <contour>
      <point x="288.1" y="671" type="move" name="top"/>
    </contour>
    <contour>
      <point x="330.1" y="-1" type="move" name="bottom"/>
    </contour>
  </outline>
</glyph>
<glyph name="t" format="1">
  <advance width="570.315"/>
  <unicode hex="0074"/>
  <outline>
    <contour>
      <point x="21.105" y="511"/>
      <point x="21.105" y="533"/>
      <point x="21.105" y="511" type="curve"/>
      <point x="21.105" y="511"/>
      <point x="549.105" y="511"/>
      <point x="549.105" y="511" type="curve"/>
      <point x="549.105" y="533"/>
      <point x="549.105" y="511"/>
      <point x="549.105" y="533" type="curve"/>
      <point x="549.105" y="533"/>
      <point x="21.105" y="533"/>
      <point x="21.105" y="533" type="curve"/>
    </contour>
    <contour>
      <point x="518.105" y="48"/>
      <point x="527.105" y="28"/>
      <point x="518.105" y="48" type="curve"/>
      <point x="470.105" y="29"/>
      <point x="435.105" y="17"/>
      <point x="384.105" y="17" type="curve"/>
      <point x="294.105" y="17"/>
      <point x="241.105" y="54"/>
      <point x="241.105" y="145" type="curve"/>
      <point x="241.105" y="145"/>
      <point x="241.105" y="672"/>
      <point x="241.105" y="672" type="curve"/>
      <point x="217.105" y="658"/>
      <point x="241.105" y="672"/>
      <point x="217.105" y="658" type="curve"/>
      <point x="217.105" y="658"/>
      <point x="217.105" y="143"/>
      <point x="217.105" y="143" type="curve"/>
      <point x="217.105" y="42"/>
      <point x="280.105" y="-5"/>
      <point x="382.105" y="-5" type="curve"/>
      <point x="437.105" y="-5"/>
      <point x="474.105" y="9"/>
      <point x="527.105" y="28" type="curve"/>
    </contour>
    <contour>
      <point x="395.105" y="0" type="move" name="bottom"/>
    </contour>
  </outline>
</glyph>
<glyph name="v" format="1">
  <advance width="893.15"/>
  <unicode hex="0076"/>
  <outline>
    <contour>
      <point x="170.05" y="533"/>
      <point x="170.05" y="511"/>
      <point x="170.05" y="533" type="curve"/>
      <point x="114.05" y="533"/>
      <point x="57.05" y="533"/>
      <point x="1.05" y="533" type="curve"/>
      <point x="1.05" y="511"/>
      <point x="1.05" y="533"/>
      <point x="1.05" y="511" type="curve"/>
      <point x="170.05" y="511"/>
      <point x="1.05" y="511"/>
      <point x="170.05" y="511" type="curve"/>
    </contour>
    <contour>
      <point x="170.05" y="511"/>
      <point x="170.05" y="533"/>
      <point x="170.05" y="511" type="curve"/>
      <point x="339.05" y="511"/>
      <point x="170.05" y="511"/>
      <point x="339.05" y="511" type="curve"/>
      <point x="339.05" y="533"/>
      <point x="339.05" y="511"/>
      <point x="339.05" y="533" type="curve"/>
      <point x="283.05" y="533"/>
      <point x="227.05" y="533"/>
      <point x="170.05" y="533" type="curve"/>
    </contour>
    <contour>
      <point x="722.05" y="533"/>
      <point x="722.05" y="511"/>
      <point x="722.05" y="533" type="curve"/>
      <point x="666.05" y="533"/>
      <point x="610.05" y="533"/>
      <point x="553.05" y="533" type="curve"/>
      <point x="553.05" y="511"/>
      <point x="553.05" y="533"/>
      <point x="553.05" y="511" type="curve"/>
      <point x="722.05" y="511"/>
      <point x="553.05" y="511"/>
      <point x="722.05" y="511" type="curve"/>
    </contour>
    <contour>
      <point x="722.05" y="511"/>
      <point x="722.05" y="533"/>
      <point x="722.05" y="511" type="curve"/>
      <point x="891.05" y="511"/>
      <point x="722.05" y="511"/>
      <point x="891.05" y="511" type="curve"/>
      <point x="891.05" y="533"/>
      <point x="891.05" y="511"/>
      <point x="891.05" y="533" type="curve"/>
      <point x="835.05" y="533"/>
      <point x="779.05" y="533"/>
      <point x="722.05" y="533" type="curve"/>
    </contour>
    <contour>
      <point x="144.05" y="533"/>
      <point x="171.05" y="533"/>
      <point x="144.05" y="533" type="curve"/>
      <point x="237.05" y="355"/>
      <point x="331.05" y="178"/>
      <point x="424.05" y="0" type="curve"/>
      <point x="449.05" y="0"/>
      <point x="424.05" y="0"/>
      <point x="449.05" y="0" type="curve"/>
      <point x="356.05" y="178"/>
      <point x="264.05" y="355"/>
      <point x="171.05" y="533" type="curve"/>
    </contour>
    <contour>
      <point x="724.05" y="533"/>
      <point x="749.05" y="533"/>
      <point x="724.05" y="533" type="curve"/>
      <point x="724.05" y="533"/>
      <point x="430.05" y="0"/>
      <point x="430.05" y="0" type="curve"/>
      <point x="455.05" y="0"/>
      <point x="430.05" y="0"/>
      <point x="455.05" y="0" type="curve"/>
      <point x="553.05" y="178"/>
      <point x="651.05" y="355"/>
      <point x="749.05" y="533" type="curve"/>
    </contour>
  </outline>
</glyph>
<glyph name="w" format="1">
  <advance width="1333.15"/>
  <unicode hex="0077"/>
  <outline>
    <contour>
      <point x="1162.05" y="511"/>
      <point x="1162.05" y="533"/>
      <point x="1162.05" y="511" type="curve"/>
      <point x="1331.05" y="511"/>
      <point x="1162.05" y="511"/>
      <point x="1331.05" y="511" type="curve"/>
      <point x="1331.05" y="533"/>
      <point x="1331.05" y="511"/>
      <point x="1331.05" y="533" type="curve"/>
      <point x="1275.05" y="533"/>
      <point x="1218.05" y="533"/>
      <point x="1162.05" y="533" type="curve"/>
    </contour>
    <contour>
      <point x="1162.05" y="533"/>
      <point x="1162.05" y="511"/>
      <point x="1162.05" y="533" type="curve"/>
      <point x="1106.05" y="533"/>
      <point x="1049.05" y="533"/>
      <point x="993.05" y="533" type="curve"/>
      <point x="993.05" y="511"/>
      <point x="993.05" y="533"/>
      <point x="993.05" y="511" type="curve"/>
      <point x="1162.05" y="511"/>
      <point x="993.05" y="511"/>
      <point x="1162.05" y="511" type="curve"/>
    </contour>
    <contour>
      <point x="170.05" y="533"/>
      <point x="170.05" y="511"/>
      <point x="170.05" y="533" type="curve"/>
      <point x="114.05" y="533"/>
      <point x="57.05" y="533"/>
      <point x="1.05" y="533" type="curve"/>
      <point x="1.05" y="511"/>
      <point x="1.05" y="533"/>
      <point x="1.05" y="511" type="curve"/>
      <point x="170.05" y="511"/>
      <point x="1.05" y="511"/>
      <point x="170.05" y="511" type="curve"/>
    </contour>
    <contour>
      <point x="170.05" y="511"/>
      <point x="170.05" y="533"/>
      <point x="170.05" y="511" type="curve"/>
      <point x="339.05" y="511"/>
      <point x="170.05" y="511"/>
      <point x="339.05" y="511" type="curve"/>
      <point x="339.05" y="533"/>
      <point x="339.05" y="511"/>
      <point x="339.05" y="533" type="curve"/>
      <point x="283.05" y="533"/>
      <point x="226.05" y="533"/>
      <point x="170.05" y="533" type="curve"/>
    </contour>
    <contour>
      <point x="410.05" y="0"/>
      <point x="387.05" y="0"/>
      <point x="410.05" y="0" type="curve"/>
      <point x="502.05" y="178"/>
      <point x="593.05" y="355"/>
      <point x="684.05" y="533" type="curve"/>
      <point x="658.05" y="533"/>
      <point x="684.05" y="533"/>
      <point x="658.05" y="533" type="curve"/>
      <point x="568.05" y="355"/>
      <point x="477.05" y="178"/>
      <point x="387.05" y="0" type="curve"/>
    </contour>
    <contour>
      <point x="1167.05" y="533"/>
      <point x="1193.05" y="533"/>
      <point x="1167.05" y="533" type="curve"/>
      <point x="1082.05" y="355"/>
      <point x="998.05" y="178"/>
      <point x="914.05" y="0" type="curve"/>
      <point x="937.05" y="0"/>
      <point x="914.05" y="0"/>
      <point x="937.05" y="0" type="curve"/>
      <point x="1022.05" y="178"/>
      <point x="1107.05" y="355"/>
      <point x="1193.05" y="533" type="curve"/>
    </contour>
    <contour>
      <point x="666.05" y="533"/>
      <point x="691.05" y="533"/>
      <point x="666.05" y="533" type="curve"/>
      <point x="748.05" y="355"/>
      <point x="830.05" y="178"/>
      <point x="912.05" y="0" type="curve"/>
      <point x="935.05" y="0"/>
      <point x="912.05" y="0"/>
      <point x="935.05" y="0" type="curve"/>
      <point x="854.05" y="178"/>
      <point x="772.05" y="355"/>
      <point x="691.05" y="533" type="curve"/>
    </contour>
    <contour>
      <point x="140.05" y="533"/>
      <point x="166.05" y="533"/>
      <point x="140.05" y="533" type="curve"/>
      <point x="222.05" y="355"/>
      <point x="304.05" y="178"/>
      <point x="386.05" y="0" type="curve"/>
      <point x="409.05" y="0"/>
      <point x="386.05" y="0"/>
      <point x="409.05" y="0" type="curve"/>
      <point x="328.05" y="178"/>
      <point x="247.05" y="355"/>
      <point x="166.05" y="533" type="curve"/>
    </contour>
  </outline>
</glyph>
<glyph name="x" format="1">
  <advance width="905.55"/>
  <unicode hex="0078"/>
  <outline>
    <contour>
      <point x="174.25" y="22"/>
      <point x="174.25" y="0"/>
      <point x="174.25" y="22" type="curve"/>
      <point x="5.25" y="22"/>
      <point x="174.25" y="22"/>
      <point x="5.25" y="22" type="curve"/>
      <point x="5.25" y="0"/>
      <point x="5.25" y="22"/>
      <point x="5.25" y="0" type="curve"/>
      <point x="61.25" y="0"/>
      <point x="117.25" y="0"/>
      <point x="174.25" y="0" type="curve"/>
    </contour>
    <contour>
      <point x="730.25" y="22"/>
      <point x="730.25" y="0"/>
      <point x="730.25" y="22" type="curve"/>
      <point x="561.25" y="22"/>
      <point x="730.25" y="22"/>
      <point x="561.25" y="22" type="curve"/>
      <point x="561.25" y="0"/>
      <point x="561.25" y="22"/>
      <point x="561.25" y="0" type="curve"/>
      <point x="617.25" y="0"/>
      <point x="673.25" y="0"/>
      <point x="730.25" y="0" type="curve"/>
    </contour>
    <contour>
      <point x="730.25" y="0"/>
      <point x="730.25" y="22"/>
      <point x="730.25" y="0" type="curve"/>
      <point x="786.25" y="0"/>
      <point x="843.25" y="0"/>
      <point x="899.25" y="0" type="curve"/>
      <point x="899.25" y="22"/>
      <point x="899.25" y="0"/>
      <point x="899.25" y="22" type="curve"/>
      <point x="730.25" y="22"/>
      <point x="899.25" y="22"/>
      <point x="730.25" y="22" type="curve"/>
    </contour>
    <contour>
      <point x="174.25" y="0"/>
      <point x="174.25" y="22"/>
      <point x="174.25" y="0" type="curve"/>
      <point x="230.25" y="0"/>
      <point x="174.25" y="0"/>
      <point x="343.25" y="0" type="curve"/>
      <point x="343.25" y="22"/>
      <point x="343.25" y="0"/>
      <point x="343.25" y="22" type="curve"/>
      <point x="174.25" y="22"/>
      <point x="343.25" y="22"/>
      <point x="174.25" y="22" type="curve"/>
    </contour>
    <contour>
      <point x="708.25" y="511"/>
      <point x="708.25" y="533"/>
      <point x="708.25" y="511" type="curve"/>
      <point x="877.25" y="511"/>
      <point x="708.25" y="511"/>
      <point x="877.25" y="511" type="curve"/>
      <point x="877.25" y="533"/>
      <point x="877.25" y="511"/>
      <point x="877.25" y="533" type="curve"/>
      <point x="821.25" y="533"/>
      <point x="765.25" y="533"/>
      <point x="708.25" y="533" type="curve"/>
    </contour>
    <contour>
      <point x="201.25" y="533"/>
      <point x="201.25" y="511"/>
      <point x="201.25" y="533" type="curve"/>
      <point x="144.25" y="533"/>
      <point x="88.25" y="533"/>
      <point x="32.25" y="533" type="curve"/>
      <point x="32.25" y="511"/>
      <point x="32.25" y="533"/>
      <point x="32.25" y="511" type="curve"/>
      <point x="201.25" y="511"/>
      <point x="32.25" y="511"/>
      <point x="201.25" y="511" type="curve"/>
    </contour>
    <contour>
      <point x="201.25" y="511"/>
      <point x="201.25" y="533"/>
      <point x="201.25" y="511" type="curve"/>
      <point x="370.25" y="511"/>
      <point x="201.25" y="511"/>
      <point x="370.25" y="511" type="curve"/>
      <point x="370.25" y="533"/>
      <point x="370.25" y="511"/>
      <point x="370.25" y="533" type="curve"/>
      <point x="313.25" y="533"/>
      <point x="257.25" y="533"/>
      <point x="201.25" y="533" type="curve"/>
    </contour>
    <contour>
      <point x="708.25" y="533"/>
      <point x="708.25" y="511"/>
      <point x="708.25" y="533" type="curve"/>
      <point x="652.25" y="533"/>
      <point x="595.25" y="533"/>
      <point x="539.25" y="533" type="curve"/>
      <point x="539.25" y="511"/>
      <point x="539.25" y="533"/>
      <point x="539.25" y="511" type="curve"/>
      <point x="708.25" y="511"/>
      <point x="539.25" y="511"/>
      <point x="708.25" y="511" type="curve"/>
    </contour>
    <contour>
      <point x="763.25" y="0"/>
      <point x="730.25" y="0"/>
      <point x="763.25" y="0" type="curve"/>
      <point x="575.25" y="178"/>
      <point x="388.25" y="355"/>
      <point x="200.25" y="533" type="curve"/>
      <point x="170.25" y="533"/>
      <point x="200.25" y="533"/>
      <point x="170.25" y="533" type="curve"/>
      <point x="357.25" y="355"/>
      <point x="544.25" y="178"/>
      <point x="730.25" y="0" type="curve"/>
    </contour>
    <contour>
      <point x="711.25" y="533"/>
      <point x="741.25" y="533"/>
      <point x="711.25" y="533" type="curve"/>
      <point x="522.25" y="355"/>
      <point x="332.25" y="178"/>
      <point x="142.25" y="0" type="curve"/>
      <point x="175.25" y="0"/>
      <point x="142.25" y="0"/>
      <point x="175.25" y="0" type="curve"/>
      <point x="363.25" y="178"/>
      <point x="552.25" y="355"/>
      <point x="741.25" y="533" type="curve"/>
    </contour>
  </outline>
</glyph>
<glyph name="y" format="1">
  <advance width="986.55"/>
  <unicode hex="0079"/>
  <outline>
    <contour>
      <point x="291.25" y="-278"/>
      <point x="291.25" y="-300"/>
      <point x="291.25" y="-278" type="curve"/>
      <point x="126.25" y="-278"/>
      <point x="291.25" y="-278"/>
      <point x="126.25" y="-278" type="curve"/>
      <point x="126.25" y="-300"/>
      <point x="126.25" y="-278"/>
      <point x="126.25" y="-300" type="curve"/>
      <point x="182.25" y="-300"/>
      <point x="236.25" y="-300"/>
      <point x="291.25" y="-300" type="curve"/>
    </contour>
    <contour>
      <point x="174.25" y="533"/>
      <point x="174.25" y="511"/>
      <point x="174.25" y="533" type="curve"/>
      <point x="118.25" y="533"/>
      <point x="62.25" y="533"/>
      <point x="5.25" y="533" type="curve"/>
      <point x="5.25" y="511"/>
      <point x="5.25" y="533"/>
      <point x="5.25" y="511" type="curve"/>
      <point x="174.25" y="511"/>
      <point x="5.25" y="511"/>
      <point x="174.25" y="511" type="curve"/>
    </contour>
    <contour>
      <point x="174.25" y="511"/>
      <point x="174.25" y="533"/>
      <point x="174.25" y="511" type="curve"/>
      <point x="343.25" y="511"/>
      <point x="174.25" y="511"/>
      <point x="343.25" y="511" type="curve"/>
      <point x="343.25" y="533"/>
      <point x="343.25" y="511"/>
      <point x="343.25" y="533" type="curve"/>
      <point x="287.25" y="533"/>
      <point x="231.25" y="533"/>
      <point x="174.25" y="533" type="curve"/>
    </contour>
    <contour>
      <point x="811.25" y="533"/>
      <point x="811.25" y="511"/>
      <point x="811.25" y="533" type="curve"/>
      <point x="755.25" y="533"/>
      <point x="698.25" y="533"/>
      <point x="642.25" y="533" type="curve"/>
      <point x="642.25" y="511"/>
      <point x="642.25" y="533"/>
      <point x="642.25" y="511" type="curve"/>
      <point x="811.25" y="511"/>
      <point x="642.25" y="511"/>
      <point x="811.25" y="511" type="curve"/>
    </contour>
    <contour>
      <point x="811.25" y="511"/>
      <point x="811.25" y="533"/>
      <point x="811.25" y="511" type="curve"/>
      <point x="980.25" y="511"/>
      <point x="811.25" y="511"/>
      <point x="980.25" y="511" type="curve"/>
      <point x="980.25" y="533"/>
      <point x="980.25" y="511"/>
      <point x="980.25" y="533" type="curve"/>
      <point x="924.25" y="533"/>
      <point x="867.25" y="533"/>
      <point x="811.25" y="533" type="curve"/>
    </contour>
    <contour>
      <point x="491.25" y="4"/>
      <point x="468.25" y="9"/>
      <point x="491.25" y="9" type="curve"/>
      <point x="385.25" y="184"/>
      <point x="278.25" y="358"/>
      <point x="171.25" y="533" type="curve"/>
      <point x="144.25" y="533"/>
      <point x="171.25" y="533"/>
      <point x="144.25" y="533" type="curve"/>
      <point x="253.25" y="357"/>
      <point x="359.25" y="179"/>
      <point x="468.25" y="4" type="curve"/>
    </contour>
    <contour>
      <point x="292.25" y="-300"/>
      <point x="265.25" y="-300"/>
      <point x="292.25" y="-300" type="curve"/>
      <point x="475.25" y="-22"/>
      <point x="658.25" y="255"/>
      <point x="841.25" y="533" type="curve"/>
      <point x="814.25" y="533"/>
      <point x="841.25" y="533"/>
      <point x="814.25" y="533" type="curve"/>
      <point x="631.25" y="255"/>
      <point x="448.25" y="-22"/>
      <point x="265.25" y="-300" type="curve"/>
    </contour>
    <contour>
      <point x="478.25" y="670" type="move" name="top"/>
    </contour>
  </outline>
</glyph>
<glyph name="braceleft" format="1">
  <advance width="402.3"/>
  <unicode hex="007B"/>
  <outline>
    <contour>
      <point x="352.95" y="-102"/>
      <point x="352.95" y="-123"/>
      <point x="352.95" y="-102" type="curve"/>
      <point x="265.95" y="-102"/>
      <point x="206.95" y="-57"/>
      <point x="206.95" y="26" type="curve"/>
      <point x="206.95" y="85"/>
      <point x="206.95" y="144"/>
      <point x="206.95" y="203" type="curve"/>
      <point x="206.95" y="297"/>
      <point x="138.95" y="350"/>
      <point x="40.95" y="350" type="curve"/>
      <point x="40.95" y="328"/>
      <point x="40.95" y="350"/>
      <point x="40.95" y="328" type="curve"/>
      <point x="124.95" y="328"/>
      <point x="185.95" y="286"/>
      <point x="185.95" y="205" type="curve"/>
      <point x="185.95" y="146"/>
      <point x="185.95" y="86"/>
      <point x="185.95" y="27" type="curve"/>
      <point x="185.95" y="-69"/>
      <point x="252.95" y="-123"/>
      <point x="352.95" y="-123" type="curve"/>
    </contour>
    <contour>
      <point x="352.95" y="800"/>
      <point x="352.95" y="779"/>
      <point x="352.95" y="800" type="curve"/>
      <point x="251.95" y="800"/>
      <point x="184.95" y="747"/>
      <point x="184.95" y="650" type="curve"/>
      <point x="184.95" y="590"/>
      <point x="184.95" y="530"/>
      <point x="184.95" y="470" type="curve"/>
      <point x="184.95" y="390"/>
      <point x="124.95" y="350"/>
      <point x="40.95" y="350" type="curve"/>
      <point x="40.95" y="328"/>
      <point x="40.95" y="350"/>
      <point x="40.95" y="328" type="curve"/>
      <point x="137.95" y="328"/>
      <point x="205.95" y="379"/>
      <point x="205.95" y="473" type="curve"/>
      <point x="205.95" y="532"/>
      <point x="205.95" y="591"/>
      <point x="205.95" y="650" type="curve"/>
      <point x="205.95" y="733"/>
      <point x="264.95" y="779"/>
      <point x="352.95" y="779" type="curve"/>
    </contour>
  </outline>
</glyph>
<glyph name="braceright" format="1">
  <advance width="402.3"/>
  <unicode hex="007D"/>
  <outline>
    <contour>
      <point x="49.35" y="-124"/>
      <point x="49.35" y="-103"/>
      <point x="49.35" y="-124" type="curve"/>
      <point x="149.35" y="-124"/>
      <point x="216.35" y="-70"/>
      <point x="216.35" y="27" type="curve"/>
      <point x="216.35" y="86"/>
      <point x="216.35" y="146"/>
      <point x="216.35" y="205" type="curve"/>
      <point x="216.35" y="285"/>
      <point x="277.35" y="327"/>
      <point x="361.35" y="327" type="curve"/>
      <point x="361.35" y="349"/>
      <point x="361.35" y="327"/>
      <point x="361.35" y="349" type="curve"/>
      <point x="263.35" y="349"/>
      <point x="195.35" y="296"/>
      <point x="195.35" y="203" type="curve"/>
      <point x="195.35" y="144"/>
      <point x="195.35" y="85"/>
      <point x="195.35" y="26" type="curve"/>
      <point x="195.35" y="-57"/>
      <point x="136.35" y="-103"/>
      <point x="49.35" y="-103" type="curve"/>
    </contour>
    <contour>
      <point x="49.35" y="778"/>
      <point x="49.35" y="799"/>
      <point x="49.35" y="778" type="curve"/>
      <point x="136.35" y="778"/>
      <point x="194.35" y="733"/>
      <point x="194.35" y="650" type="curve"/>
      <point x="194.35" y="591"/>
      <point x="194.35" y="532"/>
      <point x="194.35" y="473" type="curve"/>
      <point x="194.35" y="378"/>
      <point x="263.35" y="327"/>
      <point x="361.35" y="327" type="curve"/>
      <point x="361.35" y="349"/>
      <point x="361.35" y="327"/>
      <point x="361.35" y="349" type="curve"/>
      <point x="276.35" y="349"/>
      <point x="215.35" y="389"/>
      <point x="215.35" y="470" type="curve"/>
      <point x="215.35" y="530"/>
      <point x="215.35" y="590"/>
      <point x="215.35" y="650" type="curve"/>
      <point x="215.35" y="746"/>
      <point x="148.35" y="799"/>
      <point x="49.35" y="799" type="curve"/>
    </contour>
  </outline>
</glyph>
<glyph name="asciitilde" format="1">
  <advance width="849.85"/>
  <unicode hex="007E"/>
  <outline>
    <contour>
      <point x="737.45" y="344"/>
      <point x="757.45" y="337"/>
      <point x="737.45" y="344" type="curve"/>
      <point x="711.45" y="289"/>
      <point x="668.45" y="241"/>
      <point x="594.45" y="241" type="curve"/>
      <point x="530.45" y="241"/>
      <point x="485.45" y="255"/>
      <point x="431.45" y="290" type="curve"/>
      <point x="376.45" y="325"/>
      <point x="333.45" y="345"/>
      <point x="269.45" y="345" type="curve"/>
      <point x="174.45" y="345"/>
      <point x="122.45" y="307"/>
      <point x="93.45" y="227" type="curve"/>
      <point x="112.45" y="219"/>
      <point x="93.45" y="227"/>
      <point x="112.45" y="219" type="curve"/>
      <point x="136.45" y="285"/>
      <point x="185.45" y="324"/>
      <point x="267.45" y="324" type="curve"/>
      <point x="324.45" y="324"/>
      <point x="363.45" y="311"/>
      <point x="410.45" y="279" type="curve"/>
      <point x="472.45" y="241"/>
      <point x="519.45" y="221"/>
      <point x="592.45" y="220" type="curve"/>
      <point x="680.45" y="220"/>
      <point x="725.45" y="267"/>
      <point x="757.45" y="337" type="curve"/>
    </contour>
  </outline>
</glyph>
<glyph name="exclamdown" format="1">
  <advance width="227.0"/>
  <unicode hex="00A1"/>
  <outline>
    <contour>
      <point x="101.45" y="318" type="line"/>
      <point x="96.45" y="-175" type="line"/>
      <point x="128.45" y="-175" type="line"/>
      <point x="124.45" y="318" type="line"/>
    </contour>
    <contour>
      <point x="117.45" y="535"/>
      <point x="107.45" y="535"/>
      <point x="93.45" y="535" type="curve"/>
      <point x="93.45" y="524"/>
      <point x="101.45" y="517"/>
      <point x="113.45" y="517" type="curve"/>
      <point x="124.45" y="517"/>
      <point x="131.45" y="524"/>
      <point x="131.45" y="535" type="curve"/>
      <point x="117.45" y="535"/>
      <point x="107.45" y="535"/>
      <point x="93.45" y="535" type="curve"/>
      <point x="93.45" y="546"/>
      <point x="101.45" y="553"/>
      <point x="113.45" y="553" type="curve"/>
      <point x="124.45" y="553"/>
      <point x="131.45" y="546"/>
      <point x="131.45" y="535" type="curve"/>
    </contour>
  </outline>
</glyph>
<glyph name="cent" format="1">
  <advance width="798.05"/>
  <unicode hex="00A2"/>
  <outline>
    <contour>
      <point x="426.0" y="-53"/>
      <point x="403.0" y="-53"/>
      <point x="426.0" y="-53" type="curve"/>
      <point x="426.0" y="-13"/>
      <point x="426.0" y="27"/>
      <point x="426.0" y="67" type="curve"/>
      <point x="403.0" y="67"/>
      <point x="426.0" y="67"/>
      <point x="403.0" y="67" type="curve"/>
      <point x="403.0" y="27"/>
      <point x="403.0" y="-13"/>
      <point x="403.0" y="-53" type="curve"/>
    </contour>
    <contour>
      <point x="430.0" y="778"/>
      <point x="453.0" y="778"/>
      <point x="430.0" y="778" type="curve"/>
      <point x="430.0" y="742"/>
      <point x="430.0" y="706"/>
      <point x="430.0" y="670" type="curve"/>
      <point x="453.0" y="670"/>
      <point x="430.0" y="670"/>
      <point x="453.0" y="670" type="curve"/>
      <point x="453.0" y="706"/>
      <point x="453.0" y="742"/>
      <point x="453.0" y="778" type="curve"/>
    </contour>
    <contour>
      <point x="734.0" y="609"/>
      <point x="721.0" y="590"/>
      <point x="734.0" y="609" type="curve"/>
      <point x="636.0" y="660"/>
      <point x="558.0" y="679"/>
      <point x="447.0" y="679" type="curve"/>
      <point x="225.0" y="679"/>
      <point x="63.0" y="574"/>
      <point x="63.0" y="366" type="curve"/>
      <point x="63.0" y="168"/>
      <point x="205.0" y="54"/>
      <point x="411.0" y="54" type="curve"/>
      <point x="536.0" y="54"/>
      <point x="624.0" y="82"/>
      <point x="731.0" y="146" type="curve"/>
      <point x="716.0" y="163"/>
      <point x="731.0" y="146"/>
      <point x="716.0" y="163" type="curve"/>
      <point x="616.0" y="100"/>
      <point x="532.0" y="76"/>
      <point x="413.0" y="76" type="curve"/>
      <point x="219.0" y="76"/>
      <point x="86.0" y="181"/>
      <point x="86.0" y="367" type="curve"/>
      <point x="86.0" y="561"/>
      <point x="238.0" y="657"/>
      <point x="445.0" y="657" type="curve"/>
      <point x="552.0" y="657"/>
      <point x="628.0" y="641"/>
      <point x="721.0" y="590" type="curve"/>
    </contour>
    <contour>
      <point x="712.0" y="609"/>
      <point x="734.0" y="609"/>
      <point x="712.0" y="609" type="curve"/>
      <point x="712.0" y="489"/>
      <point x="712.0" y="609"/>
      <point x="712.0" y="489" type="curve"/>
      <point x="734.0" y="489"/>
      <point x="712.0" y="489"/>
      <point x="734.0" y="489" type="curve"/>
      <point x="734.0" y="609"/>
      <point x="734.0" y="489"/>
      <point x="734.0" y="609" type="curve"/>
    </contour>
  </outline>
</glyph>
<glyph name="sterling" format="1">
  <advance width="664.15"/>
  <unicode hex="00A3"/>
  <outline>
    <contour>
      <point x="592.3" y="22"/>
      <point x="592.3" y="1"/>
      <point x="592.3" y="22" type="curve"/>
      <point x="410.3" y="22"/>
      <point x="229.3" y="22"/>
      <point x="48.3" y="22" type="curve"/>
      <point x="48.3" y="1"/>
      <point x="48.3" y="22"/>
      <point x="48.3" y="1" type="curve"/>
      <point x="229.3" y="1"/>
      <point x="410.3" y="1"/>
      <point x="592.3" y="1" type="curve"/>
    </contour>
    <contour>
      <point x="528.3" y="388"/>
      <point x="528.3" y="367"/>
      <point x="528.3" y="388" type="curve"/>
      <point x="384.3" y="388"/>
      <point x="239.3" y="388"/>
      <point x="95.3" y="388" type="curve"/>
      <point x="95.3" y="367"/>
      <point x="95.3" y="388"/>
      <point x="95.3" y="367" type="curve"/>
      <point x="239.3" y="367"/>
      <point x="384.3" y="367"/>
      <point x="528.3" y="367" type="curve"/>
    </contour>
    <contour>
      <point x="604.3" y="674"/>
      <point x="592.3" y="656"/>
      <point x="604.3" y="674" type="curve"/>
      <point x="542.3" y="707"/>
      <point x="494.3" y="722"/>
      <point x="424.3" y="722" type="curve"/>
      <point x="257.3" y="722"/>
      <point x="174.3" y="566"/>
      <point x="226.3" y="375" type="curve"/>
      <point x="278.3" y="184"/>
      <point x="207.3" y="22"/>
      <point x="48.3" y="22" type="curve"/>
      <point x="48.3" y="1"/>
      <point x="48.3" y="22"/>
      <point x="48.3" y="1" type="curve"/>
      <point x="230.3" y="1"/>
      <point x="304.3" y="174"/>
      <point x="249.3" y="379" type="curve"/>
      <point x="202.3" y="555"/>
      <point x="281.3" y="702"/>
      <point x="423.3" y="702" type="curve"/>
      <point x="489.3" y="702"/>
      <point x="534.3" y="690"/>
      <point x="592.3" y="656" type="curve"/>
    </contour>
  </outline>
</glyph>
<glyph name="currency" format="1">
  <advance width="731.55"/>
  <unicode hex="00A4"/>
  <outline>
    <contour>
      <point x="179.25" y="310"/>
      <point x="156.25" y="310"/>
      <point x="179.25" y="310" type="curve"/>
      <point x="179.25" y="409"/>
      <point x="261.25" y="458"/>
      <point x="368.25" y="458" type="curve"/>
      <point x="475.25" y="458"/>
      <point x="552.25" y="408"/>
      <point x="552.25" y="310" type="curve"/>
      <point x="552.25" y="211"/>
      <point x="476.25" y="156"/>
      <point x="372.25" y="156" type="curve"/>
      <point x="260.25" y="156"/>
      <point x="179.25" y="207"/>
      <point x="179.25" y="310" type="curve"/>
      <point x="156.25" y="310"/>
      <point x="179.25" y="310"/>
      <point x="156.25" y="310" type="curve"/>
      <point x="156.25" y="194"/>
      <point x="247.25" y="135"/>
      <point x="371.25" y="135" type="curve"/>
      <point x="490.25" y="135"/>
      <point x="575.25" y="198"/>
      <point x="575.25" y="311" type="curve"/>
      <point x="575.25" y="422"/>
      <point x="488.25" y="479"/>
      <point x="370.25" y="479" type="curve"/>
      <point x="247.25" y="479"/>
      <point x="156.25" y="424"/>
      <point x="156.25" y="310" type="curve"/>
    </contour>
    <contour>
      <point x="527.25" y="406" type="line"/>
      <point x="662.25" y="536" type="line"/>
      <point x="641.25" y="558" type="line"/>
      <point x="510.25" y="423" type="line"/>
    </contour>
    <contour>
      <point x="508.25" y="195" type="line"/>
      <point x="639.25" y="60" type="line"/>
      <point x="660.25" y="82" type="line"/>
      <point x="525.25" y="212" type="line"/>
    </contour>
    <contour>
      <point x="203.25" y="212" type="line"/>
      <point x="68.25" y="82" type="line"/>
      <point x="89.25" y="60" type="line"/>
      <point x="220.25" y="195" type="line"/>
    </contour>
    <contour>
      <point x="220.25" y="423" type="line"/>
      <point x="89.25" y="558" type="line"/>
      <point x="68.25" y="536" type="line"/>
      <point x="203.25" y="406" type="line"/>
    </contour>
  </outline>
</glyph>
<glyph name="yen" format="1">
  <advance width="1089.4"/>
  <unicode hex="00A5"/>
  <outline>
    <contour>
      <point x="839.7" y="371"/>
      <point x="839.7" y="348"/>
      <point x="839.7" y="371" type="curve"/>
      <point x="744.7" y="371"/>
      <point x="649.7" y="371"/>
      <point x="554.7" y="371" type="curve"/>
      <point x="554.7" y="348"/>
      <point x="554.7" y="371"/>
      <point x="554.7" y="348" type="curve"/>
      <point x="649.7" y="348"/>
      <point x="744.7" y="348"/>
      <point x="839.7" y="348" type="curve"/>
    </contour>
    <contour>
      <point x="515.7" y="371"/>
      <point x="515.7" y="348"/>
      <point x="515.7" y="371" type="curve"/>
      <point x="422.7" y="371"/>
      <point x="328.7" y="371"/>
      <point x="235.7" y="371" type="curve"/>
      <point x="235.7" y="348"/>
      <point x="235.7" y="371"/>
      <point x="235.7" y="348" type="curve"/>
      <point x="328.7" y="348"/>
      <point x="422.7" y="348"/>
      <point x="515.7" y="348" type="curve"/>
    </contour>
    <contour>
      <point x="839.7" y="252"/>
      <point x="839.7" y="229"/>
      <point x="839.7" y="252" type="curve"/>
      <point x="638.7" y="252"/>
      <point x="436.7" y="252"/>
      <point x="235.7" y="252" type="curve"/>
      <point x="235.7" y="229"/>
      <point x="235.7" y="252"/>
      <point x="235.7" y="229" type="curve"/>
      <point x="436.7" y="229"/>
      <point x="638.7" y="229"/>
      <point x="839.7" y="229" type="curve"/>
    </contour>
    <contour>
      <point x="535.7" y="22"/>
      <point x="535.7" y="1"/>
      <point x="535.7" y="22" type="curve"/>
      <point x="336.7" y="22"/>
      <point x="535.7" y="22"/>
      <point x="336.7" y="22" type="curve"/>
      <point x="336.7" y="1"/>
      <point x="336.7" y="22"/>
      <point x="336.7" y="1" type="curve"/>
      <point x="402.7" y="1"/>
      <point x="469.7" y="1"/>
      <point x="535.7" y="1" type="curve"/>
    </contour>
    <contour>
      <point x="535.7" y="0"/>
      <point x="535.7" y="21"/>
      <point x="535.7" y="0" type="curve"/>
      <point x="601.7" y="0"/>
      <point x="668.7" y="0"/>
      <point x="734.7" y="0" type="curve"/>
      <point x="734.7" y="22"/>
      <point x="734.7" y="0"/>
      <point x="734.7" y="22" type="curve"/>
      <point x="535.7" y="21"/>
      <point x="734.7" y="22"/>
      <point x="535.7" y="21" type="curve"/>
    </contour>
    <contour>
      <point x="854.7" y="722"/>
      <point x="854.7" y="701"/>
      <point x="854.7" y="722" type="curve"/>
      <point x="787.7" y="722"/>
      <point x="721.7" y="722"/>
      <point x="655.7" y="722" type="curve"/>
      <point x="655.7" y="701"/>
      <point x="655.7" y="722"/>
      <point x="655.7" y="701" type="curve"/>
      <point x="854.7" y="701"/>
      <point x="655.7" y="701"/>
      <point x="854.7" y="701" type="curve"/>
    </contour>
    <contour>
      <point x="234.7" y="722"/>
      <point x="234.7" y="701"/>
      <point x="234.7" y="722" type="curve"/>
      <point x="168.7" y="722"/>
      <point x="101.7" y="722"/>
      <point x="35.7" y="722" type="curve"/>
      <point x="35.7" y="701"/>
      <point x="35.7" y="722"/>
      <point x="35.7" y="701" type="curve"/>
      <point x="234.7" y="701"/>
      <point x="35.7" y="701"/>
      <point x="234.7" y="701" type="curve"/>
    </contour>
    <contour>
      <point x="234.7" y="701"/>
      <point x="234.7" y="722"/>
      <point x="234.7" y="701" type="curve"/>
      <point x="433.7" y="701"/>
      <point x="234.7" y="701"/>
      <point x="433.7" y="701" type="curve"/>
      <point x="433.7" y="722"/>
      <point x="433.7" y="701"/>
      <point x="433.7" y="722" type="curve"/>
      <point x="367.7" y="722"/>
      <point x="300.7" y="722"/>
      <point x="234.7" y="722" type="curve"/>
    </contour>
    <contour>
      <point x="854.7" y="701"/>
      <point x="854.7" y="722"/>
      <point x="854.7" y="701" type="curve"/>
      <point x="1053.7" y="701"/>
      <point x="854.7" y="701"/>
      <point x="1053.7" y="701" type="curve"/>
      <point x="1053.7" y="722"/>
      <point x="1053.7" y="701"/>
      <point x="1053.7" y="722" type="curve"/>
      <point x="986.7" y="722"/>
      <point x="920.7" y="722"/>
      <point x="854.7" y="722" type="curve"/>
    </contour>
    <contour>
      <point x="205.7" y="722"/>
      <point x="230.7" y="722"/>
      <point x="205.7" y="722" type="curve"/>
      <point x="311.7" y="593"/>
      <point x="417.7" y="464"/>
      <point x="523.7" y="335" type="curve"/>
      <point x="546.7" y="335"/>
      <point x="523.7" y="335"/>
      <point x="546.7" y="335" type="curve"/>
      <point x="441.7" y="464"/>
      <point x="335.7" y="593"/>
      <point x="230.7" y="722" type="curve"/>
    </contour>
    <contour>
      <point x="857.7" y="721"/>
      <point x="882.7" y="721"/>
      <point x="857.7" y="721" type="curve"/>
      <point x="745.7" y="592"/>
      <point x="634.7" y="464"/>
      <point x="523.7" y="335" type="curve"/>
      <point x="546.7" y="335"/>
      <point x="523.7" y="335"/>
      <point x="546.7" y="335" type="curve"/>
      <point x="658.7" y="464"/>
      <point x="770.7" y="593"/>
      <point x="882.7" y="721" type="curve"/>
    </contour>
    <contour>
      <point x="546.7" y="0"/>
      <point x="523.7" y="0"/>
      <point x="546.7" y="0" type="curve"/>
      <point x="546.7" y="112"/>
      <point x="546.7" y="223"/>
      <point x="546.7" y="335" type="curve"/>
      <point x="523.7" y="335"/>
      <point x="546.7" y="335"/>
      <point x="523.7" y="335" type="curve"/>
      <point x="523.7" y="223"/>
      <point x="523.7" y="112"/>
      <point x="523.7" y="0" type="curve"/>
    </contour>
  </outline>
</glyph>
<glyph name="brokenbar" format="1">
  <advance width="218.09"/>
  <unicode hex="00A6"/>
  <outline>
    <contour>
      <point x="120.545" y="-300"/>
      <point x="97.545" y="-300"/>
      <point x="120.545" y="-300" type="curve"/>
      <point x="120.545" y="-176"/>
      <point x="120.545" y="-52"/>
      <point x="120.545" y="72" type="curve"/>
      <point x="97.545" y="72"/>
      <point x="120.545" y="72"/>
      <point x="97.545" y="72" type="curve"/>
      <point x="97.545" y="-52"/>
      <point x="97.545" y="-176"/>
      <point x="97.545" y="-300" type="curve"/>
    </contour>
    <contour>
      <point x="120.545" y="428"/>
      <point x="97.545" y="428"/>
      <point x="120.545" y="428" type="curve"/>
      <point x="120.545" y="552"/>
      <point x="120.545" y="676"/>
      <point x="120.545" y="800" type="curve"/>
      <point x="97.545" y="800"/>
      <point x="120.545" y="800"/>
      <point x="97.545" y="800" type="curve"/>
      <point x="97.545" y="676"/>
      <point x="97.545" y="552"/>
      <point x="97.545" y="428" type="curve"/>
    </contour>
  </outline>
</glyph>
<glyph name="section" format="1">
  <advance width="602.55"/>
  <unicode hex="00A7"/>
  <outline>
    <contour>
      <point x="498.4" y="709"/>
      <point x="488.4" y="691"/>
      <point x="498.4" y="709" type="curve"/>
      <point x="429.4" y="738"/>
      <point x="377.4" y="752"/>
      <point x="302.4" y="752" type="curve"/>
      <point x="197.4" y="752"/>
      <point x="117.4" y="716"/>
      <point x="117.4" y="627" type="curve"/>
      <point x="117.4" y="540"/>
      <point x="192.4" y="509"/>
      <point x="282.4" y="485" type="curve"/>
      <point x="393.4" y="456"/>
      <point x="513.4" y="462"/>
      <point x="513.4" y="361" type="curve"/>
      <point x="513.4" y="280"/>
      <point x="439.4" y="241"/>
      <point x="344.4" y="228" type="curve"/>
      <point x="358.4" y="211"/>
      <point x="344.4" y="228"/>
      <point x="358.4" y="211" type="curve"/>
      <point x="458.4" y="230"/>
      <point x="536.4" y="267"/>
      <point x="536.4" y="361" type="curve"/>
      <point x="535.4" y="477"/>
      <point x="414.4" y="477"/>
      <point x="294.4" y="505" type="curve"/>
      <point x="212.4" y="525"/>
      <point x="140.4" y="551"/>
      <point x="140.4" y="627" type="curve"/>
      <point x="140.4" y="703"/>
      <point x="209.4" y="731"/>
      <point x="300.4" y="731" type="curve"/>
      <point x="372.4" y="731"/>
      <point x="421.4" y="719"/>
      <point x="488.4" y="691" type="curve"/>
    </contour>
    <contour>
      <point x="239.4" y="513"/>
      <point x="250.4" y="498"/>
      <point x="239.4" y="513" type="curve"/>
      <point x="146.4" y="492"/>
      <point x="71.4" y="457"/>
      <point x="71.4" y="367" type="curve"/>
      <point x="71.4" y="258"/>
      <point x="180.4" y="247"/>
      <point x="295.4" y="220" type="curve"/>
      <point x="385.4" y="196"/>
      <point x="474.4" y="182"/>
      <point x="474.4" y="100" type="curve"/>
      <point x="474.4" y="25"/>
      <point x="398.4" y="-8"/>
      <point x="305.4" y="-8" type="curve"/>
      <point x="223.4" y="-8"/>
      <point x="168.4" y="8"/>
      <point x="96.4" y="44" type="curve"/>
      <point x="83.4" y="28"/>
      <point x="96.4" y="44"/>
      <point x="83.4" y="28" type="curve"/>
      <point x="158.4" y="-13"/>
      <point x="218.4" y="-29"/>
      <point x="304.4" y="-29" type="curve"/>
      <point x="411.4" y="-29"/>
      <point x="497.4" y="4"/>
      <point x="497.4" y="100" type="curve"/>
      <point x="495.4" y="193"/>
      <point x="408.4" y="217"/>
      <point x="309.4" y="239" type="curve"/>
      <point x="203.4" y="266"/>
      <point x="95.4" y="273"/>
      <point x="95.4" y="367" type="curve"/>
      <point x="95.4" y="449"/>
      <point x="164.4" y="477"/>
      <point x="250.4" y="498" type="curve"/>
    </contour>
    <contour>
      <point x="105.4" y="28"/>
      <point x="83.4" y="28"/>
      <point x="105.4" y="28" type="curve"/>
      <point x="105.4" y="148"/>
      <point x="105.4" y="28"/>
      <point x="105.4" y="148" type="curve"/>
      <point x="83.4" y="148"/>
      <point x="105.4" y="148"/>
      <point x="83.4" y="148" type="curve"/>
      <point x="83.4" y="28"/>
      <point x="83.4" y="148"/>
      <point x="83.4" y="28" type="curve"/>
    </contour>
    <contour>
      <point x="498.4" y="589"/>
      <point x="476.4" y="589"/>
      <point x="498.4" y="589" type="curve"/>
      <point x="498.4" y="709"/>
      <point x="498.4" y="589"/>
      <point x="498.4" y="709" type="curve"/>
      <point x="476.4" y="709"/>
      <point x="498.4" y="709"/>
      <point x="476.4" y="709" type="curve"/>
      <point x="476.4" y="589"/>
      <point x="476.4" y="709"/>
      <point x="476.4" y="589" type="curve"/>
    </contour>
  </outline>
</glyph>
<glyph name="dieresis" format="1">
  <advance width="415.25"/>
  <unicode hex="00A8"/>
  <outline>
    <contour>
      <point x="69.65" y="669"/>
      <point x="79.65" y="669"/>
      <point x="93.65" y="669" type="curve"/>
      <point x="93.65" y="680"/>
      <point x="85.65" y="687"/>
      <point x="73.65" y="687" type="curve"/>
      <point x="62.65" y="687"/>
      <point x="55.65" y="680"/>
      <point x="55.65" y="669" type="curve"/>
      <point x="69.65" y="669"/>
      <point x="79.65" y="669"/>
      <point x="93.65" y="669" type="curve"/>
      <point x="93.65" y="658"/>
      <point x="85.65" y="651"/>
      <point x="73.65" y="651" type="curve"/>
      <point x="62.65" y="651"/>
      <point x="55.65" y="658"/>
      <point x="55.65" y="669" type="curve"/>
    </contour>
    <contour>
      <point x="231.65" y="669"/>
      <point x="241.65" y="669"/>
      <point x="255.65" y="669" type="curve"/>
      <point x="255.65" y="680"/>
      <point x="247.65" y="687"/>
      <point x="235.65" y="687" type="curve"/>
      <point x="224.65" y="687"/>
      <point x="217.65" y="680"/>
      <point x="217.65" y="669" type="curve"/>
      <point x="231.65" y="669"/>
      <point x="241.65" y="669"/>
      <point x="255.65" y="669" type="curve"/>
      <point x="255.65" y="658"/>
      <point x="247.65" y="651"/>
      <point x="235.65" y="651" type="curve"/>
      <point x="224.65" y="651"/>
      <point x="217.65" y="658"/>
      <point x="217.65" y="669" type="curve"/>
    </contour>
    <contour>
      <point x="156.65" y="651" type="move" name="_top"/>
    </contour>
  </outline>
</glyph>
<glyph name="copyright" format="1">
  <advance width="974.5"/>
  <unicode hex="00A9"/>
  <outline>
    <contour>
      <point x="91.25" y="319"/>
      <point x="68.25" y="319"/>
      <point x="91.25" y="319" type="curve"/>
      <point x="91.25" y="522"/>
      <point x="271.25" y="625"/>
      <point x="492.25" y="625" type="curve"/>
      <point x="707.25" y="625"/>
      <point x="883.25" y="519"/>
      <point x="883.25" y="318" type="curve"/>
      <point x="883.25" y="122"/>
      <point x="711.25" y="17"/>
      <point x="500.25" y="17" type="curve"/>
      <point x="278.25" y="17"/>
      <point x="91.25" y="115"/>
      <point x="91.25" y="319" type="curve"/>
      <point x="68.25" y="319"/>
      <point x="91.25" y="319"/>
      <point x="68.25" y="319" type="curve"/>
      <point x="68.25" y="104"/>
      <point x="262.25" y="-4"/>
      <point x="499.25" y="-4" type="curve"/>
      <point x="725.25" y="-4"/>
      <point x="906.25" y="109"/>
      <point x="906.25" y="319" type="curve"/>
      <point x="906.25" y="532"/>
      <point x="721.25" y="645"/>
      <point x="492.25" y="645" type="curve"/>
      <point x="259.25" y="645"/>
      <point x="68.25" y="535"/>
      <point x="68.25" y="319" type="curve"/>
    </contour>
    <contour>
      <point x="627.25" y="452"/>
      <point x="648.25" y="464"/>
      <point x="627.25" y="452" type="curve"/>
      <point x="627.25" y="429"/>
      <point x="627.25" y="405"/>
      <point x="627.25" y="381" type="curve"/>
      <point x="648.25" y="381"/>
      <point x="627.25" y="381"/>
      <point x="648.25" y="381" type="curve"/>
      <point x="648.25" y="409"/>
      <point x="648.25" y="436"/>
      <point x="648.25" y="464" type="curve"/>
    </contour>
    <contour>
      <point x="649.25" y="464"/>
      <point x="628.25" y="453"/>
      <point x="649.25" y="464" type="curve"/>
      <point x="597.25" y="488"/>
      <point x="557.25" y="496"/>
      <point x="500.25" y="496" type="curve"/>
      <point x="375.25" y="496"/>
      <point x="283.25" y="436"/>
      <point x="283.25" y="319" type="curve"/>
      <point x="283.25" y="207"/>
      <point x="366.25" y="146"/>
      <point x="484.25" y="146" type="curve"/>
      <point x="555.25" y="146"/>
      <point x="606.25" y="156"/>
      <point x="667.25" y="193" type="curve"/>
      <point x="652.25" y="209"/>
      <point x="667.25" y="193"/>
      <point x="652.25" y="209" type="curve"/>
      <point x="597.25" y="175"/>
      <point x="550.25" y="166"/>
      <point x="485.25" y="166" type="curve"/>
      <point x="380.25" y="166"/>
      <point x="306.25" y="220"/>
      <point x="306.25" y="320" type="curve"/>
      <point x="306.25" y="423"/>
      <point x="387.25" y="475"/>
      <point x="499.25" y="475" type="curve"/>
      <point x="552.25" y="475"/>
      <point x="586.25" y="468"/>
      <point x="628.25" y="453" type="curve"/>
    </contour>
  </outline>
</glyph>
<glyph name="ordfeminine" format="1">
  <advance width="562.85"/>
  <unicode hex="00AA"/>
  <outline>
    <contour>
      <point x="109.95" y="713"/>
      <point x="103.95" y="713"/>
      <point x="95.95" y="713" type="curve"/>
      <point x="95.95" y="686"/>
      <point x="95.95" y="667"/>
      <point x="95.95" y="640" type="curve"/>
      <point x="103.95" y="640"/>
      <point x="109.95" y="640"/>
      <point x="117.95" y="640" type="curve"/>
      <point x="117.95" y="667"/>
      <point x="117.95" y="686"/>
      <point x="117.95" y="713" type="curve"/>
    </contour>
    <contour>
      <point x="389.95" y="426"/>
      <point x="396.95" y="426"/>
      <point x="405.95" y="426" type="curve"/>
      <point x="405.95" y="520"/>
      <point x="405.95" y="586"/>
      <point x="405.95" y="680" type="curve"/>
      <point x="405.95" y="751"/>
      <point x="334.95" y="765"/>
      <point x="252.95" y="765" type="curve"/>
      <point x="190.95" y="765"/>
      <point x="131.95" y="743"/>
      <point x="95.95" y="713" type="curve"/>
      <point x="98.95" y="706"/>
      <point x="100.95" y="702"/>
      <point x="103.95" y="695" type="curve"/>
      <point x="137.95" y="720"/>
      <point x="191.95" y="743"/>
      <point x="249.95" y="743" type="curve"/>
      <point x="319.95" y="743"/>
      <point x="380.95" y="733"/>
      <point x="380.95" y="673" type="curve"/>
      <point x="380.95" y="582"/>
      <point x="380.95" y="517"/>
      <point x="380.95" y="426" type="curve"/>
    </contour>
    <contour>
      <point x="395.95" y="440"/>
      <point x="395.95" y="434"/>
      <point x="395.95" y="426" type="curve"/>
      <point x="427.95" y="426"/>
      <point x="448.95" y="426"/>
      <point x="480.95" y="426" type="curve"/>
      <point x="480.95" y="434"/>
      <point x="480.95" y="440"/>
      <point x="480.95" y="448" type="curve"/>
      <point x="448.95" y="448"/>
      <point x="427.95" y="448"/>
      <point x="395.95" y="448" type="curve"/>
    </contour>
    <contour>
      <point x="392.95" y="618"/>
      <point x="391.95" y="623"/>
      <point x="391.95" y="630" type="curve"/>
      <point x="324.95" y="623"/>
      <point x="277.95" y="623"/>
      <point x="210.95" y="616" type="curve"/>
      <point x="138.95" y="609"/>
      <point x="82.95" y="580"/>
      <point x="82.95" y="513" type="curve"/>
      <point x="82.95" y="445"/>
      <point x="142.95" y="418"/>
      <point x="218.95" y="418" type="curve"/>
      <point x="298.95" y="418"/>
      <point x="358.95" y="463"/>
      <point x="398.95" y="521" type="curve"/>
      <point x="394.95" y="525"/>
      <point x="390.95" y="529"/>
      <point x="386.95" y="533" type="curve"/>
      <point x="350.95" y="482"/>
      <point x="295.95" y="440"/>
      <point x="223.95" y="440" type="curve"/>
      <point x="159.95" y="440"/>
      <point x="106.95" y="458"/>
      <point x="106.95" y="515" type="curve"/>
      <point x="106.95" y="568"/>
      <point x="151.95" y="590"/>
      <point x="209.95" y="596" type="curve"/>
      <point x="276.95" y="603"/>
      <point x="325.95" y="604"/>
      <point x="392.95" y="611" type="curve"/>
    </contour>
  </outline>
</glyph>
<glyph name="guillemotleft" format="1">
  <advance width="783.5"/>
  <unicode hex="00AB"/>
  <outline>
    <contour>
      <point x="377.75" y="397"/>
      <point x="377.75" y="374"/>
      <point x="377.75" y="397" type="curve"/>
      <point x="78.75" y="288" type="line"/>
      <point x="78.75" y="265"/>
      <point x="78.75" y="288"/>
      <point x="78.75" y="265" type="curve"/>
      <point x="377.75" y="374" type="line"/>
    </contour>
    <contour>
      <point x="377.75" y="179"/>
      <point x="377.75" y="156"/>
      <point x="377.75" y="179" type="curve"/>
      <point x="78.75" y="288" type="line"/>
      <point x="78.75" y="265"/>
      <point x="78.75" y="288"/>
      <point x="78.75" y="265" type="curve"/>
      <point x="377.75" y="156" type="line"/>
    </contour>
    <contour>
      <point x="683.75" y="397"/>
      <point x="683.75" y="374"/>
      <point x="683.75" y="397" type="curve"/>
      <point x="384.75" y="288" type="line"/>
      <point x="384.75" y="265"/>
      <point x="384.75" y="288"/>
      <point x="384.75" y="265" type="curve"/>
      <point x="683.75" y="374" type="line"/>
    </contour>
    <contour>
      <point x="683.75" y="179"/>
      <point x="683.75" y="156"/>
      <point x="683.75" y="179" type="curve"/>
      <point x="384.75" y="288" type="line"/>
      <point x="384.75" y="265"/>
      <point x="384.75" y="288"/>
      <point x="384.75" y="265" type="curve"/>
      <point x="683.75" y="156" type="line"/>
    </contour>
  </outline>
</glyph>
<glyph name="logicalnot" format="1">
  <advance width="832.9"/>
  <unicode hex="00AC"/>
  <outline>
    <contour>
      <point x="115.5" y="297"/>
      <point x="115.5" y="321"/>
      <point x="115.5" y="297" type="curve"/>
      <point x="115.5" y="297"/>
      <point x="740.5" y="297"/>
      <point x="740.5" y="297" type="curve"/>
      <point x="740.5" y="321"/>
      <point x="740.5" y="297"/>
      <point x="740.5" y="321" type="curve"/>
      <point x="740.5" y="321"/>
      <point x="115.5" y="321"/>
      <point x="115.5" y="321" type="curve"/>
    </contour>
    <contour>
      <point x="740.5" y="153"/>
      <point x="716.5" y="153"/>
      <point x="740.5" y="153" type="curve"/>
      <point x="740.5" y="153"/>
      <point x="740.5" y="321"/>
      <point x="740.5" y="321" type="curve"/>
      <point x="716.5" y="321"/>
      <point x="740.5" y="321"/>
      <point x="716.5" y="321" type="curve"/>
      <point x="716.5" y="321"/>
      <point x="716.5" y="153"/>
      <point x="716.5" y="153" type="curve"/>
    </contour>
  </outline>
</glyph>
